<svg width="584" height="782" viewBox="0 0 584 782" fill="none" xmlns="http://www.w3.org/2000/svg">
<path d="M113.946 273.953L84.7119 244.718L146.746 182.685H203.076M113.946 273.953L108.242 279.657M113.946 273.953L118.938 268.962M2 385.899L2.35652 385.543M203.076 182.685H245.858L426.255 3C524.577 143.494 573.977 254.263 581.788 358.091M203.076 182.685V223.327L162.433 263.97L143.181 244.718L135.337 252.562M108.242 279.657L2.35652 385.543M108.242 279.657L112.52 283.935M127.137 472.533L203.076 548.471V588.401H242.292C302.942 649.051 340.743 686.852 394.882 740.99M127.137 472.533L135.337 464.333L123.216 452.211V320.3L136.05 307.465L131.059 302.474M127.137 472.533L108.242 491.428L2.35652 385.543M582 413.707C574.378 525.69 518.284 634.261 423.403 769.511C421.479 767.587 419.578 765.686 417.699 763.807" stroke="#18211A" stroke-width="3"/>
<path d="M112.121 284L121.71 293.589L131.299 303.178M118.517 269.483C121.83 266.17 123.687 264.313 127 261C130.313 257.687 135.483 252.517 135.483 252.517M582.355 357.168V385.935V414.702M394.5 741C394.5 741 408.886 755.386 418.104 764.604" stroke="#FF8822"/>
<path d="M381.5 775.5L380.793 776.207L381.5 776.914L382.207 776.207L381.5 775.5ZM392.5 765.5C392.5 764.948 392.052 764.5 391.5 764.5L382.5 764.5C381.948 764.5 381.5 764.948 381.5 765.5C381.5 766.052 381.948 766.5 382.5 766.5L390.5 766.5L390.5 774.5C390.5 775.052 390.948 775.5 391.5 775.5C392.052 775.5 392.5 775.052 392.5 774.5L392.5 765.5ZM382.207 776.207L392.207 766.207L390.793 764.793L380.793 774.793L382.207 776.207ZM382.207 774.793L332.707 725.293L331.293 726.707L380.793 776.207L382.207 774.793Z" fill="#55DD77"/>
<path d="M206 264.213C206 264.765 206.448 265.213 207 265.213H216C216.552 265.213 217 264.765 217 264.213C217 263.661 216.552 263.213 216 263.213H208V255.213C208 254.661 207.552 254.213 207 254.213C206.448 254.213 206 254.661 206 255.213L206 264.213ZM227.506 242.293L206.293 263.506L207.707 264.92L228.92 243.707L227.506 242.293Z" fill="#55DD77"/>
<path d="M207 500C206.448 500 206 500.448 206 501L206 510C206 510.552 206.448 511 207 511C207.552 511 208 510.552 208 510V502H216C216.552 502 217 501.552 217 501C217 500.448 216.552 500 216 500H207ZM228.92 521.506L207.707 500.293L206.293 501.707L227.506 522.92L228.92 521.506Z" fill="#55DD77"/>
</svg>
