<svg width="449" height="354" viewBox="0 0 449 354" fill="none" xmlns="http://www.w3.org/2000/svg">
<path d="M2 119.944V2H148.898M2 119.944H148.898M2 119.944V232.779M148.898 119.944V109.725M148.898 119.944V154.433M148.898 2H446.526C446.526 94.7847 446.526 159.898 446.526 234.908M148.898 2V43.3017M148.898 232.779H2M148.898 232.779V222.134M148.898 232.779V241.294M2 232.779V352H148.898M148.898 352V308.569M148.898 352H334.117M446.526 327.73C446.526 335.616 446.526 343.697 446.526 352H334.117M334.117 352V202.973" stroke="#18211A" stroke-width="3"/>
<path d="M148.898 43.3018V109.725M148.898 154.433V222.134M148.898 241.294V308.569M446.526 234.908V327.73" stroke="#FF8822"/>
</svg>
