<svg width="526" height="415" viewBox="0 0 526 415" fill="none" xmlns="http://www.w3.org/2000/svg">
<path d="M2 140.5V2H174.5M2 140.5H174.5M2 140.5V273M174.5 140.5V128.5M174.5 140.5V181M174.5 2H524C524 110.956 524 187.417 524 275.5M174.5 2V50.5M174.5 273H2M174.5 273V260.5M174.5 273V283M2 273V413H174.5M174.5 413V362M174.5 413H392M524 384.5C524 393.761 524 403.25 524 413H392M392 413V238" stroke="#18211A" stroke-width="3"/>
<path d="M174.5 50.5V128.5M174.5 181V260.5M174.5 283V362M524 275.5V384.5" stroke="#FF8822"/>
</svg>
