<svg width="532" height="415" viewBox="0 0 532 415" fill="none" xmlns="http://www.w3.org/2000/svg">
<path d="M174.862 2H2V139.806M174.862 2V48.5397M174.862 2H356.5M2 139.806H174.862M2 139.806V272.776M174.862 139.806V128.322M174.862 139.806V151.29M174.862 272.776H2M174.862 272.776V229.863M174.862 272.776V283.656M2 272.776V413H174.862M174.862 413H529.651V137.388M174.862 413V363.438M529.651 27.3853V2H356.5M356.5 2V164.5" stroke="#18211A" stroke-width="3"/>
<path d="M174.862 48.5397V128.322M174.862 151.29V229.863M174.862 283.656V363.438M529.651 27.3853V137.388" stroke="#FF8822"/>
</svg>
