<svg width="453" height="354" viewBox="0 0 453 354" fill="none" xmlns="http://www.w3.org/2000/svg">
<path d="M149.206 2H2V119.353M149.206 2V41.6324M149.206 2H303.886M2 119.353H149.206M2 119.353V232.588M149.206 119.353V109.574M149.206 119.353V129.132M149.206 232.588H2M149.206 232.588V196.044M149.206 232.588V241.853M2 232.588V352H149.206M149.206 352H451.338V117.294M149.206 352V309.794M451.338 23.6176V2H303.886M303.886 2V140.382" stroke="#18211A" stroke-width="3"/>
<path d="M149.206 41.6324V109.574M149.206 129.132V196.044M149.206 241.853V309.794M451.338 23.6177V117.294" stroke="#FF8822"/>
</svg>
