<svg width="603" height="441" viewBox="0 0 603 441" fill="none" xmlns="http://www.w3.org/2000/svg">
<path d="M337.336 274.355V263.604H601.5V2H1.5V352.683H71.6365V439.201H337.336V352.683V342.956" stroke="#18211A" stroke-width="3"/>
<path d="M337.336 342.956V274.355" stroke="#FF8822"/>
<path d="M61.6702 38.2C61.9035 38.2 62.0995 38.284 62.2582 38.452C62.4169 38.6107 62.4962 38.8113 62.4962 39.054V47.146C62.4962 47.3887 62.4075 47.594 62.2302 47.762C62.0529 47.9207 61.8335 48 61.5722 48C61.3109 48 61.0962 47.9207 60.9282 47.762C60.7602 47.594 60.6762 47.3887 60.6762 47.146V40.51L59.8082 41.042C59.6682 41.126 59.5189 41.168 59.3602 41.168C59.1269 41.168 58.9262 41.0793 58.7582 40.902C58.5995 40.7247 58.5202 40.5287 58.5202 40.314C58.5202 40.1647 58.5575 40.0247 58.6322 39.894C58.7162 39.7633 58.8235 39.6607 58.9542 39.586L61.0682 38.326C61.2269 38.242 61.4275 38.2 61.6702 38.2Z" fill="white"/>
</svg>
