<svg width="533" height="394" viewBox="0 0 533 394" fill="none" xmlns="http://www.w3.org/2000/svg">
<path d="M298.155 245.041V235.448H531.5V2H1.5V314.938H63.4539V392.145H298.155V314.938V306.258" stroke="#18211A" stroke-width="3"/>
<path d="M298.155 306.258V245.041" stroke="#FF8822"/>
<path d="M54.6305 44.5558C54.3692 44.5558 54.1545 44.4765 53.9865 44.3178C53.8185 44.1498 53.7345 43.9445 53.7345 43.7018V36.6458L53.9305 36.9538L52.8665 37.5978C52.7265 37.6818 52.5772 37.7238 52.4185 37.7238C52.1759 37.7238 51.9752 37.6352 51.8165 37.4578C51.6579 37.2712 51.5785 37.0752 51.5785 36.8698C51.5785 36.5525 51.7232 36.3098 52.0125 36.1418L54.1265 34.8818C54.2852 34.7978 54.4859 34.7558 54.7285 34.7558C54.9712 34.7558 55.1672 34.8398 55.3165 35.0078C55.4752 35.1665 55.5545 35.3672 55.5545 35.6098V43.7018C55.5545 43.9445 55.4659 44.1498 55.2885 44.3178C55.1205 44.4765 54.9012 44.5558 54.6305 44.5558Z" fill="white"/>
</svg>
