<svg width="547" height="404" viewBox="0 0 547 404" fill="none" xmlns="http://www.w3.org/2000/svg">
<path d="M305.649 251.18V241.344H544.887V2H1.5V322.843H65.0188V402H305.649V322.843V313.944" stroke="#18211A" stroke-width="3"/>
<path d="M305.649 313.944V251.18" stroke="#FF8822"/>
<path d="M55.9581 45.2772C55.6968 45.2772 55.4821 45.1978 55.3141 45.0392C55.1461 44.8712 55.0621 44.6658 55.0621 44.4232V37.3672L55.2581 37.6752L54.1941 38.3192C54.0541 38.4032 53.9048 38.4452 53.7461 38.4452C53.5034 38.4452 53.3028 38.3565 53.1441 38.1792C52.9854 37.9925 52.9061 37.7965 52.9061 37.5912C52.9061 37.2738 53.0508 37.0312 53.3401 36.8632L55.4541 35.6032C55.6128 35.5192 55.8134 35.4772 56.0561 35.4772C56.2988 35.4772 56.4948 35.5612 56.6441 35.7292C56.8028 35.8878 56.8821 36.0885 56.8821 36.3312V44.4232C56.8821 44.6658 56.7934 44.8712 56.6161 45.0392C56.4481 45.1978 56.2288 45.2772 55.9581 45.2772Z" fill="white"/>
</svg>
