<svg width="594" height="112" viewBox="0 0 594 112" fill="none" xmlns="http://www.w3.org/2000/svg">
<path d="M47.5 62.338C32.5978 62.338 17.2861 62.338 1.5 62.338V43.9022M47.5 62.338V57.4218M47.5 62.338V67.2542M99 62.338C263.331 62.338 382.005 62.338 559.5 62.338M99 62.338V67.2542M99 62.338V57.4218M559.5 62.338V57.4218M559.5 62.338V67.2542M582 62.338C585.477 62.338 588.977 62.338 592.5 62.338V53.1201M582 62.338V67.2542M582 62.338V57.4218M1.5 19.3212V1.5H254M279 1.5L455 1.5M492.5 1.5L592.5 1.5V10.1034" stroke="#18211A" stroke-width="3"/>
<path d="M1.5 19.3212V43.9022M254 1.5H279M455 1.5H492.5M592.5 10.1034V53.1201" stroke="#FF8822"/>
<path d="M572.707 69.0052C572.317 68.6147 571.683 68.6147 571.293 69.0052L564.929 75.3691C564.538 75.7597 564.538 76.3928 564.929 76.7834C565.319 77.1739 565.953 77.1739 566.343 76.7834L572 71.1265L577.657 76.7834C578.047 77.1739 578.681 77.1739 579.071 76.7834C579.462 76.3928 579.462 75.7597 579.071 75.3691L572.707 69.0052ZM573 111.5L573 69.7123L571 69.7123L571 111.5L573 111.5Z" fill="#55DD77"/>
</svg>
