<svg width="594" height="91" viewBox="0 0 594 91" fill="none" xmlns="http://www.w3.org/2000/svg">
<path d="M47.5 51C32.5978 51 17.2861 51 1.5 51V36M47.5 51V47M47.5 51V55M99 51C263.331 51 382.005 51 559.5 51M99 51V55M99 51V47M559.5 51V47M559.5 51V55M582 51C585.477 51 588.977 51 592.5 51V43.5M582 51V55M582 51V47M1.5 16V1.5H254M279 1.5L455 1.5M492.5 1.5L592.5 1.5V8.5" stroke="#18211A" stroke-width="3"/>
<path d="M1.5 16V36M254 1.5H279M455 1.5H492.5M592.5 8.5V43.5" stroke="#FF8822"/>
<path d="M572.707 56.2929C572.317 55.9024 571.683 55.9024 571.293 56.2929L564.929 62.6569C564.538 63.0474 564.538 63.6805 564.929 64.0711C565.319 64.4616 565.953 64.4616 566.343 64.0711L572 58.4142L577.657 64.0711C578.047 64.4616 578.681 64.4616 579.071 64.0711C579.462 63.6805 579.462 63.0474 579.071 62.6569L572.707 56.2929ZM573 91L573 57L571 57L571 91L573 91Z" fill="#55DD77"/>
</svg>
