<svg width="200" height="451" viewBox="0 0 200 451" fill="none" xmlns="http://www.w3.org/2000/svg">
<path d="M198.5 14V2H26V209.5M198.5 58.5V367M26 279.5V367M26 367V449H198.5V367M26 367H41M198.5 367H101.5H87.5" stroke="#18211A" stroke-width="3"/>
<path d="M41 367H87.5M26 279.5V209.5M198.5 14V58.5" stroke="#FF8822"/>
<path d="M1 244L1 243H0L0 244H1ZM13.7071 244.707C14.0976 244.317 14.0976 243.683 13.7071 243.293L7.34315 236.929C6.95262 236.538 6.31946 236.538 5.92893 236.929C5.53841 237.319 5.53841 237.953 5.92893 238.343L11.5858 244L5.92893 249.657C5.53841 250.047 5.53841 250.681 5.92893 251.071C6.31946 251.462 6.95262 251.462 7.34315 251.071L13.7071 244.707ZM1 245H13V243H1L1 245ZM0 244L0 291.5H2L2 244H0Z" fill="#55DD77"/>
</svg>
