<svg width="278" height="352" viewBox="0 0 278 352" fill="none" xmlns="http://www.w3.org/2000/svg">
<path d="M1.5 109.192V1.5H275.803V348.378H1.5M1.5 109.192V241.857M1.5 109.192H168.111M1.5 109.192L168.111 241.857M1.5 241.857H168.111M1.5 241.857L168.111 109.192M1.5 348.378V345.257M1.5 348.378V351.5M168.111 109.192V241.857" stroke="#18211A" stroke-width="3"/>
<path d="M222.738 54.1755H223.738V53.1755L222.738 53.1755L222.738 54.1755ZM8.20658 53.4684C7.81605 53.8589 7.81605 54.4921 8.20658 54.8826L14.5705 61.2466C14.9611 61.6371 15.5942 61.6371 15.9848 61.2466C16.3753 60.8561 16.3753 60.2229 15.9848 59.8324L10.3279 54.1755L15.9848 48.5187C16.3753 48.1281 16.3753 47.495 15.9848 47.1044C15.5942 46.7139 14.9611 46.7139 14.5705 47.1044L8.20658 53.4684ZM222.738 296.093V297.093H223.738V296.093H222.738ZM222.738 53.1755L8.91368 53.1755L8.91368 55.1755L222.738 55.1755L222.738 53.1755ZM221.738 54.1755L221.738 296.093H223.738L223.738 54.1755H221.738ZM222.738 295.093L8.91369 295.093V297.093L222.738 297.093V295.093Z" fill="#55DD77"/>
</svg>
