<svg width="356" height="452" viewBox="0 0 356 452" fill="none" xmlns="http://www.w3.org/2000/svg">
<path d="M1.5 139.962V1.5H354.176V447.487H1.5M1.5 139.962V310.53M1.5 139.962H215.714M1.5 139.962L215.714 310.53M1.5 310.53H215.714M1.5 310.53L215.714 139.962M1.5 447.487V443.473M1.5 447.487V451.5M215.714 139.962V310.53" stroke="#18211A" stroke-width="3"/>
<path d="M285.948 69.2257H286.948V68.2257L285.948 68.2257L285.948 69.2257ZM10.3248 68.5186C9.93424 68.9091 9.93424 69.5422 10.3248 69.9328L16.6887 76.2967C17.0792 76.6873 17.7124 76.6873 18.1029 76.2967C18.4935 75.9062 18.4935 75.273 18.1029 74.8825L12.4461 69.2257L18.1029 63.5688C18.4935 63.1783 18.4935 62.5451 18.1029 62.1546C17.7124 61.7641 17.0792 61.7641 16.6887 62.1546L10.3248 68.5186ZM285.948 380.262V381.262H286.948V380.262H285.948ZM285.948 68.2257L11.0319 68.2257L11.0319 70.2257L285.948 70.2257L285.948 68.2257ZM284.948 69.2257L284.948 380.262H286.948L286.948 69.2257H284.948ZM285.948 379.262L11.0319 379.262V381.262L285.948 381.262V379.262Z" fill="#55DD77"/>
</svg>
