<svg width="552" height="449" viewBox="0 0 552 449" fill="none" xmlns="http://www.w3.org/2000/svg">
<path d="M94 392.5H23C25.6753 373.643 27.5283 356.327 28.6163 340M94 392.5V387M94 392.5V397M497 355V392.5H462V397M497 355H502M497 355H492M171.5 1.5H107V131H88.5M255.5 1.5H497V178.25V256.5M88.5 131V136M88.5 131V126M497 256.5H492M497 256.5H502M28.9865 278C26.2713 232.238 16.8622 188.839 2.5 131H30V126V136" stroke="#18211A" stroke-width="3"/>
<path d="M277.707 420.293C277.317 419.902 276.683 419.902 276.293 420.293L269.929 426.657C269.538 427.047 269.538 427.681 269.929 428.071C270.319 428.462 270.953 428.462 271.343 428.071L277 422.414L282.657 428.071C283.047 428.462 283.681 428.462 284.071 428.071C284.462 427.681 284.462 427.047 284.071 426.657L277.707 420.293ZM278 449V421H276V449H278Z" fill="#55DD77"/>
<path d="M513.293 307.293C512.902 307.683 512.902 308.317 513.293 308.707L519.657 315.071C520.047 315.462 520.681 315.462 521.071 315.071C521.462 314.681 521.462 314.047 521.071 313.657L515.414 308L521.071 302.343C521.462 301.953 521.462 301.319 521.071 300.929C520.681 300.538 520.047 300.538 519.657 300.929L513.293 307.293ZM552 307H514V309H552V307Z" fill="#55DD77"/>
<path d="M171.5 1.5H255.5M29 278L28.5 340" stroke="#FF8822"/>
</svg>
