<svg width="409" height="503" viewBox="0 0 409 503" fill="none" xmlns="http://www.w3.org/2000/svg">
<path d="M71.2413 359.205V202.287H1.5V194.413M71.2413 359.205H76.3031M71.2413 359.205H66.1794M120.735 501.5H71.2413V401.95V390.139M185.415 501.5H275.403V434.571M371.579 175.291V202.287H236.596C236.596 204.374 236.596 206.436 236.596 208.474M371.579 175.291H376.641M371.579 175.291H366.517M371.579 135.921V36.3706V1.5C360.741 1.5 350.26 1.5 340.083 1.5M371.579 135.921H366.517M371.579 135.921H376.641M62.8048 81.365H71.2413V155.043H1.5V168.542M35.2458 81.365H1.5V34.6834M71.2413 390.139H66.1794M71.2413 390.139H76.3031M275.403 408.699V401.95H236.596C236.596 399.479 236.596 397.043 236.596 394.638M236.596 369.329C236.596 320.355 236.596 283.412 236.596 234.346M308.587 1.5C200.461 1.5 123.664 1.5 1.5 1.5V8.24916" stroke="#18211A" stroke-width="3"/>
<path d="M408.437 156.322C408.828 155.932 408.828 155.299 408.437 154.908L402.073 148.544C401.683 148.154 401.05 148.154 400.659 148.544C400.269 148.935 400.269 149.568 400.659 149.958L406.316 155.615L400.659 161.272C400.269 161.663 400.269 162.296 400.659 162.686C401.05 163.077 401.683 163.077 402.073 162.686L408.437 156.322ZM366.253 156.615H407.73V154.615H366.253V156.615Z" fill="#55DD77"/>
<path d="M1.5 8.24916V34.6834M35.2458 81.365H62.8048M1.5 168.542V194.413M120.735 501.5H185.415M275.403 408.699V434.571M236.596 369.329V394.638M236.596 208.474V234.346M308.587 1.5H340.083" stroke="#FF8822"/>
</svg>
