<svg width="502" height="618" viewBox="0 0 502 618" fill="none" xmlns="http://www.w3.org/2000/svg">
<path d="M87.2538 441.334V248.388H1.5V238.706M87.2538 441.334H93.4779M87.2538 441.334H81.0297M148.111 616.299H87.2538V493.893V479.37M227.641 616.299H338.291V534.003M456.548 215.193V248.388H290.573C290.573 250.953 290.573 253.489 290.573 255.995M456.548 215.193H462.772M456.548 215.193H450.324M456.548 166.784V44.3769V1.5C443.222 1.5 430.335 1.5 417.821 1.5M456.548 166.784H450.324M456.548 166.784H462.772M76.8804 99.7019H87.2538V190.297H1.5V206.894M42.9938 99.7019H1.5V42.3022M87.2538 479.37H81.0297M87.2538 479.37H93.4779M338.291 502.192V493.893H290.573C290.573 490.855 290.573 487.859 290.573 484.903M290.573 453.782C290.573 393.564 290.573 348.138 290.573 287.807M379.093 1.5C246.142 1.5 151.713 1.5 1.5 1.5V9.79876" stroke="#18211A" stroke-width="3"/>
<path d="M501.707 191.707C502.098 191.317 502.098 190.683 501.707 190.293L495.343 183.929C494.953 183.538 494.319 183.538 493.929 183.929C493.538 184.319 493.538 184.953 493.929 185.343L499.586 191L493.929 196.657C493.538 197.047 493.538 197.681 493.929 198.071C494.319 198.462 494.953 198.462 495.343 198.071L501.707 191.707ZM450 192H501V190H450V192Z" fill="#55DD77"/>
<path d="M1.5 9.79876V42.3022M42.9938 99.7019H76.8804M1.5 206.894V238.706M148.111 616.299H227.641M338.291 502.192V534.003M290.573 453.782V484.903M290.573 255.995V287.807M379.093 1.5H417.821" stroke="#FF8822"/>
</svg>
