<svg width="437" height="453" viewBox="0 0 437 453" fill="none" xmlns="http://www.w3.org/2000/svg">
<path d="M285.954 136.454H435.954V167.457M285.954 136.454V1.5C285.954 1.5 200.061 1.5 144.389 1.5M285.954 136.454C285.954 157.561 285.954 171.71 285.954 189.342M285.954 208.491C285.954 201.465 285.954 195.211 285.954 189.342M285.954 189.342H242.641M1 189.342V1.5C1 1.5 87.8364 1.5 143.477 1.5C143.78 1.5 144.084 1.5 144.389 1.5M1 189.342V451.5H435.954V285.087M1 189.342H42.9453M156.471 189.342H144.389M132.307 189.342H144.389M144.389 189.342V1.5" stroke="#18211A" stroke-width="2"/>
<path d="M156.471 189.342H242.641" stroke="#FF8822"/>
<path d="M42.9453 189.342H132.307" stroke="#FF8822"/>
<path d="M435.955 167.457V285.087" stroke="#FF8822"/>
</svg>
