<svg width="341" height="353" viewBox="0 0 341 353" fill="none" xmlns="http://www.w3.org/2000/svg">
<path d="M222.631 106.465H339.298V130.578M222.631 106.465V1.5C222.631 1.5 155.825 1.5 112.525 1.5M222.631 106.465C222.631 122.881 222.631 133.886 222.631 147.599M222.631 162.493C222.631 157.029 222.631 152.164 222.631 147.599M222.631 147.599H188.943M1 147.599V1.5C1 1.5 68.5394 1.5 111.816 1.5C112.051 1.5 112.288 1.5 112.525 1.5M1 147.599V351.5H339.298V222.067M1 147.599H33.6241M121.922 147.599H112.525M103.128 147.599H112.525M112.525 147.599V1.5" stroke="#18211A" stroke-width="2"/>
<path d="M121.922 147.599H188.943" stroke="#FF8822"/>
<path d="M33.624 147.599H103.128" stroke="#FF8822"/>
<path d="M339.298 130.578V222.067" stroke="#FF8822"/>
</svg>
