<svg width="282" height="352" viewBox="0 0 282 352" fill="none" xmlns="http://www.w3.org/2000/svg">
<path d="M2 4.01639H279.904V350H2V245.574M2 4.01639V0M2 4.01639V8.03279M2 108.443H175.617M2 108.443V245.574M2 108.443L175.617 245.574M175.617 108.443V245.574M175.617 108.443L2 245.574M175.617 245.574H2" stroke="#18211A" stroke-width="3"/>
<path d="M215.568 55.9464H216.568V54.9464H215.568V55.9464ZM17.0527 55.2393C16.6622 55.6299 16.6622 56.263 17.0527 56.6535L23.4167 63.0175C23.8072 63.408 24.4404 63.408 24.8309 63.0175C25.2214 62.627 25.2214 61.9938 24.8309 61.6033L19.174 55.9464L24.8309 50.2896C25.2214 49.8991 25.2214 49.2659 24.8309 48.8754C24.4404 48.4848 23.8072 48.4848 23.4167 48.8754L17.0527 55.2393ZM215.568 299.225V300.225H216.568V299.225H215.568ZM215.568 54.9464L17.7598 54.9464V56.9464L215.568 56.9464V54.9464ZM214.568 55.9464L214.568 299.225H216.568L216.568 55.9464H214.568ZM215.568 298.225L17.7598 298.225V300.225L215.568 300.225V298.225Z" fill="#55DD77"/>
</svg>
