<svg width="524" height="453" viewBox="0 0 524 453" fill="none" xmlns="http://www.w3.org/2000/svg">
<path d="M85.934 156.217V293.481M85.934 156.217H71.3113M85.934 156.217V86.8774M85.934 293.481H1.5V309.991M85.934 293.481V364.236M1.5 81.217V1.5H323.198M1.5 140.179V156.217H17.066M1.5 369.425V451.5H469.425V395.84V296.311V168.481M469.425 68.9528V1.5H396.311" stroke="#18211A" stroke-width="3"/>
<path d="M323.198 1.5H396.311" stroke="#FF8822"/>
<path d="M1.5 309.991V369.425" stroke="#FF8822"/>
<path d="M17.0659 156.217H71.3112" stroke="#FF8822"/>
<path d="M1.5 81.217V140.179" stroke="#FF8822"/>
<path d="M523.433 118.717C523.824 118.326 523.824 117.693 523.433 117.302L517.069 110.938C516.679 110.548 516.046 110.548 515.655 110.938C515.265 111.329 515.265 111.962 515.655 112.353L521.312 118.009L515.655 123.666C515.265 124.057 515.265 124.69 515.655 125.081C516.046 125.471 516.679 125.471 517.069 125.081L523.433 118.717ZM494.424 119.009L522.726 119.009L522.726 117.009L494.424 117.009L494.424 119.009Z" fill="#55DD77"/>
<path d="M472.019 117.302C471.629 117.693 471.629 118.326 472.019 118.717L478.383 125.081C478.774 125.471 479.407 125.471 479.797 125.081C480.188 124.69 480.188 124.057 479.797 123.666L474.14 118.009L479.797 112.353C480.188 111.962 480.188 111.329 479.797 110.938C479.407 110.548 478.774 110.548 478.383 110.938L472.019 117.302ZM494.424 117.009H472.726V119.009H494.424V117.009Z" fill="#55DD77"/>
</svg>
