<svg width="466" height="403" viewBox="0 0 466 403" fill="none" xmlns="http://www.w3.org/2000/svg">
<path d="M76.5524 139.026V261.039M76.5524 139.026H63.5545M76.5524 139.026V77.391M76.5524 261.039H1.5V275.714M76.5524 261.039V323.932M1.5 72.3595V1.5H287.454M1.5 124.77V139.026H15.3365M1.5 328.544V401.5H417.433V352.024V263.555V149.928M417.433 61.4581V1.5H352.443" stroke="#18211A" stroke-width="3"/>
<path d="M287.454 1.5H352.444" stroke="#FF8822"/>
<path d="M1.5 275.714V328.544" stroke="#FF8822"/>
<path d="M15.3364 139.026H63.5545" stroke="#FF8822"/>
<path d="M1.5 72.3596V124.77" stroke="#FF8822"/>
<path d="M465.519 105.771C465.91 105.381 465.91 104.747 465.519 104.357L459.155 97.9929C458.765 97.6024 458.131 97.6024 457.741 97.9929C457.35 98.3834 457.35 99.0166 457.741 99.4071L463.398 105.064L457.741 110.721C457.35 111.111 457.35 111.745 457.741 112.135C458.131 112.526 458.765 112.526 459.155 112.135L465.519 105.771ZM439.655 106.064L464.812 106.064L464.812 104.064L439.655 104.064L439.655 106.064Z" fill="#55DD77"/>
<path d="M419.66 104.357C419.27 104.747 419.27 105.381 419.66 105.771L426.024 112.135C426.415 112.526 427.048 112.526 427.439 112.135C427.829 111.745 427.829 111.111 427.439 110.721L421.782 105.064L427.439 99.4071C427.829 99.0166 427.829 98.3834 427.439 97.9929C427.048 97.6024 426.415 97.6024 426.024 97.9929L419.66 104.357ZM439.655 104.064H420.368V106.064H439.655V104.064Z" fill="#55DD77"/>
</svg>
