<svg width="531" height="415" viewBox="0 0 531 415" fill="none" xmlns="http://www.w3.org/2000/svg">
<path d="M529 137.856V413H175.391M529 28.7596V2H352.196M175.391 2H2V141.287M175.391 2V49.3439M175.391 2H352.196M175.391 130.309V141.287M175.391 141.287H2M175.391 141.287V155.696M2 141.287V274.399M175.391 234.603V274.399M175.391 274.399H2M175.391 274.399V287.436M2 274.399V413H175.391M175.391 367.028V413M352.196 2V187" stroke="#18211A" stroke-width="3"/>
<path d="M175.391 49.3439V130.309M175.391 155.696V234.603M175.391 287.436V367.028M529 28.7596V137.856" stroke="#FF8822"/>
</svg>
