<svg width="448" height="353" viewBox="0 0 448 353" fill="none" xmlns="http://www.w3.org/2000/svg">
<path d="M146.708 1.5H446.026V233.701M146.708 1.5H1.5V119.866M146.708 1.5V40.5777M146.708 107.972V119.866M146.708 119.866H1.5M146.708 119.866V153.28M1.5 119.866V232.568M146.708 221.807V232.568M146.708 232.568H1.5M146.708 232.568V242.762M1.5 232.568V351.5H146.708M146.708 308.458V351.5M146.708 351.5H329.192M446.026 328.28V351.5H329.192M329.192 351.5V204.817" stroke="#18211A" stroke-width="3"/>
<path d="M146.708 40.5777V107.972M146.708 153.28V221.807M146.708 242.762V308.458M446.026 233.701V328.28" stroke="#FF8822"/>
</svg>
