<svg width="525" height="414" viewBox="0 0 525 414" fill="none" xmlns="http://www.w3.org/2000/svg">
<path d="M172.016 1.5H523.5V274.17M172.016 1.5H1.5V140.495M172.016 1.5V47.3883M172.016 126.529V140.495M172.016 140.495H1.5M172.016 140.495V179.733M1.5 140.495V272.84M172.016 260.204V272.84M172.016 272.84H1.5M172.016 272.84V284.811M1.5 272.84V412.5H172.016M172.016 361.956V412.5M172.016 412.5H386.303M523.5 385.233V412.5H386.303M386.303 412.5V240.252" stroke="#18211A" stroke-width="3"/>
<path d="M172.016 47.3883V126.529M172.016 179.733V260.204M172.016 284.811V361.956M523.5 274.17V385.233" stroke="#FF8822"/>
</svg>
