<svg width="453" height="354" viewBox="0 0 453 354" fill="none" xmlns="http://www.w3.org/2000/svg">
<path d="M450.783 117.693V352H149.657M450.783 24.788V2H300.22M149.657 2H2V120.614M149.657 2V42.3172M149.657 2H300.22M149.657 111.265V120.614M149.657 120.614H2M149.657 120.614V132.885M2 120.614V233.97M149.657 200.08V233.97M149.657 233.97H2M149.657 233.97V245.072M2 233.97V352H149.657M149.657 312.851V352M300.22 2V159.543" stroke="#18211A" stroke-width="3"/>
<path d="M149.657 42.3172V111.265M149.657 132.885V200.08M149.657 245.072V312.851M450.783 24.788V117.693" stroke="#FF8822"/>
</svg>
