<svg width="357" height="450" viewBox="0 0 357 450" fill="none" xmlns="http://www.w3.org/2000/svg">
<path d="M2 5.09709H354.68V444.175H2M2 5.09709V0M2 5.09709V10.1942M2 444.175V438.349M2 444.175V450M2 137.621H222.333M2 137.621V311.65M2 137.621L222.333 311.65M222.333 137.621V311.65M222.333 137.621L2 311.65M222.333 311.65H2" stroke="#18211A" stroke-width="3"/>
<path d="M272.996 69.903H273.996V68.903H272.996V69.903ZM21.256 69.1959C20.8655 69.5864 20.8655 70.2195 21.256 70.6101L27.6199 76.974C28.0105 77.3646 28.6436 77.3646 29.0342 76.974C29.4247 76.5835 29.4247 75.9503 29.0342 75.5598L23.3773 69.903L29.0342 64.2461C29.4247 63.8556 29.4247 63.2224 29.0342 62.8319C28.6436 62.4414 28.0105 62.4414 27.6199 62.8319L21.256 69.1959ZM272.996 68.903L21.9631 68.903V70.903L272.996 70.903V68.903ZM271.996 69.903V378.641H273.996V69.903H271.996Z" fill="#55DD77"/>
<path d="M24.9202 377.171C24.5297 377.562 24.5297 378.195 24.9202 378.586L31.2842 384.949C31.6747 385.34 32.3079 385.34 32.6984 384.949C33.0889 384.559 33.0889 383.926 32.6984 383.535L27.0415 377.878L32.6984 372.222C33.0889 371.831 33.0889 371.198 32.6984 370.807C32.3079 370.417 31.6747 370.417 31.2842 370.807L24.9202 377.171ZM274.828 376.878L25.6273 376.878V378.878L274.828 378.878V376.878Z" fill="#55DD77"/>
</svg>
