<svg width="278" height="350" viewBox="0 0 278 350" fill="none" xmlns="http://www.w3.org/2000/svg">
<path d="M2 3.9644H276.307V345.469H2M2 3.9644V0M2 3.9644V7.9288M2 345.469V340.939M2 345.469V350M2 107.039H173.37M2 107.039V242.395M2 107.039L173.37 242.395M173.37 107.039V242.395M173.37 107.039L2 242.395M173.37 242.395H2" stroke="#18211A" stroke-width="3"/>
<path d="M212.775 54.369H213.775V53.369H212.775V54.369ZM16.8198 53.6619C16.4293 54.0524 16.4293 54.6856 16.8198 55.0761L23.1838 61.4401C23.5743 61.8306 24.2074 61.8306 24.598 61.4401C24.9885 61.0495 24.9885 60.4164 24.598 60.0259L18.9411 54.369L24.598 48.7121C24.9885 48.3216 24.9885 47.6885 24.598 47.2979C24.2074 46.9074 23.5743 46.9074 23.1838 47.2979L16.8198 53.6619ZM212.775 53.369L17.5269 53.369V55.369L212.775 55.369V53.369ZM211.775 54.369V294.498H213.775V54.369H211.775Z" fill="#55DD77"/>
<path d="M19.6697 293.198C19.2792 293.589 19.2792 294.222 19.6697 294.613L26.0337 300.977C26.4242 301.367 27.0574 301.367 27.4479 300.977C27.8384 300.586 27.8384 299.953 27.4479 299.562L21.791 293.906L27.4479 288.249C27.8384 287.858 27.8384 287.225 27.4479 286.834C27.0574 286.444 26.4242 286.444 26.0337 286.834L19.6697 293.198ZM214.2 292.906H20.3768V294.906H214.2V292.906Z" fill="#55DD77"/>
</svg>
