<svg width="502" height="717" viewBox="0 0 502 717" fill="none" xmlns="http://www.w3.org/2000/svg">
<path d="M2 10.1521V2H367.29M2 40.5371V96.8282H41.2482M79.342 96.8282H87.4225V183.904H2V201.219M2 232.059V240.139H87.4225V714.936H96.8282M128.822 714.936H205.509V400.11M205.509 362.174V240.139H403.901M436.551 240.139H448.095V208.972M448.095 208.972H440.014M448.095 208.972H456.175M448.095 163.61V95.503M448.095 163.61H456.175M448.095 163.61H440.014M448.095 95.503H440.014M448.095 95.503H456.175M448.095 43.5569V2H407.692M448.095 43.5569H456.175M448.095 43.5569H440.014" stroke="#18211A" stroke-width="3"/>
<path d="M2 201.355V232.481M41.2782 96.8605H79.8153M2 10.1521V40.5371M367.361 2H408.122M403.675 239.892H437.024M205.802 362.174V400.711M96.1194 714.936H130.21" stroke="#FF8822"/>
<path d="M501.707 68.7071C502.098 68.3166 502.098 67.6834 501.707 67.2929L495.343 60.9289C494.953 60.5384 494.319 60.5384 493.929 60.9289C493.538 61.3195 493.538 61.9526 493.929 62.3431L499.586 68L493.929 73.6569C493.538 74.0474 493.538 74.6805 493.929 75.0711C494.319 75.4616 494.953 75.4616 495.343 75.0711L501.707 68.7071ZM471 69L501 69L501 67L471 67L471 69Z" fill="#55DD77"/>
<path d="M447.293 67.2929C446.902 67.6834 446.902 68.3166 447.293 68.7071L453.657 75.0711C454.047 75.4616 454.681 75.4616 455.071 75.0711C455.462 74.6805 455.462 74.0474 455.071 73.6569L449.414 68L455.071 62.3431C455.462 61.9526 455.462 61.3195 455.071 60.9289C454.681 60.5384 454.047 60.5384 453.657 60.9289L447.293 67.2929ZM471 67H448V69H471V67Z" fill="#55DD77"/>
<path d="M501.707 186.707C502.098 186.317 502.098 185.683 501.707 185.293L495.343 178.929C494.953 178.538 494.319 178.538 493.929 178.929C493.538 179.319 493.538 179.953 493.929 180.343L499.586 186L493.929 191.657C493.538 192.047 493.538 192.681 493.929 193.071C494.319 193.462 494.953 193.462 495.343 193.071L501.707 186.707ZM471 187L501 187L501 185L471 185L471 187Z" fill="#55DD77"/>
<path d="M447.293 185.293C446.902 185.683 446.902 186.317 447.293 186.707L453.657 193.071C454.047 193.462 454.681 193.462 455.071 193.071C455.462 192.681 455.462 192.047 455.071 191.657L449.414 186L455.071 180.343C455.462 179.953 455.462 179.319 455.071 178.929C454.681 178.538 454.047 178.538 453.657 178.929L447.293 185.293ZM471 185H448V187H471V185Z" fill="#55DD77"/>
</svg>
