<svg width="423" height="604" viewBox="0 0 423 604" fill="none" xmlns="http://www.w3.org/2000/svg">
<path d="M2 8.86071V2H309.424M2 34.4324V81.8065H35.0309M67.0903 81.8065H73.8907V155.088H2V169.661M2 195.615V202.416H73.8907V602H81.8065M108.732 602H173.271V337.046M173.271 305.119V202.416H340.236M367.714 202.416H377.429V176.185M377.429 176.185H370.628M377.429 176.185H384.229M377.429 138.009V80.6912M377.429 138.009H384.229M377.429 138.009H370.628M377.429 80.6912H370.628M377.429 80.6912H384.229M377.429 36.9739V2H343.427M377.429 36.9739H384.229M377.429 36.9739H370.628" stroke="#18211A" stroke-width="3"/>
<path d="M2 169.775V195.971M35.0561 81.8337H67.4886M2 8.86071V34.4324M309.484 2H343.788M340.046 202.208H368.112M173.518 305.119V337.551M81.21 602H109.9" stroke="#FF8822"/>
<path d="M422.66 58.252C423.051 57.8615 423.051 57.2283 422.66 56.8378L416.296 50.4739C415.906 50.0833 415.273 50.0833 414.882 50.4739C414.492 50.8644 414.492 51.4975 414.882 51.8881L420.539 57.5449L414.882 63.2018C414.492 63.5923 414.492 64.2255 414.882 64.616C415.273 65.0065 415.906 65.0065 416.296 64.616L422.66 58.252ZM396.706 58.5449L421.953 58.5449L421.953 56.5449L396.706 56.5449L396.706 58.5449Z" fill="#55DD77"/>
<path d="M376.642 56.8378C376.251 57.2283 376.251 57.8615 376.642 58.252L383.006 64.616C383.396 65.0065 384.03 65.0065 384.42 64.616C384.811 64.2255 384.811 63.5923 384.42 63.2018L378.763 57.5449L384.42 51.8881C384.811 51.4975 384.811 50.8644 384.42 50.4739C384.03 50.0833 383.396 50.0833 383.006 50.4739L376.642 56.8378ZM396.706 56.5449H377.349V58.5449H396.706V56.5449Z" fill="#55DD77"/>
<path d="M422.66 157.56C423.051 157.169 423.051 156.536 422.66 156.145L416.296 149.781C415.906 149.391 415.273 149.391 414.882 149.781C414.492 150.172 414.492 150.805 414.882 151.196L420.539 156.853L414.882 162.509C414.492 162.9 414.492 163.533 414.882 163.924C415.273 164.314 415.906 164.314 416.296 163.924L422.66 157.56ZM396.706 157.853L421.953 157.853L421.953 155.853L396.706 155.853L396.706 157.853Z" fill="#55DD77"/>
<path d="M376.642 156.145C376.251 156.536 376.251 157.169 376.642 157.56L383.006 163.924C383.396 164.314 384.03 164.314 384.42 163.924C384.811 163.533 384.811 162.9 384.42 162.509L378.763 156.853L384.42 151.196C384.811 150.805 384.811 150.172 384.42 149.781C384.03 149.391 383.396 149.391 383.006 149.781L376.642 156.145ZM396.706 155.853H377.349V157.853H396.706V155.853Z" fill="#55DD77"/>
</svg>
