<svg width="504" height="604" viewBox="0 0 504 604" fill="none" xmlns="http://www.w3.org/2000/svg">
<path d="M2 247.889V2H216.286M2 247.889V374.414M2 247.889H14.987M2 470.7V602H207.937V481.841H502V2H216.286M67.8627 247.889H216.286V2" stroke="#18211A" stroke-width="3"/>
<path d="M14.987 247.889H67.8627M2 374.414V470.7" stroke="#FF8822"/>
<path d="M62.8838 527.376C62.9294 527.649 63.1872 527.832 63.4596 527.787L67.8976 527.042C68.1699 526.997 68.3537 526.739 68.308 526.467C68.2623 526.194 68.0045 526.01 67.7322 526.056L63.7873 526.718L63.1257 522.773C63.08 522.5 62.8222 522.317 62.5499 522.362C62.2775 522.408 62.0938 522.666 62.1395 522.938L62.8838 527.376ZM137.993 527C130.543 516.722 123.917 509.075 117.718 504.019C111.517 498.96 105.702 496.461 99.8888 496.557C94.0767 496.654 88.3638 499.341 82.3607 504.446C76.3596 509.549 70.0281 517.1 62.9697 527.003L63.784 527.584C70.8264 517.703 77.1014 510.23 83.0084 505.208C88.9134 500.187 94.4102 497.648 99.9053 497.557C105.399 497.466 110.99 499.821 117.086 504.794C123.186 509.769 129.752 517.334 137.184 527.587L137.993 527Z" fill="#55DD77"/>
<path d="M63.2857 533.224C63.0116 533.19 62.7621 533.385 62.7283 533.659L62.1778 538.125C62.1441 538.399 62.3389 538.648 62.6129 538.682C62.887 538.716 63.1366 538.521 63.1703 538.247L63.6596 534.277L67.6296 534.766C67.9036 534.8 68.1532 534.605 68.187 534.331C68.2208 534.057 68.026 533.808 67.7519 533.774L63.2857 533.224ZM137.019 533.444C130.122 543.892 123.952 551.499 118.117 556.444C112.288 561.383 106.828 563.635 101.332 563.448C95.8269 563.26 90.1889 560.62 84.0147 555.569C77.8409 550.518 71.1747 543.092 63.6187 533.412L62.8304 534.027C70.4008 543.726 77.1211 551.221 83.3815 556.343C89.6415 561.464 95.4858 564.249 101.298 564.447C107.121 564.646 112.815 562.247 118.763 557.207C124.706 552.171 130.937 544.472 137.853 533.995L137.019 533.444Z" fill="#55DD77"/>
</svg>
