<svg width="379" height="454" viewBox="0 0 379 454" fill="none" xmlns="http://www.w3.org/2000/svg">
<path d="M2 186.416V2H162.714M2 186.416V281.31M2 186.416H11.7403M2 353.525V452H156.453V361.881H377V2H162.714M51.397 186.416H162.714V2" stroke="#18211A" stroke-width="3"/>
<path d="M11.7403 186.416H51.397M2 281.31V353.525" stroke="#FF8822"/>
<path d="M47.5397 396.053C47.5853 396.325 47.8431 396.509 48.1155 396.463L52.5535 395.719C52.8258 395.673 53.0096 395.415 52.9639 395.143C52.9182 394.871 52.6604 394.687 52.3881 394.733L48.4432 395.394L47.7816 391.449C47.7359 391.177 47.4781 390.993 47.2058 391.039C46.9334 391.085 46.7497 391.342 46.7954 391.615L47.5397 396.053ZM104.096 395.677C98.5065 387.965 93.5296 382.22 88.8679 378.417C84.2034 374.612 79.8148 372.72 75.4147 372.793C71.016 372.866 66.7043 374.9 62.1896 378.739C57.6771 382.576 52.9214 388.25 47.6256 395.68L48.4399 396.26C53.7197 388.853 58.4189 383.258 62.8374 379.501C67.2538 375.746 71.3494 373.86 75.4312 373.793C79.5116 373.726 83.6766 375.473 88.2359 379.192C92.798 382.913 97.7151 388.577 103.287 396.264L104.096 395.677Z" fill="#55DD77"/>
<path d="M47.9797 400.294C47.7056 400.26 47.4561 400.455 47.4223 400.729L46.8718 405.195C46.8381 405.469 47.0329 405.718 47.3069 405.752C47.581 405.786 47.8305 405.591 47.8643 405.317L48.3536 401.347L52.3236 401.837C52.5976 401.87 52.8472 401.675 52.881 401.401C52.9148 401.127 52.72 400.878 52.4459 400.844L47.9797 400.294ZM103.16 400.514C97.9895 408.347 93.3698 414.041 89.0069 417.737C84.6499 421.429 80.5842 423.1 76.5037 422.961C72.4129 422.821 68.2103 420.86 63.5903 417.08C58.9708 413.301 53.9779 407.74 48.3127 400.482L47.5244 401.097C53.204 408.374 58.2509 414.004 62.9571 417.854C67.6629 421.704 72.0718 423.81 76.4696 423.96C80.8775 424.111 85.1772 422.293 89.6534 418.5C94.1236 414.713 98.805 408.926 103.994 401.065L103.16 400.514Z" fill="#55DD77"/>
</svg>
