<svg width="307" height="292" fill="none" xmlns="http://www.w3.org/2000/svg"><path d="M109.696 246.748V291H44.178v-44.252m65.518 0v-64.874m0 64.874H66.519m-22.341 0v-86.57H29.14m15.037 86.57h2.578M1 138.481v21.697h28.14M1 138.481V117h28.14M1 138.481h28.14M109.697 117v6.874h24.06v30.504h-24.06v5.8m0-43.178V58.785h144.571M109.696 117h-7.089m7.089 43.178v21.696m0-21.696h-1.503m1.503 21.696H66.519m0 64.874v-57.355m0 57.355H52.34m14.178-64.874v-21.696h35.874m-35.874 21.696v1.504m43.177-50.052h15.037m-15.037 0v12.03m0-12.03l15.037 12.03m0-12.03v12.03m0-12.03l-15.037 12.03m15.037 0h-15.037M29.141 117v1.504m0-1.504h65.303m-65.303 7.089v10.096m0 4.296v-4.296m0 4.296v11.214m0 3.394v-3.394m0 8.764v1.719m0-25.993h7.089m6.23 0h1.718v15.51H29.14M96.163 117h-1.719m0 0V58.785H81.126m0 0H25.918V1h55.208m0 57.785v-2.148m0-55.637v42.963m0-42.963h86.785M81.126 43.963v1.933m0-1.933h44.252m42.533 0h30.719m-30.719 0V1m0 42.963h-31.792m74.325 0h43.823m0 0V1m0 42.963v2.578m0-45.541h-86.356m86.356 0h51.555v57.785h-30.074v14.178h-21.481V58.785m0 0v-2.363" stroke="#18211A" stroke-width="2"/><path d="M46.723 246.729h5.616m14.171-63.37v6.016m41.713-29.145h-5.883m-73.264-7.086v5.347m7.085-24.332h6.284m-13.37-15.642v5.615m66.848-7.086h6.684m-21.39-71.392v11.23m44.118-12.968h10.83m62.435 0h11.898m43.718 2.54v10.027" stroke="#F82"/><path d="M128.945 128.277h.4v-.4h-.4v.4zm-18.599-.283a.4.4 0 000 .565l2.546 2.546a.4.4 0 10.565-.566l-2.262-2.262 2.262-2.263a.399.399 0 10-.565-.566l-2.546 2.546zm18.599-.117h-18.316v.8h18.316v-.8zm-.4.4v21.925h.8v-21.925h-.8z" fill="#5D7"/><path d="M110.717 149.717a.4.4 0 000 .566l2.546 2.545a.398.398 0 00.565 0 .398.398 0 000-.565L111.566 150l2.262-2.263a.398.398 0 000-.565.398.398 0 00-.565 0l-2.546 2.545zM129 149.6h-18v.8h18v-.8z" fill="#5D7"/></svg>