<svg width="307" height="292" viewBox="0 0 307 292" fill="none" xmlns="http://www.w3.org/2000/svg">
<path d="M109.696 246.748V291H44.1778V246.748M109.696 246.748V181.874M109.696 246.748H66.5185M44.1778 246.748V160.178H29.1407M44.1778 246.748H46.7556M1 138.481V160.178H29.1407M1 138.481V117H29.1407M1 138.481H29.1407M109.696 117V123.874H133.756V154.378H109.696V160.178M109.696 117V58.7852H254.267M109.696 117H102.607M109.696 160.178V181.874M109.696 160.178H108.193M109.696 181.874H66.5185M66.5185 246.748V189.393M66.5185 246.748H52.3407M66.5185 181.874V160.178H102.393M66.5185 181.874V183.378M109.696 133.326H124.733M109.696 133.326V145.356M109.696 133.326L124.733 145.356M124.733 133.326V145.356M124.733 133.326L109.696 145.356M124.733 145.356H109.696M29.1407 117V118.504M29.1407 117H94.4444M29.1407 124.089V134.185M29.1407 138.481V134.185M29.1407 138.481V149.695M29.1407 153.089V149.695M29.1407 158.459V160.178M29.1407 134.185H36.2296M42.4593 134.185H44.1778V149.695H36.6593H29.1407M96.163 117H94.4444M94.4444 117V58.7852H81.1259M81.1259 58.7852H25.9185V1H81.1259M81.1259 58.7852V56.637M81.1259 1V43.963M81.1259 1H167.911M81.1259 43.963V45.8963M81.1259 43.963H125.378M167.911 43.963H198.63M167.911 43.963V1M167.911 43.963H136.119M210.444 43.963H254.267M254.267 43.963V30.2148V1M254.267 43.963V46.5407M254.267 1H167.911M254.267 1H276.607H305.822V58.7852H275.748V72.963H254.267V58.7852M254.267 58.7852V56.4222" stroke="#18211A" stroke-width="2"/>
<path d="M46.7233 246.729H52.3385M66.5101 183.359V189.375M108.223 160.23H102.34M29.0757 153.144V158.491M36.1615 134.159H42.4451M29.0757 118.517V124.132M95.9227 117.046H102.607M81.2164 45.6538V56.8841M125.335 43.9158H136.165M198.6 43.9158H210.498M254.216 46.456V56.483" stroke="#FF8822"/>
<path d="M128.945 128.277H129.345V127.877H128.945V128.277ZM110.346 127.994C110.19 128.15 110.19 128.403 110.346 128.559L112.892 131.105C113.048 131.261 113.301 131.261 113.457 131.105C113.614 130.949 113.614 130.696 113.457 130.539L111.195 128.277L113.457 126.014C113.614 125.858 113.614 125.604 113.457 125.448C113.301 125.292 113.048 125.292 112.892 125.448L110.346 127.994ZM128.945 127.877L110.629 127.877V128.677H128.945V127.877ZM128.545 128.277V150.202H129.345V128.277H128.545Z" fill="#55DD77"/>
<path d="M110.717 149.717C110.561 149.873 110.561 150.127 110.717 150.283L113.263 152.828C113.419 152.985 113.672 152.985 113.828 152.828C113.985 152.672 113.985 152.419 113.828 152.263L111.566 150L113.828 147.737C113.985 147.581 113.985 147.328 113.828 147.172C113.672 147.015 113.419 147.015 113.263 147.172L110.717 149.717ZM129 149.6H111V150.4H129V149.6Z" fill="#55DD77"/>
</svg>
