<svg width="105" height="195" viewBox="0 0 105 195" fill="none" xmlns="http://www.w3.org/2000/svg">
<g opacity="0.8">
<path d="M5.6778 71.894L7.15847 73.3747L9.03819 71.4845L7.55752 70.0038L5.6778 71.894ZM13.5012 76H15.6014V72.9021H13.5012V76ZM6.15036 63.4511H3V65.5513H6.15036V63.4511ZM17.7017 59.0511V54H11.401V59.0511C9.52124 60.1432 8.2506 62.1699 8.2506 64.5012C8.2506 67.9771 11.0754 70.8019 14.5513 70.8019C18.0272 70.8019 20.852 67.9771 20.852 64.5012C20.852 62.1699 19.5814 60.1432 17.7017 59.0511ZM22.9523 63.4511V65.5513H26.1026V63.4511H22.9523ZM20.0539 71.495L21.9337 73.3852L23.4143 71.9045L21.5241 70.0248L20.0539 71.495Z" stroke="#119933" stroke-opacity="0.6"/>
<path d="M101.295 13.0725C101.337 12.7287 101.364 12.3713 101.364 12C101.364 11.6287 101.337 11.2713 101.282 10.9275L103.605 9.1125C103.812 8.9475 103.867 8.645 103.743 8.41125L101.543 4.6025C101.405 4.355 101.117 4.2725 100.869 4.355L98.1329 5.455C97.5554 5.015 96.9504 4.6575 96.2766 4.3825L95.8641 1.4675C95.8229 1.1925 95.5891 1 95.3141 1H90.9141C90.6391 1 90.4191 1.1925 90.3779 1.4675L89.9654 4.3825C89.2916 4.6575 88.6729 5.02875 88.1091 5.455L85.3729 4.355C85.1254 4.25875 84.8366 4.355 84.6991 4.6025L82.4991 8.41125C82.3616 8.65875 82.4166 8.9475 82.6366 9.1125L84.9604 10.9275C84.9054 11.2713 84.8641 11.6425 84.8641 12C84.8641 12.3575 84.8916 12.7287 84.9466 13.0725L82.6229 14.8875C82.4166 15.0525 82.3616 15.355 82.4854 15.5887L84.6854 19.3975C84.8229 19.645 85.1116 19.7275 85.3591 19.645L88.0954 18.545C88.6729 18.985 89.2779 19.3425 89.9516 19.6175L90.3641 22.5325C90.4191 22.8075 90.6391 23 90.9141 23H95.3141C95.5891 23 95.8229 22.8075 95.8504 22.5325L96.2629 19.6175C96.9366 19.3425 97.5554 18.9713 98.1191 18.545L100.855 19.645C101.103 19.7413 101.392 19.645 101.529 19.3975L103.729 15.5887C103.867 15.3412 103.812 15.0525 103.592 14.8875L101.295 13.0725V13.0725ZM93.1141 16.125C90.8454 16.125 88.9891 14.2687 88.9891 12C88.9891 9.73125 90.8454 7.875 93.1141 7.875C95.3829 7.875 97.2391 9.73125 97.2391 12C97.2391 14.2687 95.3829 16.125 93.1141 16.125Z" stroke="#119933" stroke-opacity="0.6"/>
<path d="M26 152.562L28.4433 155.005C34.515 148.933 44.3617 148.933 50.4334 155.005L52.8767 152.562C45.4612 145.146 33.4277 145.146 26 152.562ZM35.7733 162.335L39.4384 166L43.1034 162.335C41.0876 160.307 37.8013 160.307 35.7733 162.335ZM30.8867 157.448L33.33 159.892C36.7018 156.52 42.1749 156.52 45.5467 159.892L47.99 157.448C43.2744 152.733 35.6145 152.733 30.8867 157.448Z" stroke="#119933" stroke-opacity="0.6"/>
<path d="M80.7316 183.104C79.9666 179.222 76.5579 176.309 72.4629 176.309C69.2116 176.309 66.3879 178.154 64.9816 180.854C61.5954 181.214 58.9629 184.082 58.9629 187.559C58.9629 191.282 61.9891 194.309 65.7129 194.309H80.3379C83.4429 194.309 85.9629 191.789 85.9629 188.684C85.9629 185.714 83.6566 183.306 80.7316 183.104Z" stroke="#119933" stroke-opacity="0.6"/>
<path d="M12.4545 111H3.72727C2.22182 111 1 112.222 1 113.727V132.273C1 133.778 2.22182 135 3.72727 135H12.4545C13.96 135 15.1818 133.778 15.1818 132.273V113.727C15.1818 112.222 13.96 111 12.4545 111ZM8.09091 133.909C7.18545 133.909 6.45454 133.178 6.45454 132.273C6.45454 131.367 7.18545 130.636 8.09091 130.636C8.99636 130.636 9.72727 131.367 9.72727 132.273C9.72727 133.178 8.99636 133.909 8.09091 133.909ZM13 129.545H3.18182V114.273H13V129.545Z" stroke="#119933" stroke-opacity="0.6"/>
<path d="M80.6999 60.4469L71.5999 52.1365C72.4999 50.036 71.9999 47.5703 70.0999 45.8351C68.0999 44.0087 65.0999 43.6434 62.6999 44.6479L66.9999 48.5748L63.9999 51.3145L59.5999 47.3876C58.3999 49.5794 58.8999 52.3191 60.8999 54.1456C62.7999 55.8807 65.4999 56.3373 67.7999 55.5154L76.8999 63.8259C77.2999 64.1912 77.8999 64.1912 78.2999 63.8259L80.5999 61.7254C81.0999 61.3601 81.0999 60.7209 80.6999 60.4469Z" stroke="#119933" stroke-opacity="0.6"/>
<path d="M69 108.5C70.375 108.5 71.4875 107.375 71.4875 106L71.5 93.5C71.5 92.125 70.375 91 69 91H49C47.625 91 46.5 92.125 46.5 93.5V106C46.5 107.375 47.625 108.5 49 108.5H44V111H74V108.5H69ZM49 93.5H69V106H49V93.5Z" stroke="#119933" stroke-opacity="0.6"/>
<path d="M26 5V17.1H29.3V27L37 13.8H32.6L37 5H26Z" stroke="#119933" stroke-opacity="0.6"/>
<path d="M90.2079 136V143.232H96.5919C96.5919 139.511 93.8103 136.447 90.2079 136V136ZM82 148.704C82 152.735 85.2649 156 89.2959 156C93.3269 156 96.5919 152.735 96.5919 148.704V145.056H82V148.704ZM88.3839 136C84.7816 136.447 82 139.511 82 143.232H88.3839V136V136Z" stroke="#119933" stroke-opacity="0.6"/>
</g>
</svg>
