<svg width="385" height="292" viewBox="0 0 385 292" fill="none" xmlns="http://www.w3.org/2000/svg">
<path d="M67.9937 42.1139H4.85443V79.3734H67.9937M67.9937 42.1139V79.3734M67.9937 42.1139V1H107.639M67.9937 79.3734V105.804H92.5886V212.076M67.9937 79.3734H96.9937M107.639 1V79.3734M107.639 1H147.101M107.639 79.3734H105.07M107.639 79.3734H110.392M147.101 1V79.3734M147.101 1H186.563M147.101 79.3734H119.019M147.101 79.3734H175.918M186.563 1V79.3734M186.563 1H226.209M186.563 79.3734H183.81M186.563 79.3734H189.5M226.209 1V79.3734M226.209 1H265.671M226.209 79.3734H197.759M226.209 79.3734H255.025M265.671 1V79.3734M265.671 1H305.316M265.671 79.3734H262.734M265.671 79.3734H268.424M305.316 1V79.3734M305.316 1H383.873V79.3734M305.316 79.3734H276.5M305.316 79.3734H307.519M383.873 79.3734V105.804H120.671V212.076M383.873 79.3734H316.329M92.5886 212.076H39.7279M92.5886 212.076H95.7089M39.7279 212.076H1V251.354M39.7279 212.076V226.943M1 251.354V291H39.7279M1 251.354H26.5127M39.7279 291H120.671V281.272M39.7279 291V276.133M39.7279 263.652H26.5127V251.354M39.7279 263.652H54.2279M39.7279 263.652V266.589M26.5127 251.354V239.241H39.7279M39.7279 239.241V236.671M39.7279 239.241H41.9304M54.2279 239.241V263.652M54.2279 239.241H51.2911M54.2279 239.241V235.762V232.403M54.2279 263.652L54.2328 267.332V270.691M120.671 281.272H165.089V224.924H120.671V212.076M120.671 281.272V263.652M120.671 212.076H107.823M120.671 241.994H148.386M120.671 241.994V263.652M120.671 241.994L148.386 263.652M148.386 241.994V263.652M148.386 241.994L120.671 263.652M148.386 263.652H120.671" stroke="#18211A" stroke-width="2"/>
<path d="M96.9936 79.3734H105.07M110.392 79.3734H119.019M175.918 79.3734H183.81M189.5 79.3734H197.759M255.025 79.3734H262.734M268.424 79.3734H276.5M307.519 79.3734H316.329M95.7088 212.076H107.823M39.7278 226.943V236.671M41.9303 239.241H51.2911M39.7278 266.589V276.133" stroke="#FF8822"/>
<path d="M156.646 233H157.046V232.6H156.646V233ZM121.856 232.717C121.7 232.873 121.7 233.127 121.856 233.283L124.402 235.828C124.558 235.985 124.811 235.985 124.968 235.828C125.124 235.672 125.124 235.419 124.968 235.263L122.705 233L124.968 230.737C125.124 230.581 125.124 230.328 124.968 230.172C124.811 230.015 124.558 230.015 124.402 230.172L121.856 232.717ZM156.646 272.462V272.862H157.046V272.462H156.646ZM156.646 232.6H122.139V233.4H156.646V232.6ZM156.246 233V272.462H157.046V233H156.246ZM156.646 272.062H124.5V272.862H156.646V272.062Z" fill="#55DD77"/>
</svg>
