<svg width="397" height="292" viewBox="0 0 397 292" fill="none" xmlns="http://www.w3.org/2000/svg">
<path d="M79.9937 36.1139V79.3734M79.9937 36.1139H48.4241H16.8544V79.3734H53.5M79.9937 36.1139V18.557M79.9937 79.3734H108.994M79.9937 79.3734H66M119.639 1H79.9937V18.557M119.639 1V79.3734M119.639 1H159.101M119.639 79.3734H117.07M119.639 79.3734H122.392M159.101 1V79.3734M159.101 1H198.563M159.101 79.3734H131.019M159.101 79.3734H187.918M198.563 1V79.3734M198.563 1H238.209M198.563 79.3734H195.81M198.563 79.3734H201.5M238.209 1V79.3734M238.209 1H277.671M238.209 79.3734H209.759M238.209 79.3734H267.025M277.671 1V79.3734M277.671 1H317.316M277.671 79.3734H274.734M277.671 79.3734H280.424M317.316 1V79.3734M317.316 1H395.873V79.3734M317.316 79.3734H288.5M317.316 79.3734H319.519M395.873 79.3734V105.804H132.671V212.076M395.873 79.3734H328.329M104.589 212.076V105.804H79.9937V92.5886H1V18.557H79.9937M104.589 212.076H51.7279M104.589 212.076H107.709M51.7279 212.076H13V251.354M51.7279 212.076V226.943M13 251.354V291H51.7279M13 251.354H38.5127M51.7279 291H132.671V281.272M51.7279 291V276.133M51.7279 263.652H38.5127V251.354M51.7279 263.652H66.2279M51.7279 263.652V266.589M38.5127 251.354V239.241H51.7279M51.7279 239.241V236.671M51.7279 239.241H53.9304M66.2279 239.241V263.652M66.2279 239.241H63.2911M66.2279 239.241V235.762V232.403M66.2279 263.652L66.2328 267.332V270.691M132.671 281.272H177.089V224.924H132.671V212.076M132.671 281.272V263.652M132.671 212.076H119.823M132.671 241.994H160.386M132.671 241.994V263.652M132.671 241.994L146.528 252.823L160.386 263.652M160.386 241.994V263.652M160.386 241.994L132.671 263.652M160.386 263.652H132.671" stroke="#18211A" stroke-width="2"/>
<path d="M108.994 79.3734H117.07M122.392 79.3734H131.019M187.918 79.3734H195.81M201.5 79.3734H209.759M267.025 79.3734H274.734M280.424 79.3734H288.5M319.519 79.3734H328.329M107.709 212.076H119.823M51.7278 226.943V236.671M53.9304 239.241H63.2911M51.7278 266.589V276.133M53.5 79.5H66" stroke="#FF8822"/>
<path d="M168.646 233H169.046V232.6H168.646V233ZM133.856 232.717C133.7 232.873 133.7 233.127 133.856 233.283L136.402 235.828C136.558 235.985 136.811 235.985 136.968 235.828C137.124 235.672 137.124 235.419 136.968 235.263L134.705 233L136.968 230.737C137.124 230.581 137.124 230.328 136.968 230.172C136.811 230.015 136.558 230.015 136.402 230.172L133.856 232.717ZM168.646 272.462V272.862H169.046V272.462H168.646ZM168.646 232.6H134.139V233.4H168.646V232.6ZM168.246 233V272.462H169.046V233H168.246ZM168.646 272.062H136.5V272.862H168.646V272.062Z" fill="#55DD77"/>
</svg>
