<svg width="311" height="294" fill="none" xmlns="http://www.w3.org/2000/svg"><path d="M89.297 229.16c-.458-6.431-2.002-13.072-4.757-20.175m4.757 28.357a59.717 59.717 0 01-.933 7.048m0 0c-2.81 14.598-10.972 29.157-22.872 46.878l-1.965-1.794m24.837-45.084h17.675m0 0v-1.384m0 1.384v1.385m-21.5-36.79c-3.857-9.941-10.09-20.787-19.047-33.229L2 233.314l57.087 52.108m25.453-76.437h3.94m64.239 17.604h1.186m-1.186 0h-1.187m1.187 0v-34.637m-4.352 52.438h4.352v-4.549m-4.352 4.549v-1.384m0 1.384v1.385m4.352-5.934h-1.187m1.187 0h1.186M65.492 139.56h13.845m-13.845 0v-17.208m0 17.208v16.219m13.845-16.219h9.099m-9.099 0v4.154m73.382 30.855v17.383m0-17.383v-17.801m0 17.801h-16.727m16.727-17.801v-17.01m0 17.01h-17.802m-5.736 0v-11.274m0 11.274h1.187m-1.187 0v11.67m23.538-28.68h-23.538v1.186m23.538-1.186v-4.747h19.186v-24.527h-19.186m0 0v-5.34m0 5.34v6.923m0-12.263V58.267H253.91m-101.191 46.877h-5.736m-58.547 0H65.492v17.208m22.944-17.208h52.02m-52.02 0v.989m0 33.427h11.867v25.713M88.436 139.56v-1.582m-22.944-15.626h22.944m0 0v-3.758m0 3.758v9.098m0-12.856h5.538m-5.538 0v-7.912m0 20.768h11.867v-12.856h-1.186M88.436 131.45v1.781m52.02-28.087V58.267h-10.681m10.681 46.877h1.384m-12.065-46.877v11.076H94.963V58.267h-9.098V11.983h78.326m-34.416 46.284v-1.78m34.416-44.504v34.614m0-34.614V1.5h52.217v10.483m-52.217 34.614h-34.416v1.78m34.416-1.78h23.933m80.304 11.67v11.472h17.01v5.736h6.725m-23.735-17.208v-1.978m0 1.978h-4.523m4.523-46.284h41.537v46.284h-6.923v17.208h-.989m-33.625-63.492h-52.02m52.02 0v34.614m-52.02-34.614v34.614m0 0h-19.384m19.384 0h19.977m32.043 0h-23.142m23.142 0v2.176m-115.709 68.634h12.658m-12.658 0v11.076m0-11.076l12.658 11.076m0-11.076v11.076m0-11.076l-12.658 11.076m12.658 0h-12.658m-64.238 80.502v-1.186m0 1.186v1.385m7.881-1.385h3.941v-17.033m-3.94 17.033v1.385m0-1.385v-1.186m3.94-42.526h1.187m-1.187 0h-1.186m1.186 6.527h-1.186m1.186 0h1.187m-1.187 0v2.322m-20.966-25.464v25.464m-13.845-12.805v12.857l13.845-.052m49.844-.937v1.384h6.811M253.91 58.267V57.15m0 1.117v1.179m9.995-1.18v1.18m0-1.18V57.15M87.365 174.122h-8.028m20.966 0H94.93m5.373 0v17.83m0 0h8.674m11.076 0h15.939m16.727 0h-16.727m0 0v-11.481m0-5.902v1.444" stroke="#18211A" stroke-width="2"/><path d="M89.227 228.963v8.505M59 285.287l4.593 4.322M79.337 143.714v4.944M108.977 191.952h11.274M65.492 155.779v5.538M87.366 174.122h7.564M135.992 176.013v4.458M129.181 168.438v4.747M130.368 156.768h4.549M129.181 140.944v4.55M88.436 133.231v4.747M93.974 118.594h5.143M88.436 106.133v4.549M141.84 105.144h5.143M129.775 48.377v8.11M188.124 46.597h8.9M236.385 46.597h8.901M268.428 48.773v7.516M292.163 75.475h9.89" stroke="#F82"/><path d="M153.339 232.937a.3.3 0 000 .424l1.909 1.909a.3.3 0 00.424-.424l-1.697-1.697 1.697-1.697a.3.3 0 10-.424-.425l-1.909 1.91zm10.478-.088h-10.266v.6h10.266v-.6zM127.559 246.008a.3.3 0 00-.424 0l-1.909 1.909a.3.3 0 10.424.425l1.697-1.698 1.697 1.698a.3.3 0 10.424-.425l-1.909-1.909zm.088 10.482v-10.27h-.6v10.27h.6zM59.81 158.859v-.3h-.3v.3h.3zm3.725.212a.3.3 0 000-.424l-1.91-1.909a.3.3 0 00-.423.424l1.697 1.697-1.697 1.697a.3.3 0 10.424.424l1.909-1.909zm-3.724.088h3.512v-.6H59.81v.6zm-.3-.3v12.832h.6v-12.832h-.6zM57.11 291.5l-.213.212.212.212.212-.212-.212-.212zm2.46-2.161a.3.3 0 00-.3-.3h-2.7a.3.3 0 100 .6h2.4v2.4a.3.3 0 10.6 0v-2.7zm-2.248 2.373l2.16-2.161-.424-.424-2.16 2.161.423.424zm0-.424l-9.05-9.05-.425.424 9.05 9.05.425-.424zM259.849 60.044a.3.3 0 00-.424 0l-1.909 1.91a.3.3 0 00.424.424l1.697-1.697 1.697 1.697a.3.3 0 00.425-.425l-1.91-1.909zm.088 9.397v-9.185h-.6v9.185h.6zM168.679 114.015h.3v-.3h-.3v.3zm-12.909-.212a.3.3 0 000 .424l1.909 1.909a.3.3 0 10.425-.424l-1.697-1.697 1.697-1.697a.3.3 0 10-.425-.424l-1.909 1.909zm12.909 18.177v.3h.3v-.3h-.3zm0-18.265h-12.697v.6h12.697v-.6zm-.3.3v17.965h.6v-17.965h-.6zm.3 17.665H152.47v.6h16.209v-.6z" fill="#5D7"/></svg>