<svg width="45" height="62" viewBox="0 0 45 62" fill="none" xmlns="http://www.w3.org/2000/svg">
<path d="M22.5 1C12.1605 1 1 9.32387 1 22.7695C1 29.4052 3.60736 34.9881 8.61491 39.2193C8.66691 39.2852 8.72739 39.3438 8.79473 39.3935C12.5103 43.4743 12.698 44.2501 12.7234 46.0451C12.7351 46.7555 12.7292 46.9653 12.7234 47.0801L12.7155 47.4937C12.6862 48.3883 12.6413 49.8864 14.4727 50.4524L30.2928 53.9771C30.4182 54.0049 30.5477 54.0074 30.6741 53.9845C30.8004 53.9616 30.9211 53.9138 31.0292 53.8437C31.1372 53.7735 31.2306 53.6826 31.304 53.5759C31.3773 53.4693 31.4292 53.349 31.4567 53.2221C31.4842 53.0951 31.4867 52.9639 31.4641 52.836C31.4415 52.7081 31.3942 52.5859 31.3249 52.4764C31.2557 52.367 31.1658 52.2725 31.0605 52.1982C30.9552 52.1239 30.8364 52.0714 30.711 52.0436L14.9672 48.5387C14.6642 48.4456 14.6388 48.4377 14.6662 47.5531L14.672 47.1751C14.672 47.1751 14.6916 47.0207 14.676 46.0154C14.6388 43.504 14.0994 42.2908 10.1629 37.9824C10.0878 37.8886 9.99641 37.8094 9.89318 37.7489C5.28827 33.7849 2.95455 28.7462 2.95455 22.7695C2.95455 10.5449 13.0986 2.97905 22.5 2.97905C32.1085 2.97905 42.0455 10.3827 42.0455 22.7695C42.0455 30.6422 38.2771 34.9822 35.1694 37.7133C35.0609 37.7661 34.9634 37.8393 34.882 37.929C30.9006 42.2908 30.3612 45.239 30.324 47.7504V47.9543L30.3221 48.0235C30.3162 48.174 30.2947 48.2571 30.2967 48.2887C30.2204 48.2771 30.1442 48.2652 30.068 48.2531L21.8687 46.2998C21.7437 46.27 21.6141 46.2655 21.4874 46.2864C21.3607 46.3074 21.2392 46.3534 21.1301 46.4219C21.0209 46.4903 20.9261 46.5799 20.8511 46.6854C20.7761 46.791 20.7224 46.9104 20.693 47.037C20.6636 47.1636 20.6592 47.2947 20.6798 47.4231C20.7005 47.5514 20.746 47.6743 20.8136 47.7849C20.8812 47.8954 20.9696 47.9914 21.0739 48.0673C21.1781 48.1432 21.2961 48.1976 21.4211 48.2274L29.5207 50.151C29.6282 50.1906 30.6016 50.5112 31.4225 49.9274C31.7802 49.6721 32.1965 49.1714 32.2708 48.2135L32.2766 48.1205L32.2805 47.9246L32.2786 47.8731L32.2805 47.7821C32.306 45.997 32.4897 43.4862 36.1994 39.4054C36.217 39.3915 36.2365 39.3777 36.2522 39.3618C41.465 34.9268 44 29.4983 44 22.7695C44 9.14377 33.0682 1 22.5 1Z" fill="#FF9944" stroke="#99FFAA"/>
<path d="M30.3182 57.7731C30.5399 57.7735 30.7552 57.697 30.9283 57.5563C31.1014 57.4156 31.2219 57.2192 31.27 56.9995C31.2986 56.8725 31.3022 56.7411 31.2807 56.6127C31.2591 56.4842 31.2127 56.3614 31.1443 56.2512C31.0758 56.141 30.9866 56.0456 30.8817 55.9705C30.7769 55.8954 30.6584 55.842 30.5332 55.8134L14.8968 52.2154C14.6466 52.164 14.3865 52.214 14.1722 52.3547C13.9578 52.4953 13.8062 52.7156 13.7498 52.9682C13.6933 53.2208 13.7366 53.4859 13.8702 53.7066C14.0038 53.9273 14.2173 54.0862 14.4649 54.1493L30.1012 57.7473C30.1723 57.7644 30.2451 57.7731 30.3182 57.7731Z" fill="#FF9944" stroke="#99FFAA"/>
<path d="M15.8724 56.1413C15.7454 56.1072 15.6128 56.0994 15.4827 56.1185C15.3527 56.1376 15.2277 56.1831 15.1154 56.2523C15.003 56.3215 14.9056 56.413 14.8289 56.5214C14.7522 56.6297 14.6978 56.7526 14.669 56.8827C14.6402 57.0128 14.6376 57.1475 14.6613 57.2787C14.6849 57.4099 14.7344 57.5349 14.8068 57.6462C14.8792 57.7576 14.973 57.8529 15.0825 57.9266C15.1921 58.0003 15.3151 58.0508 15.4444 58.0752L28.1489 60.967C28.276 61.0011 28.4085 61.0089 28.5386 60.9898C28.6687 60.9707 28.7936 60.9252 28.906 60.856C29.0183 60.7868 29.1157 60.6953 29.1924 60.587C29.2691 60.4787 29.3235 60.3558 29.3523 60.2256C29.3811 60.0955 29.3838 59.9608 29.3601 59.8296C29.3364 59.6984 29.2869 59.5734 29.2145 59.4621C29.1421 59.3508 29.0483 59.2554 28.9388 59.1817C28.8293 59.108 28.7062 59.0575 28.577 59.0332L15.8724 56.1413Z" fill="#FF9944" stroke="#99FFAA"/>
<path d="M13.9865 19.7539C15.9062 18.1677 17.4226 16.9136 21.5378 19.1512C23.5147 20.2255 25.1091 20.6316 26.4355 20.6294C28.7596 20.6294 30.2661 19.3859 31.5682 18.3105C31.7917 18.1234 31.9307 17.8599 31.9558 17.5758C31.9808 17.2918 31.8899 17.0095 31.7023 16.7888C31.6108 16.6806 31.4977 16.5911 31.3696 16.5256C31.2415 16.4601 31.1011 16.4201 30.9566 16.4077C30.8122 16.3954 30.6666 16.4111 30.5286 16.4539C30.3905 16.4966 30.2628 16.5656 30.1529 16.6567C28.2343 18.2449 26.7168 19.4991 22.6015 17.2594C17.1644 14.306 14.6172 16.4103 12.5711 18.1022C12.3478 18.2894 12.209 18.553 12.1842 18.8371C12.1594 19.1211 12.2505 19.4033 12.4382 19.6238C12.5297 19.7319 12.6429 19.8212 12.771 19.8865C12.899 19.9517 13.0394 19.9916 13.1838 20.0037C13.3281 20.0159 13.4735 20 13.6114 19.9571C13.7493 19.9142 13.8768 19.8451 13.9865 19.7539ZM30.1529 22.057C28.2343 23.6431 26.7168 24.8994 22.6015 22.6597C17.1644 19.7042 14.6172 21.8095 12.5711 23.5004C12.3478 23.6876 12.209 23.9512 12.1842 24.2353C12.1594 24.5193 12.2505 24.8015 12.4382 25.022C12.5296 25.1303 12.6426 25.2198 12.7706 25.2852C12.8986 25.3507 13.0389 25.3907 13.1833 25.4031C13.3277 25.4154 13.4731 25.3997 13.6111 25.357C13.749 25.3142 13.8767 25.2453 13.9865 25.1542C15.9062 23.567 17.4226 22.3129 21.5378 24.5494C23.5147 25.6258 25.1091 26.0298 26.4355 26.0298C28.7596 26.0298 30.2661 24.7862 31.5682 23.7087C31.7919 23.5219 31.9311 23.2586 31.9561 22.9746C31.9811 22.6906 31.8901 22.4085 31.7023 22.1881C31.6108 22.0798 31.4977 21.9902 31.3695 21.9248C31.2414 21.8593 31.1009 21.8193 30.9564 21.8071C30.8119 21.7949 30.6664 21.8107 30.5283 21.8536C30.3903 21.8965 30.2626 21.9657 30.1529 22.057ZM30.1529 27.4562C28.2343 29.0445 26.7168 30.2986 22.6015 28.0611C17.1644 25.1056 14.6172 27.2099 12.5711 28.9018C12.3478 29.089 12.209 29.3526 12.1842 29.6366C12.1594 29.9207 12.2505 30.2029 12.4382 30.4234C12.5296 30.5316 12.6428 30.621 12.7708 30.6864C12.8989 30.7517 13.0393 30.7916 13.1837 30.8038C13.3281 30.8159 13.4736 30.8 13.6115 30.757C13.7494 30.714 13.8769 30.6448 13.9865 30.5535C15.9062 28.9673 17.4226 27.7143 21.5378 29.9507C23.5147 31.0251 25.1091 31.4311 26.4355 31.4311C28.7596 31.4311 30.2661 30.1855 31.5682 29.1101C31.7917 28.923 31.9307 28.6595 31.9558 28.3754C31.9808 28.0913 31.8899 27.8091 31.7023 27.5884C31.6107 27.4803 31.4975 27.3909 31.3695 27.3255C31.2414 27.2601 31.101 27.2201 30.9566 27.2078C30.8122 27.1955 30.6667 27.2111 30.5286 27.2538C30.3906 27.2964 30.2628 27.3653 30.1529 27.4562Z" fill="#FF9944" stroke="#99FFAA"/>
</svg>
