<svg width="43" height="60" fill="none" xmlns="http://www.w3.org/2000/svg"><path d="M37.366.972v.871l-.263.43-.095.156a1.226 1.226 0 00-.21 0l-.095-.155-.263-.431V.972c0-.265.212-.472.463-.472s.463.207.463.472zm1.514 1.663l-.127-.062h1.23c1.383 0 2.517 1.138 2.517 2.546v51.836c0 1.407-1.134 2.545-2.516 2.545H3.016C1.634 59.5.5 58.362.5 56.955V5.119c0-1.408 1.134-2.546 2.516-2.546h.994a.834.834 0 00-.171.512c0 .166.05.361.212.512.149.14.326.178.446.188.226.018.478-.046.66-.098.1-.03.235-.072.358-.112.087-.027.168-.053.227-.07.193-.059.305-.08.355-.08.05 0 .162.021.355.08.06.017.14.043.227.07.123.04.258.083.359.112.181.052.433.116.659.098a.733.733 0 00.446-.188.689.689 0 00.213-.512v-.313l-.282-.137-.127-.062h2.461l-.127.062-.281.137v.313c0 .166.05.361.212.512.15.14.327.178.447.188.225.018.477-.046.659-.098.1-.03.235-.072.358-.112.087-.027.168-.053.227-.07.194-.059.305-.08.355-.08.05 0 .162.021.356.08l.226.07c.124.04.259.083.359.112.182.052.433.116.659.098a.733.733 0 00.446-.188.689.689 0 00.213-.512v-.313l-.281-.137-.128-.062h2.461l-.127.062-.281.137v.313c0 .166.05.361.212.512.15.14.327.178.447.188.225.018.477-.046.659-.098.1-.03.235-.072.358-.112.087-.027.168-.053.227-.07.194-.059.305-.08.355-.08.05 0 .162.021.356.08.059.017.14.043.227.07.123.04.258.083.358.112.182.052.433.116.659.098a.733.733 0 00.447-.188.689.689 0 00.212-.512v-.313l-.281-.137-.127-.062h2.46l-.127.062-.28.137v.313c0 .166.05.361.211.512.15.14.327.178.447.188.226.018.477-.046.659-.098.1-.03.235-.072.358-.112.087-.027.168-.053.227-.07.194-.059.305-.08.356-.08.05 0 .161.021.355.08.059.017.14.043.227.07.123.04.258.083.358.112.182.052.434.116.66.098a.733.733 0 00.446-.188.689.689 0 00.212-.512v-.313l-.281-.137-.127-.062h2.46l-.126.062-.282.137v.313c0 .166.051.361.213.512.149.14.326.178.446.188.226.018.477-.046.66-.098.1-.03.234-.072.358-.112l.226-.07c.194-.059.305-.08.356-.08.05 0 .161.021.355.08.06.017.14.043.227.07.123.04.258.083.358.112.182.052.434.116.66.098a.733.733 0 00.446-.188.689.689 0 00.212-.512v-.313l-.28-.137-.128-.062h2.46l-.126.062-.282.137v.313c0 .166.051.361.213.512.149.14.326.178.446.188.226.018.478-.046.66-.098.1-.03.235-.072.358-.112.087-.027.168-.053.227-.07.193-.059.305-.08.355-.08.05 0 .162.021.355.08.06.017.14.043.227.07.123.04.258.083.359.112.181.052.433.116.658.098a.733.733 0 00.447-.188.689.689 0 00.212-.512v-.313l-.28-.137zm-7.938-.361l-.095.155a1.226 1.226 0 00-.21 0l-.095-.155-.263-.431V.972c0-.265.212-.472.463-.472.25 0 .462.207.462.472v.871l-.262.43zm-6.824-.431V.972c0-.265.211-.472.463-.472.25 0 .462.207.462.472v.871l-.262.43-.095.156a1.226 1.226 0 00-.21 0l-.095-.155-.263-.431zm-6.161 0V.972c0-.265.211-.472.462-.472.252 0 .463.207.463.472v.871l-.263.43-.095.156a1.226 1.226 0 00-.21 0l-.095-.155-.262-.431zm-6.162 0V.972c0-.265.212-.472.463-.472s.463.207.463.472v.871l-.263.43-.095.156a1.224 1.224 0 00-.21 0l-.095-.155-.262-.431zm-5.593.586a1.226 1.226 0 00-.21 0l-.095-.155-.263-.431V.972c0-.265.212-.472.463-.472s.463.207.463.472v.871l-.263.43-.095.156z" stroke="#F94"/><path d="M14.259 27.759a7.256 7.256 0 017.258-7.259 7.257 7.257 0 017.259 7.259 7.257 7.257 0 01-7.259 7.258 7.256 7.256 0 01-7.258-7.258zM6.5 44.18c0-1.106.55-2.112 1.535-3.021.989-.913 2.382-1.694 3.967-2.329 3.172-1.27 6.988-1.909 9.515-1.909s6.343.639 9.515 1.91c1.585.634 2.979 1.415 3.967 2.328.985.909 1.535 1.915 1.535 3.021V49.5H6.5v-5.319z" stroke="#F94"/></svg>