<svg width="44" height="60" fill="none" xmlns="http://www.w3.org/2000/svg"><path d="M37.832 2.073v.5h2.618c1.383 0 2.516 1.138 2.516 2.546v51.836c0 1.407-1.133 2.545-2.516 2.545H3.483C2.1 59.5.966 58.362.966 56.955V5.119c0-1.408 1.134-2.546 2.517-2.546H6.1V.972C6.1.707 6.312.5 6.563.5s.463.207.463.472v1.511h5.236V.972c0-.265.211-.472.463-.472.25 0 .462.207.462.472v1.511h5.236V.972c0-.265.212-.472.463-.472.25 0 .462.207.462.472v1.511h5.236V.972c0-.265.212-.472.463-.472s.463.207.463.472v1.511H30.745V.972c0-.265.212-.472.463-.472s.463.207.463.472v1.511h5.236V.972c0-.265.211-.472.462-.472s.463.207.463.472v1.101z" stroke="#F94"/><path d="M6.69 13.526l2.517 2.637 2.702-2.83 2.701-2.83M18.886 12.025h13.579M18.886 16.172H36.99M6.69 24.827l2.517 2.637 2.702-2.83 2.701-2.83M18.886 23.524h13.579M18.886 27.671H36.99M6.69 35.336l2.517 2.636 2.702-2.83 2.701-2.83M18.886 33.891h13.579M18.886 38.038H36.99M6.69 46.637l2.517 2.637 2.702-2.83 2.701-2.83M18.886 45.39h13.579M18.886 49.538H36.99" stroke="#F94"/></svg>