<svg width="399" height="202" fill="none" xmlns="http://www.w3.org/2000/svg">
  <path fill="#F94" stroke="#18211A" d="M12.917 31.4734h28.4949v170.027H12.917z"/>
  <path fill="#F94" stroke="#000" d="M130.879 31.4734h28.4949v170.027H130.879z"/>
  <path fill="#F94" d="M64.5752 31.9046h51.2134v139.512H64.5752z"/>
  <path fill="#F94" d="M40.912 145.248h90.467v26.5487H40.912zM40.912 88.6106h90.467v26.5487H40.912zM40.912 31.9734h90.467v26.5487H40.912z"/>
  <path fill="#CEEBD5" stroke="#18211A" d="M41.2988 58.9071h30.2687v29.3186H41.2988zM100.723 58.9071h30.2687v29.3186H100.723zM41.2988 115.544h30.2687v29.3186H41.2988zM100.723 115.544h30.2687v29.3186H100.723zM40.412 172.181h90.58v29.3186h-90.58z"/>
  <path fill="#F94" stroke="#18211A" d="M.5 10.2345h169.517v21.354H.5z"/>
  <path fill="#F94" stroke="#18211A" d="M56.3767.5h59.5375v9.84956H56.3767zM159.261 172.181h238.698v29.3186H159.261zM159.261 113.774h238.698v29.3186H159.261zM159.261 55.3673h238.698v29.3186H159.261z"/>
  <path fill="#CEEBD5" stroke="#18211A" d="M159.261 84.5708h30.2687v29.3186H159.261zM159.261 142.978h30.2687v29.3186H159.261zM218.685 84.5708h30.2687v29.3186H218.685zM218.685 142.978h30.2687v29.3186H218.685zM278.109 84.5708h30.2687v29.3186H278.109zM278.109 142.978h30.2687v29.3186H278.109zM337.534 84.5708h30.2687v29.3186H337.534zM337.534 142.978h30.2687v29.3186H337.534z"/>
  <path fill="#CEEBD5" d="M158.874 85.0708h.886931v28.3186H158.874zM158.874 143.478h.886931v28.3186H158.874z"/>
  <path fill="#F94" d="M189.916 55.8673h28.3818v145.133H189.916zM249.341 55.8673h28.3818v145.133H249.341zM308.765 55.8673h28.3818v145.133H308.765zM368.189 55.8673h29.2687v145.133H368.189z"/>
  <path fill="#000" d="M397.458 85.0708h.886931v86.7257H397.458z"/>
  <path fill="#F94" d="M34.5536 31.9046h13.2448v26.4897H34.5536zM34.5536 89.2989h13.2448v25.6067H34.5536zM34.5536 145.81h13.2448v25.6067H34.5536zM124.619 145.81h13.2448v25.6067H124.619zM124.619 89.2989h13.2448v25.6067H124.619zM124.619 31.9046h13.2448v25.6067H124.619z"/>
</svg>
