<svg width="70" height="70" fill="none" xmlns="http://www.w3.org/2000/svg"><g clip-path="url(#clip0)" stroke="#000" stroke-linecap="round" stroke-linejoin="round"><path d="M35.798 18.27c-1.978.96-5.935 4.038-8.329 5.768-1.91 1.052-8.487 6.347-10.067 7.708.007 1.908 2.425 8.83 3.162 10.946.738 2.116 2.78 8.462 2.924 8.846.145.385 6.77.385 9.343.385 1.978 0 12.665-.192 13.65-.385.792-.384 2.572-5.769 4.353-11.923.612-2.115 1.757-5.384 2.176-7.307-1.705-2.308-5.381-4.726-7.122-6.418-1.74-1.692-8.31-6.275-10.09-7.62zM61.69 35a24.301 24.301 0 01-.254 3.363l7.523 5.736c.328.264.548.632.623 1.04.075.406-.002.826-.215 1.184l-7.117 11.97a1.789 1.789 0 01-.955.758c-.4.136-.836.13-1.232-.016L52.59 56.11a2.757 2.757 0 00-2.525.284 27.54 27.54 0 01-3.584 2.028c-.392.185-.73.461-.986.803a2.537 2.537 0 00-.481 1.16l-1.12 7.747c-.074.41-.292.78-.616 1.051-.324.27-.734.423-1.162.432H27.883a1.88 1.88 0 01-1.149-.413 1.789 1.789 0 01-.63-1.021l-1.119-7.736a2.557 2.557 0 00-.493-1.17 2.66 2.66 0 00-1.004-.806 26.053 26.053 0 01-3.571-2.033 2.729 2.729 0 00-2.514-.277l-7.47 2.923a1.845 1.845 0 01-1.233.017 1.788 1.788 0 01-.954-.758L.628 46.371a1.705 1.705 0 01-.216-1.184c.075-.408.296-.776.624-1.04l6.358-4.852c.349-.27.623-.619.797-1.016.174-.398.244-.832.202-1.262a22.833 22.833 0 01-.097-2.022c0-.674.035-1.338.097-1.997a2.524 2.524 0 00-.212-1.252 2.599 2.599 0 00-.798-1.003L1.028 25.89a1.738 1.738 0 01-.611-1.037 1.707 1.707 0 01.216-1.176l7.118-11.97c.216-.354.554-.623.954-.758.4-.136.836-.13 1.232.016l7.472 2.925a2.754 2.754 0 002.524-.284 27.568 27.568 0 013.585-2.028c.392-.185.73-.461.986-.803.256-.343.421-.741.481-1.16l1.12-7.747c.074-.41.291-.78.616-1.051.324-.27.735-.424 1.162-.432h14.234c.42.007.826.153 1.149.413.323.261.546.621.63 1.021l1.119 7.735c.062.424.232.827.493 1.171a2.66 2.66 0 001.004.806 26.057 26.057 0 013.572 2.033 2.733 2.733 0 002.514.277l7.47-2.923a1.848 1.848 0 011.232-.017c.4.136.738.404.955.758l7.116 11.97c.215.357.291.777.217 1.184a1.739 1.739 0 01-.624 1.04l-6.359 4.852c-.35.268-.625.617-.8 1.015a2.53 2.53 0 00-.206 1.263c.055.67.091 1.343.091 2.017z" fill="#F82"/><path d="M35.483 34.133l1.838-9.169-8.24 12.072 5.633 1.993-1.838 9.17 8.24-12.072-5.633-1.994z" fill="#9FA"/></g><defs><clipPath id="clip0"><path fill="#fff" d="M0 0h70v70H0z"/></clipPath></defs></svg>