<?xml version="1.0" standalone="no"?>
<!DOCTYPE svg PUBLIC "-//W3C//DTD SVG 20010904//EN"
 "http://www.w3.org/TR/2001/REC-SVG-20010904/DTD/svg10.dtd">
<svg version="1.0" xmlns="http://www.w3.org/2000/svg"
 width="1280.000000pt" height="720.000000pt" viewBox="0 0 1280.000000 720.000000"
 preserveAspectRatio="xMidYMid meet">

<g transform="translate(0.000000,720.000000) scale(0.100000,-0.100000)"
fill="#000000" stroke="none">
<path d="M3398 4834 c-145 -35 -280 -143 -343 -275 -19 -40 -38 -88 -41 -106
l-6 -33 -139 0 c-192 0 -179 19 -179 -255 l0 -215 -35 0 -35 0 0 69 c0 61 -3
72 -22 85 -30 21 -44 20 -68 -4 -16 -16 -20 -33 -20 -85 l0 -65 -40 0 -40 0 0
68 c0 60 -3 71 -25 92 l-25 23 -25 -23 c-22 -21 -25 -32 -25 -92 0 -57 -3 -70
-17 -74 -41 -13 -69 -35 -86 -68 l-19 -36 -119 0 -119 0 0 38 c0 38 1 38 53
51 290 74 417 396 254 643 -88 132 -254 206 -402 181 -181 -31 -305 -146 -351
-326 -53 -203 75 -420 287 -489 l69 -22 0 -76 c0 -68 3 -79 24 -99 15 -14 26
-19 31 -12 4 7 56 11 141 11 l134 0 0 -40 0 -40 -70 0 c-75 0 -110 -19 -110
-59 0 -38 27 -51 106 -51 l74 0 0 -30 0 -30 -193 0 c-151 0 -197 -3 -213 -14
-17 -13 -20 -31 -24 -157 l-5 -142 -57 -13 c-197 -45 -359 -221 -391 -424 -37
-244 128 -494 371 -561 367 -102 718 222 641 593 -26 124 -112 248 -223 322
-48 32 -134 65 -209 81 l-27 5 0 105 0 105 165 0 165 0 0 -30 0 -30 -70 0
c-75 0 -110 -19 -110 -59 0 -38 27 -51 105 -51 l73 0 6 -34 c8 -43 37 -80 76
-96 29 -12 30 -15 30 -74 0 -66 5 -78 35 -94 15 -7 26 -7 40 0 31 17 35 28 35
96 l0 62 35 0 35 0 0 -167 c0 -93 4 -173 8 -179 15 -23 46 -33 67 -22 11 6 23
16 27 22 4 6 8 86 8 179 l0 167 40 0 40 0 0 -67 c0 -73 4 -84 35 -101 15 -7
26 -7 40 0 31 17 35 28 35 101 l0 67 35 0 35 0 0 -67 c0 -73 4 -84 35 -101 21
-11 52 -1 67 22 4 6 8 43 8 82 0 66 2 72 25 82 28 13 65 67 65 95 0 15 10 17
72 17 60 0 76 4 95 22 l23 22 -27 28 c-24 25 -33 28 -95 28 l-68 0 0 30 0 30
69 0 c76 0 101 13 101 55 0 37 -35 55 -107 55 l-63 0 0 35 0 35 175 0 175 0 0
-169 0 -168 -37 -7 c-62 -10 -155 -60 -206 -111 -181 -181 -160 -480 45 -630
236 -174 562 -67 648 213 70 225 -66 467 -295 526 l-50 12 -3 178 c-1 101 2
183 7 190 6 7 2 19 -10 35 l-20 24 -214 -2 -215 -2 0 45 0 46 69 0 c76 0 101
13 101 55 0 36 -36 55 -105 55 -60 0 -62 1 -78 34 -8 19 -30 42 -46 52 -30 18
-31 21 -31 91 0 63 -3 74 -22 87 -30 21 -44 20 -68 -4 -16 -16 -20 -33 -20
-85 l0 -65 -40 0 -40 0 0 185 0 185 104 0 104 0 12 -67 c24 -138 121 -278 244
-352 198 -119 460 -85 625 80 203 203 202 512 -3 714 -133 131 -305 181 -478
139z m268 -93 c121 -43 227 -156 265 -283 96 -315 -202 -617 -524 -533 -86 22
-136 51 -201 118 -167 170 -166 423 1 592 59 60 145 108 224 125 61 12 169 4
235 -19z m-1595 -97 c61 -27 134 -96 161 -150 86 -172 13 -382 -161 -462 -75
-35 -201 -37 -274 -4 -97 43 -164 123 -192 227 -22 79 -16 144 20 223 79 172
272 244 446 166z m884 -1129 l0 -320 -315 0 -315 0 -3 310 c-1 170 0 315 2
322 4 9 82 11 318 10 l313 -2 0 -320z m656 -411 c61 -27 134 -96 161 -150 86
-172 13 -381 -161 -463 -76 -35 -201 -37 -274 -4 -98 45 -164 124 -192 228
-22 79 -16 144 20 223 79 172 272 244 446 166z m-1625 -33 c121 -43 227 -156
265 -283 96 -315 -202 -617 -524 -533 -86 22 -136 51 -201 118 -167 170 -166
423 1 592 59 60 145 108 224 125 61 12 169 4 235 -19z"/>
<path d="M3430 4667 c-46 -15 -106 -77 -119 -124 -22 -77 -14 -117 40 -220 29
-54 55 -111 58 -128 5 -23 12 -30 31 -30 22 0 25 4 22 35 -1 19 -25 76 -52
127 -42 77 -50 100 -50 145 0 71 26 113 87 140 110 49 228 -12 240 -125 6 -47
-5 -76 -77 -207 -16 -30 -30 -70 -30 -87 0 -29 3 -33 25 -33 18 0 25 5 25 20
0 10 22 61 49 112 64 122 74 161 60 228 -21 98 -106 161 -215 159 -32 -1 -75
-6 -94 -12z"/>
<path d="M3508 4472 l-56 -77 34 -3 c38 -4 40 -11 19 -71 -19 -55 -8 -47 54
44 l52 75 -30 0 c-35 0 -39 14 -20 69 6 18 9 34 7 36 -2 2 -29 -31 -60 -73z"/>
<path d="M3426 4132 c-15 -24 14 -33 100 -30 71 2 89 6 89 18 0 12 -18 16 -92
18 -50 1 -94 -1 -97 -6z"/>
<path d="M3437 4074 c-4 -4 -7 -13 -7 -21 0 -10 22 -13 91 -13 81 0 90 2 87
18 -3 14 -16 17 -84 20 -44 1 -83 0 -87 -4z"/>
<path d="M3460 4012 c0 -17 37 -42 61 -42 21 1 69 30 69 43 0 2 -29 5 -65 6
-36 1 -65 -3 -65 -7z"/>
<path d="M1814 4521 c-83 -38 -162 -129 -149 -171 10 -32 32 -23 93 38 38 39
71 62 98 70 94 27 159 8 236 -70 61 -61 83 -70 93 -38 8 27 -16 70 -65 114
-62 56 -113 76 -195 76 -47 0 -84 -7 -111 -19z"/>
<path d="M1840 4379 c-80 -49 -117 -149 -55 -149 15 0 26 7 30 19 10 34 73 81
106 81 42 0 84 -27 106 -67 12 -22 25 -33 40 -33 41 0 37 52 -9 111 -28 35
-82 59 -133 59 -33 0 -62 -7 -85 -21z"/>
<path d="M1886 4235 c-24 -25 -28 -52 -11 -85 13 -25 22 -30 50 -30 28 0 37 5
50 30 25 48 -2 100 -50 100 -13 0 -30 -7 -39 -15z"/>
<path d="M2611 3766 c-8 -9 -11 -55 -9 -136 3 -104 6 -125 21 -134 12 -8 22
-8 35 0 14 9 17 30 20 134 3 126 -3 150 -38 150 -10 0 -23 -6 -29 -14z"/>
<path d="M2461 3660 c-94 -97 -93 -249 4 -345 45 -45 115 -75 175 -75 132 0
250 118 250 251 0 73 -51 170 -105 199 -22 12 -27 11 -45 -5 -27 -24 -26 -31
14 -76 67 -73 68 -169 2 -235 -89 -89 -243 -48 -275 74 -16 56 0 112 45 161
39 44 41 52 16 74 -27 25 -38 21 -81 -23z"/>
<path d="M3309 2961 c-22 -21 -39 -48 -39 -60 0 -12 -17 -38 -40 -60 -32 -31
-40 -45 -40 -74 0 -20 5 -48 12 -62 23 -50 48 -55 283 -55 235 0 260 5 283 55
31 69 -5 148 -74 161 -24 4 -39 15 -49 34 -16 30 -33 40 -73 40 -15 1 -43 14
-62 30 -30 27 -42 30 -98 30 -61 0 -66 -2 -103 -39z m180 -19 c15 -15 30 -33
32 -41 4 -11 9 -12 27 -2 33 18 59 5 72 -34 10 -31 15 -35 47 -35 48 0 73 -24
73 -69 0 -75 -18 -81 -255 -81 -236 0 -255 6 -255 79 0 38 23 71 50 71 13 0
19 11 23 43 8 60 51 97 113 97 36 0 51 -6 73 -28z"/>
<path d="M3397 2843 c-12 -19 -10 -92 2 -107 12 -15 16 -15 30 -2 23 21 14
109 -11 114 -9 2 -18 -1 -21 -5z"/>
<path d="M3509 2833 c-10 -13 -13 -32 -9 -63 4 -37 9 -45 25 -45 16 0 21 8 25
48 5 36 2 51 -10 62 -15 13 -18 13 -31 -2z"/>
<path d="M1823 3043 c-8 -3 -13 -24 -13 -54 0 -27 -3 -49 -7 -49 -4 0 -22 14
-39 31 -34 33 -59 34 -71 3 -4 -11 14 -35 56 -78 70 -71 79 -104 35 -133 -40
-26 -74 -1 -97 74 -28 91 -35 103 -57 103 -27 0 -34 -22 -22 -70 5 -22 8 -40
5 -40 -2 0 -21 10 -42 22 -75 43 -102 -12 -28 -59 l42 -27 -44 -11 c-53 -13
-73 -37 -50 -61 15 -15 23 -14 95 6 64 17 83 19 106 9 23 -9 28 -18 28 -45 0
-27 -6 -36 -28 -48 -26 -14 -36 -13 -106 6 -70 20 -78 20 -93 5 -24 -24 -9
-45 43 -60 l48 -14 -42 -23 c-30 -17 -42 -30 -42 -46 0 -32 25 -37 70 -14 22
11 41 20 44 20 2 0 -1 -18 -6 -40 -12 -48 -6 -70 21 -70 25 0 33 15 56 102 15
56 22 69 46 79 24 9 33 9 54 -5 43 -28 34 -63 -35 -131 -33 -33 -60 -65 -60
-72 0 -7 9 -17 21 -24 18 -9 26 -6 53 20 18 17 35 31 38 31 4 0 8 -21 10 -47
3 -44 5 -48 28 -48 23 0 25 4 28 48 2 26 6 47 10 47 3 0 21 -14 38 -31 34 -33
59 -34 71 -3 4 11 -14 35 -56 78 -69 70 -79 104 -36 132 40 26 82 4 95 -50 27
-104 35 -121 58 -124 29 -4 38 20 25 70 -6 21 -8 38 -6 38 2 0 21 -9 43 -20
45 -23 70 -18 70 14 0 16 -12 29 -42 46 l-42 23 48 14 c52 15 67 36 43 60 -14
14 -23 14 -93 -5 -69 -19 -79 -20 -105 -6 -39 20 -40 66 -4 90 24 16 30 16
107 -5 74 -21 82 -21 97 -7 23 24 3 48 -50 61 l-44 11 43 27 c73 47 46 102
-29 59 -21 -12 -40 -22 -42 -22 -2 0 0 17 6 38 13 47 5 72 -23 72 -23 0 -31
-15 -55 -102 -20 -74 -52 -100 -93 -75 -49 29 -42 62 29 133 42 43 60 67 56
78 -12 31 -37 30 -71 -3 -17 -17 -35 -31 -39 -31 -4 0 -7 22 -7 49 0 35 -4 51
-16 55 -9 3 -16 6 -17 5 -1 0 -8 -3 -14 -6z m45 -339 c32 -22 30 -71 -3 -86
-60 -27 -107 49 -53 86 12 9 25 16 28 16 3 0 16 -7 28 -16z"/>
<path d="M4851 4820 c-294 -41 -510 -219 -560 -458 -16 -76 -14 -222 4 -301
31 -136 144 -283 292 -379 37 -24 178 -98 313 -164 236 -116 248 -123 316
-193 91 -92 108 -137 102 -269 -3 -69 -10 -101 -27 -135 -136 -261 -529 -296
-905 -81 -139 80 -170 63 -163 -93 2 -68 8 -93 24 -115 30 -41 89 -78 178
-113 422 -165 881 -83 1091 194 85 112 121 213 130 367 11 173 -37 313 -150
437 -84 91 -173 148 -449 283 -257 126 -315 164 -384 248 -103 126 -92 315 24
423 57 52 111 76 207 91 144 22 297 -13 476 -111 126 -68 145 -57 145 88 0
123 -9 137 -117 191 -157 77 -380 113 -547 90z"/>
<path d="M6654 4786 c-17 -8 -34 -22 -38 -32 -33 -83 -786 -2177 -793 -2204
-20 -76 2 -90 143 -90 117 0 146 13 168 72 19 51 186 541 186 545 0 2 218 3
483 3 l484 0 78 -222 c123 -352 133 -378 162 -389 13 -5 76 -9 139 -9 102 0
116 2 135 21 15 15 19 28 14 47 -6 26 -761 2125 -793 2206 -22 56 -54 66 -209
66 -85 -1 -139 -5 -159 -14z m350 -882 c109 -311 196 -567 194 -570 -3 -2
-183 -3 -400 -2 l-396 3 196 568 c108 312 199 567 202 567 3 0 95 -255 204
-566z"/>
<path d="M8230 4789 c-13 -5 -28 -15 -32 -22 -10 -16 -10 -2258 0 -2274 14
-22 63 -33 147 -33 84 0 133 11 147 33 4 7 8 519 8 1138 0 951 -2 1128 -14
1144 -12 17 -29 20 -123 22 -59 2 -119 -2 -133 -8z"/>
<path d="M9158 4762 l-33 -30 -3 -1104 c-1 -607 0 -1113 3 -1125 7 -30 53 -43
151 -43 83 0 132 11 146 33 4 7 8 236 8 510 l0 499 168 -4 c163 -3 168 -4 233
-34 152 -72 207 -164 404 -670 137 -354 121 -334 273 -334 151 0 175 15 154
97 -18 67 -246 625 -302 738 -62 124 -131 211 -211 264 -60 38 -62 41 -38 49
116 44 218 111 284 184 52 58 108 169 124 246 15 75 13 226 -4 300 -41 175
-162 313 -335 381 -160 64 -160 64 -592 68 l-396 4 -34 -29z m761 -242 c66
-16 147 -59 187 -99 61 -60 87 -130 92 -245 9 -201 -64 -315 -247 -388 -51
-20 -77 -23 -288 -26 l-233 -4 0 393 0 392 223 -6 c122 -3 242 -11 266 -17z"/>
<path d="M8592 2368 c-7 -7 -12 -18 -12 -25 0 -15 16 -17 25 -3 4 6 13 5 24
-2 24 -15 51 -4 51 22 0 22 -16 27 -23 8 -4 -10 -7 -10 -18 0 -16 15 -32 15
-47 0z"/>
<path d="M10382 2368 c-7 -7 -12 -18 -12 -25 0 -15 16 -17 25 -3 4 6 13 5 24
-2 24 -15 51 -4 51 22 0 22 -16 27 -23 8 -4 -10 -7 -10 -18 0 -16 15 -32 15
-47 0z"/>
<path d="M4500 2350 c0 -15 5 -20 18 -18 9 2 17 10 17 18 0 8 -8 16 -17 18
-13 2 -18 -3 -18 -18z"/>
<path d="M6460 2350 c0 -15 5 -20 18 -18 9 2 17 10 17 18 0 8 -8 16 -17 18
-13 2 -18 -3 -18 -18z"/>
<path d="M6880 2335 c0 -33 -1 -34 -30 -29 -38 8 -58 -8 -66 -52 -11 -61 46
-110 84 -72 9 9 12 9 12 0 0 -7 7 -12 15 -12 12 0 15 18 15 100 0 82 -3 100
-15 100 -10 0 -15 -11 -15 -35z m-6 -77 c14 -23 -3 -53 -30 -53 -20 0 -31 33
-20 61 7 19 35 14 50 -8z"/>
<path d="M7260 2335 c0 -33 -1 -34 -30 -29 -38 8 -58 -8 -66 -52 -11 -61 46
-110 84 -72 9 9 12 9 12 0 0 -7 7 -12 15 -12 12 0 15 18 15 100 0 82 -3 100
-15 100 -10 0 -15 -11 -15 -35z m-6 -77 c14 -23 -3 -53 -30 -53 -20 0 -31 33
-20 61 7 19 35 14 50 -8z"/>
<path d="M7620 2270 c0 -82 3 -100 15 -100 12 0 15 18 15 100 0 82 -3 100 -15
100 -12 0 -15 -18 -15 -100z"/>
<path d="M8090 2350 c0 -15 5 -20 18 -18 9 2 17 10 17 18 0 8 -8 16 -17 18
-13 2 -18 -3 -18 -18z"/>
<path d="M9493 2363 c-7 -2 -13 -16 -13 -29 0 -15 -6 -24 -15 -24 -8 0 -15 -7
-15 -15 0 -8 7 -15 15 -15 12 0 15 -13 15 -55 0 -42 3 -55 15 -55 12 0 15 13
15 55 0 42 3 55 15 55 8 0 15 7 15 15 0 8 -7 15 -15 15 -8 0 -15 7 -15 15 0 8
7 15 15 15 8 0 15 7 15 15 0 15 -22 19 -47 8z"/>
<path d="M9660 2350 c0 -15 5 -20 18 -18 9 2 17 10 17 18 0 8 -8 16 -17 18
-13 2 -18 -3 -18 -18z"/>
<path d="M4373 2335 c-40 -28 -22 -72 35 -89 13 -5 22 -15 22 -28 0 -18 -4
-20 -41 -15 -34 4 -40 3 -37 -11 4 -24 63 -28 94 -7 37 24 29 65 -16 87 -45
23 -46 44 -2 41 26 -1 32 3 30 15 -4 23 -57 27 -85 7z"/>
<path d="M5393 2260 c-29 -83 -30 -90 -13 -90 10 0 22 9 25 20 5 15 15 20 42
20 26 0 36 -5 40 -20 6 -22 43 -28 42 -7 0 6 -13 46 -28 87 -23 62 -33 75 -52
78 -22 2 -27 -6 -56 -88z m71 3 c6 -20 4 -23 -17 -23 -24 0 -25 1 -14 35 11
36 17 34 31 -12z"/>
<path d="M7540 2260 c0 -83 1 -90 20 -90 19 0 20 7 20 90 0 83 -1 90 -20 90
-19 0 -20 -7 -20 -90z"/>
<path d="M9160 2260 c0 -83 1 -90 20 -90 16 0 20 7 20 36 0 44 18 42 40 -4 8
-17 23 -32 33 -32 21 0 22 12 1 52 -11 22 -13 33 -5 41 6 6 11 23 11 39 0 33
-24 48 -79 48 l-41 0 0 -90z m85 35 c0 -13 -8 -21 -22 -23 -19 -3 -23 1 -23
23 0 22 4 26 23 23 14 -2 22 -10 22 -23z"/>
<path d="M4687 2320 c-19 -23 -22 -40 -7 -40 6 0 10 -16 10 -36 0 -19 5 -44
10 -55 13 -23 60 -26 60 -4 0 8 -7 15 -15 15 -11 0 -15 11 -15 40 0 29 4 40
15 40 8 0 15 7 15 15 0 8 -7 15 -15 15 -8 0 -15 7 -15 15 0 21 -22 19 -43 -5z"/>
<path d="M5717 2320 c-19 -23 -22 -40 -7 -40 6 0 10 -16 10 -36 0 -19 5 -44
10 -55 13 -23 60 -26 60 -4 0 8 -7 15 -15 15 -11 0 -15 11 -15 40 0 29 4 40
15 40 8 0 15 7 15 15 0 8 -7 15 -15 15 -8 0 -15 7 -15 15 0 21 -22 19 -43 -5z"/>
<path d="M6357 2320 c-19 -23 -22 -40 -7 -40 6 0 10 -16 10 -36 0 -19 5 -44
10 -55 13 -23 60 -26 60 -4 0 8 -7 15 -15 15 -11 0 -15 11 -15 40 0 29 4 40
15 40 8 0 15 7 15 15 0 8 -7 15 -15 15 -8 0 -15 7 -15 15 0 21 -22 19 -43 -5z"/>
<path d="M4500 2240 c0 -56 3 -70 15 -70 12 0 15 14 15 70 0 56 -3 70 -15 70
-12 0 -15 -14 -15 -70z"/>
<path d="M4576 2295 c-25 -25 -19 -44 19 -62 40 -19 36 -38 -7 -29 -24 5 -29
3 -26 -12 4 -21 48 -28 78 -12 29 16 25 48 -10 68 -37 21 -39 36 -5 29 20 -3
25 -1 23 12 -4 22 -52 26 -72 6z"/>
<path d="M4807 2297 c-10 -6 -20 -28 -23 -48 -10 -58 42 -95 100 -73 31 12 17
31 -20 30 -22 -1 -39 4 -41 12 -3 8 9 12 41 12 39 0 46 3 46 20 0 46 -65 76
-103 47z m63 -27 c0 -5 -12 -10 -26 -10 -14 0 -23 4 -19 10 3 6 15 10 26 10
10 0 19 -4 19 -10z"/>
<path d="M4940 2239 c0 -62 2 -70 18 -67 13 2 18 16 22 53 4 36 10 51 22 53
14 3 17 -6 20 -50 2 -40 7 -54 20 -56 14 -3 17 6 20 50 3 45 6 53 23 53 17 0
20 -8 23 -52 2 -38 7 -53 18 -53 11 0 14 14 14 59 0 71 -16 91 -61 74 -17 -7
-31 -7 -35 -2 -8 13 -48 11 -62 -3 -9 -9 -12 -9 -12 0 0 7 -7 12 -15 12 -12 0
-15 -15 -15 -71z"/>
<path d="M5193 2303 c-7 -2 -13 -11 -13 -19 0 -10 8 -12 29 -8 16 4 32 1 35
-5 5 -7 -1 -11 -14 -11 -34 0 -60 -19 -60 -44 0 -33 19 -45 68 -44 l42 0 0 57
c0 31 -5 62 -12 69 -12 12 -52 15 -75 5z m55 -85 c-7 -19 -38 -22 -38 -4 0 10
9 16 21 16 12 0 19 -5 17 -12z"/>
<path d="M5560 2251 c0 -35 5 -63 13 -69 6 -6 33 -10 60 -10 l47 1 0 69 c0 53
-3 68 -14 68 -11 0 -16 -14 -18 -46 -2 -31 -9 -51 -20 -58 -24 -14 -30 -4 -36
54 -3 33 -9 50 -18 50 -10 0 -14 -16 -14 -59z"/>
<path d="M5837 2297 c-10 -6 -20 -28 -23 -48 -5 -29 -2 -41 15 -58 44 -44 121
-13 121 49 0 56 -68 91 -113 57z m68 -57 c0 -31 -3 -35 -25 -35 -19 0 -26 6
-28 23 -5 36 5 54 30 50 19 -2 23 -9 23 -38z"/>
<path d="M5980 2239 c0 -62 2 -70 18 -67 13 2 18 16 22 53 4 36 10 51 22 53
14 3 17 -6 20 -50 2 -40 7 -54 20 -56 14 -3 17 6 20 50 3 45 6 53 23 53 17 0
20 -8 23 -52 2 -38 7 -53 18 -53 11 0 14 14 14 59 0 71 -16 91 -61 74 -17 -7
-31 -7 -35 -2 -8 13 -48 11 -62 -3 -9 -9 -12 -9 -12 0 0 7 -7 12 -15 12 -12 0
-15 -15 -15 -71z"/>
<path d="M6233 2303 c-7 -2 -13 -11 -13 -19 0 -10 8 -12 29 -8 16 4 32 1 35
-5 5 -7 -1 -11 -14 -11 -34 0 -60 -19 -60 -44 0 -33 19 -45 68 -44 l42 0 0 57
c0 31 -5 62 -12 69 -12 12 -52 15 -75 5z m55 -85 c-7 -19 -38 -22 -38 -4 0 10
9 16 21 16 12 0 19 -5 17 -12z"/>
<path d="M6460 2240 c0 -56 3 -70 15 -70 12 0 15 14 15 70 0 56 -3 70 -15 70
-12 0 -15 -14 -15 -70z"/>
<path d="M6527 2304 c-10 -11 3 -24 24 -24 24 0 24 -4 -6 -48 -37 -54 -33 -62
25 -62 38 0 50 4 50 15 0 10 -10 15 -30 15 l-31 0 26 37 c37 55 34 73 -13 73
-21 0 -42 -3 -45 -6z"/>
<path d="M6663 2303 c-7 -2 -13 -11 -13 -19 0 -10 8 -12 29 -8 16 4 32 1 35
-5 5 -7 -1 -11 -14 -11 -34 0 -60 -19 -60 -44 0 -33 19 -45 68 -44 l42 0 0 57
c0 31 -5 62 -12 69 -12 12 -52 15 -75 5z m55 -85 c-7 -19 -38 -22 -38 -4 0 10
9 16 21 16 12 0 19 -5 17 -12z"/>
<path d="M6967 2297 c-10 -6 -20 -28 -23 -48 -5 -29 -2 -41 15 -58 44 -44 121
-13 121 49 0 56 -68 91 -113 57z m68 -57 c0 -31 -3 -35 -25 -35 -19 0 -26 6
-28 23 -5 36 5 54 30 50 19 -2 23 -9 23 -38z"/>
<path d="M7347 2297 c-10 -6 -20 -28 -23 -48 -10 -58 42 -95 100 -73 31 12 17
31 -20 30 -22 -1 -39 4 -41 12 -3 8 9 12 41 12 39 0 46 3 46 20 0 46 -65 76
-103 47z m63 -27 c0 -5 -12 -10 -26 -10 -14 0 -23 4 -19 10 3 6 15 10 26 10
10 0 19 -4 19 -10z"/>
<path d="M7690 2251 c0 -35 5 -63 13 -69 6 -6 33 -10 60 -10 l47 1 0 69 c0 53
-3 68 -14 68 -11 0 -16 -14 -18 -46 -2 -31 -9 -51 -20 -58 -24 -14 -30 -4 -36
54 -3 33 -9 50 -18 50 -10 0 -14 -16 -14 -59z"/>
<path d="M7850 2239 c0 -62 2 -70 18 -67 13 2 18 16 22 53 4 36 10 51 22 53
14 3 17 -6 20 -50 2 -40 7 -54 20 -56 14 -3 17 6 20 50 3 45 6 53 23 53 17 0
20 -8 23 -52 2 -38 7 -53 18 -53 11 0 14 14 14 59 0 71 -16 91 -61 74 -17 -7
-31 -7 -35 -2 -8 13 -48 11 -62 -3 -9 -9 -12 -9 -12 0 0 7 -7 12 -15 12 -12 0
-15 -15 -15 -71z"/>
<path d="M8090 2240 c0 -56 3 -70 15 -70 12 0 15 14 15 70 0 56 -3 70 -15 70
-12 0 -15 -14 -15 -70z"/>
<path d="M8160 2239 c0 -62 2 -70 18 -67 13 2 18 16 22 53 4 42 8 50 25 50 17
0 20 -8 23 -52 2 -38 7 -53 18 -53 10 0 14 14 14 58 0 62 -11 82 -45 82 -12 0
-26 -5 -33 -12 -9 -9 -12 -9 -12 0 0 7 -7 12 -15 12 -12 0 -15 -15 -15 -71z"/>
<path d="M8333 2303 c-7 -2 -13 -11 -13 -19 0 -10 8 -12 29 -8 16 4 32 1 35
-5 5 -7 -1 -11 -14 -11 -34 0 -60 -19 -60 -44 0 -33 19 -45 68 -44 l42 0 0 57
c0 31 -5 62 -12 69 -12 12 -52 15 -75 5z m55 -85 c-7 -19 -38 -22 -38 -4 0 10
9 16 21 16 12 0 19 -5 17 -12z"/>
<path d="M8471 2291 c-29 -29 -27 -76 4 -107 29 -29 31 -34 9 -34 -9 0 -14 -6
-11 -12 2 -7 15 -13 28 -13 17 0 24 6 24 20 0 11 6 24 13 28 22 14 13 33 -15
32 -25 0 -28 3 -28 35 0 32 3 35 28 35 20 -1 27 4 25 15 -5 24 -54 24 -77 1z"/>
<path d="M8593 2303 c-7 -2 -13 -11 -13 -19 0 -10 8 -12 29 -8 16 4 32 1 35
-5 5 -7 -1 -11 -14 -11 -34 0 -60 -19 -60 -44 0 -33 19 -45 68 -44 l42 0 0 57
c0 31 -5 62 -12 69 -12 12 -52 15 -75 5z m55 -85 c-7 -19 -38 -22 -38 -4 0 10
9 16 21 16 12 0 19 -5 17 -12z"/>
<path d="M8737 2297 c-10 -6 -20 -28 -23 -48 -5 -29 -2 -41 15 -58 44 -44 121
-13 121 49 0 56 -68 91 -113 57z m68 -57 c0 -31 -3 -35 -25 -35 -19 0 -26 6
-28 23 -5 36 5 54 30 50 19 -2 23 -9 23 -38z"/>
<path d="M8967 2297 c-10 -6 -20 -28 -23 -48 -10 -58 42 -95 100 -73 31 12 17
31 -20 30 -22 -1 -39 4 -41 12 -3 8 9 12 41 12 39 0 46 3 46 20 0 46 -65 76
-103 47z m63 -27 c0 -5 -12 -10 -26 -10 -14 0 -23 4 -19 10 3 6 15 10 26 10
10 0 19 -4 19 -10z"/>
<path d="M9337 2297 c-10 -6 -20 -28 -23 -48 -10 -58 42 -95 100 -73 31 12 17
31 -20 30 -22 -1 -39 4 -41 12 -3 8 9 12 41 12 39 0 46 3 46 20 0 46 -65 76
-103 47z m63 -27 c0 -5 -12 -10 -26 -10 -14 0 -23 4 -19 10 3 6 15 10 26 10
10 0 19 -4 19 -10z"/>
<path d="M9560 2239 c0 -54 3 -69 14 -69 11 0 16 14 18 48 2 38 7 49 26 57 35
16 26 32 -18 32 l-40 0 0 -68z"/>
<path d="M9660 2240 c0 -56 3 -70 15 -70 12 0 15 14 15 70 0 56 -3 70 -15 70
-12 0 -15 -14 -15 -70z"/>
<path d="M9737 2293 c-10 -12 -15 -33 -13 -63 1 -25 -1 -53 -6 -62 -11 -23 16
-48 53 -48 91 0 92 78 2 81 -29 1 -26 3 19 13 21 5 30 15 37 44 15 53 16 52
-32 52 -29 0 -49 -6 -60 -17z m61 -30 c5 -17 -26 -29 -40 -15 -6 6 -7 15 -3
22 9 14 37 9 43 -7z m2 -103 c0 -5 -11 -10 -25 -10 -14 0 -25 5 -25 10 0 6 11
10 25 10 14 0 25 -4 25 -10z"/>
<path d="M9887 2297 c-10 -6 -20 -28 -23 -48 -10 -58 42 -95 100 -73 31 12 17
31 -20 30 -22 -1 -39 4 -41 12 -3 8 9 12 41 12 39 0 46 3 46 20 0 46 -65 76
-103 47z m63 -27 c0 -5 -12 -10 -26 -10 -14 0 -23 4 -19 10 3 6 15 10 26 10
10 0 19 -4 19 -10z"/>
<path d="M10020 2239 c0 -54 3 -69 14 -69 11 0 16 14 18 48 2 38 7 49 26 57
35 16 26 32 -18 32 l-40 0 0 -68z"/>
<path d="M10123 2303 c-7 -2 -13 -11 -13 -19 0 -10 8 -12 29 -8 16 4 32 1 35
-5 5 -7 -1 -11 -14 -11 -34 0 -60 -19 -60 -44 0 -33 19 -45 68 -44 l42 0 0 57
c0 31 -5 62 -12 69 -12 12 -52 15 -75 5z m55 -85 c-7 -19 -38 -22 -38 -4 0 10
9 16 21 16 12 0 19 -5 17 -12z"/>
<path d="M10261 2291 c-29 -29 -27 -76 4 -107 29 -29 31 -34 9 -34 -9 0 -14
-6 -11 -12 2 -7 15 -13 28 -13 17 0 24 6 24 20 0 11 6 24 13 28 22 14 13 33
-15 32 -25 0 -28 3 -28 35 0 32 3 35 28 35 20 -1 27 4 25 15 -5 24 -54 24 -77
1z"/>
<path d="M10383 2303 c-7 -2 -13 -11 -13 -19 0 -10 8 -12 29 -8 16 4 32 1 35
-5 5 -7 -1 -11 -14 -11 -34 0 -60 -19 -60 -44 0 -33 19 -45 68 -44 l42 0 0 57
c0 31 -5 62 -12 69 -12 12 -52 15 -75 5z m55 -85 c-7 -19 -38 -22 -38 -4 0 10
9 16 21 16 12 0 19 -5 17 -12z"/>
<path d="M10527 2297 c-10 -6 -20 -28 -23 -48 -5 -29 -2 -41 15 -58 44 -44
121 -13 121 49 0 56 -68 91 -113 57z m68 -57 c0 -31 -3 -35 -25 -35 -19 0 -26
6 -28 23 -5 36 5 54 30 50 19 -2 23 -9 23 -38z"/>
</g>
</svg>
