<svg width="72" height="72" viewBox="0 0 72 72" fill="none" xmlns="http://www.w3.org/2000/svg">
<path d="M31.2 27.6H40.8C41.7548 27.6 42.6705 27.9793 43.3456 28.6544C44.0207 29.3295 44.4 30.2452 44.4 31.2V40.8C44.4 41.7548 44.0207 42.6705 43.3456 43.3456C42.6705 44.0207 41.7548 44.4 40.8 44.4H31.2C30.2452 44.4 29.3295 44.0207 28.6544 43.3456C27.9793 42.6705 27.6 41.7548 27.6 40.8V31.2C27.6 30.2452 27.9793 29.3295 28.6544 28.6544C29.3295 27.9793 30.2452 27.6 31.2 27.6ZM31.2 30C30.8817 30 30.5765 30.1264 30.3515 30.3515C30.1264 30.5765 30 30.8817 30 31.2V40.8C30 41.1183 30.1264 41.4235 30.3515 41.6485C30.5765 41.8736 30.8817 42 31.2 42H40.8C41.1183 42 41.4235 41.8736 41.6485 41.6485C41.8736 41.4235 42 41.1183 42 40.8V31.2C42 30.8817 41.8736 30.5765 41.6485 30.3515C41.4235 30.1264 41.1183 30 40.8 30H31.2ZM31.2 24C31.5183 24 31.8235 24.1264 32.0485 24.3515C32.2736 24.5765 32.4 24.8817 32.4 25.2V27.6C32.4 27.9183 32.2736 28.2235 32.0485 28.4485C31.8235 28.6736 31.5183 28.8 31.2 28.8C30.8817 28.8 30.5765 28.6736 30.3515 28.4485C30.1264 28.2235 30 27.9183 30 27.6V25.2C30 24.8817 30.1264 24.5765 30.3515 24.3515C30.5765 24.1264 30.8817 24 31.2 24ZM25.2 30H27.6C27.9183 30 28.2235 30.1264 28.4485 30.3515C28.6736 30.5765 28.8 30.8817 28.8 31.2C28.8 31.5183 28.6736 31.8235 28.4485 32.0485C28.2235 32.2736 27.9183 32.4 27.6 32.4H25.2C24.8817 32.4 24.5765 32.2736 24.3515 32.0485C24.1264 31.8235 24 31.5183 24 31.2C24 30.8817 24.1264 30.5765 24.3515 30.3515C24.5765 30.1264 24.8817 30 25.2 30ZM44.4 30H46.8C47.1183 30 47.4235 30.1264 47.6485 30.3515C47.8736 30.5765 48 30.8817 48 31.2C48 31.5183 47.8736 31.8235 47.6485 32.0485C47.4235 32.2736 47.1183 32.4 46.8 32.4H44.4C44.0817 32.4 43.7765 32.2736 43.5515 32.0485C43.3264 31.8235 43.2 31.5183 43.2 31.2C43.2 30.8817 43.3264 30.5765 43.5515 30.3515C43.7765 30.1264 44.0817 30 44.4 30ZM16.2 34.8H27.6C27.9183 34.8 28.2235 34.9264 28.4485 35.1515C28.6736 35.3765 28.8 35.6817 28.8 36C28.8 36.3183 28.6736 36.6235 28.4485 36.8485C28.2235 37.0736 27.9183 37.2 27.6 37.2H16.2C15.8817 37.2 15.5765 37.0736 15.3515 36.8485C15.1264 36.6235 15 36.3183 15 36C15 35.6817 15.1264 35.3765 15.3515 35.1515C15.5765 34.9264 15.8817 34.8 16.2 34.8ZM44.4 34.8H55.8C56.1183 34.8 56.4235 34.9264 56.6485 35.1515C56.8736 35.3765 57 35.6817 57 36C57 36.3183 56.8736 36.6235 56.6485 36.8485C56.4235 37.0736 56.1183 37.2 55.8 37.2H44.4C44.0817 37.2 43.7765 37.0736 43.5515 36.8485C43.3264 36.6235 43.2 36.3183 43.2 36C43.2 35.6817 43.3264 35.3765 43.5515 35.1515C43.7765 34.9264 44.0817 34.8 44.4 34.8ZM25.2 39.6H27.6C27.9183 39.6 28.2235 39.7264 28.4485 39.9515C28.6736 40.1765 28.8 40.4817 28.8 40.8C28.8 41.1183 28.6736 41.4235 28.4485 41.6485C28.2235 41.8736 27.9183 42 27.6 42H25.2C24.8817 42 24.5765 41.8736 24.3515 41.6485C24.1264 41.4235 24 41.1183 24 40.8C24 40.4817 24.1264 40.1765 24.3515 39.9515C24.5765 39.7264 24.8817 39.6 25.2 39.6ZM44.4 39.6H46.8C47.1183 39.6 47.4235 39.7264 47.6485 39.9515C47.8736 40.1765 48 40.4817 48 40.8C48 41.1183 47.8736 41.4235 47.6485 41.6485C47.4235 41.8736 47.1183 42 46.8 42H44.4C44.0817 42 43.7765 41.8736 43.5515 41.6485C43.3264 41.4235 43.2 41.1183 43.2 40.8C43.2 40.4817 43.3264 40.1765 43.5515 39.9515C43.7765 39.7264 44.0817 39.6 44.4 39.6ZM31.2 43.2C31.5183 43.2 31.8235 43.3264 32.0485 43.5515C32.2736 43.7765 32.4 44.0817 32.4 44.4V46.8C32.4 47.1183 32.2736 47.4235 32.0485 47.6485C31.8235 47.8736 31.5183 48 31.2 48C30.8817 48 30.5765 47.8736 30.3515 47.6485C30.1264 47.4235 30 47.1183 30 46.8V44.4C30 44.0817 30.1264 43.7765 30.3515 43.5515C30.5765 43.3264 30.8817 43.2 31.2 43.2ZM40.8 24C41.1183 24 41.4235 24.1264 41.6485 24.3515C41.8736 24.5765 42 24.8817 42 25.2V27.6C42 27.9183 41.8736 28.2235 41.6485 28.4485C41.4235 28.6736 41.1183 28.8 40.8 28.8C40.4817 28.8 40.1765 28.6736 39.9515 28.4485C39.7264 28.2235 39.6 27.9183 39.6 27.6V25.2C39.6 24.8817 39.7264 24.5765 39.9515 24.3515C40.1765 24.1264 40.4817 24 40.8 24ZM40.8 43.2C41.1183 43.2 41.4235 43.3264 41.6485 43.5515C41.8736 43.7765 42 44.0817 42 44.4V46.8C42 47.1183 41.8736 47.4235 41.6485 47.6485C41.4235 47.8736 41.1183 48 40.8 48C40.4817 48 40.1765 47.8736 39.9515 47.6485C39.7264 47.4235 39.6 47.1183 39.6 46.8V44.4C39.6 44.0817 39.7264 43.7765 39.9515 43.5515C40.1765 43.3264 40.4817 43.2 40.8 43.2ZM36 12C36.3183 12 36.6235 12.1264 36.8485 12.3515C37.0736 12.5765 37.2 12.8817 37.2 13.2V27.6C37.2 27.9183 37.0736 28.2235 36.8485 28.4485C36.6235 28.6736 36.3183 28.8 36 28.8C35.6817 28.8 35.3765 28.6736 35.1515 28.4485C34.9264 28.2235 34.8 27.9183 34.8 27.6V13.2C34.8 12.8817 34.9264 12.5765 35.1515 12.3515C35.3765 12.1264 35.6817 12 36 12ZM36 43.2C36.3183 43.2 36.6235 43.3264 36.8485 43.5515C37.0736 43.7765 37.2 44.0817 37.2 44.4V57.8C37.2 58.1183 37.0736 58.4235 36.8485 58.6485C36.6235 58.8736 36.3183 59 36 59C35.6817 59 35.3765 58.8736 35.1515 58.6485C34.9264 58.4235 34.8 58.1183 34.8 57.8V44.4C34.8 44.0817 34.9264 43.7765 35.1515 43.5515C35.3765 43.3264 35.6817 43.2 36 43.2Z" fill="black"/>
<path d="M36.4444 32.4444C36.4444 32.199 36.2455 32 36 32V32C35.7545 32 35.5556 32.199 35.5556 32.4444V36C35.5556 36.2455 35.7545 36.4444 36 36.4444V36.4444C36.2455 36.4444 36.4444 36.2455 36.4444 36V32.4444ZM38.8855 33.2412C38.7271 33.0767 38.4668 33.0888 38.3053 33.2502V33.2502C38.121 33.4346 38.14 33.737 38.3149 33.9303C38.8099 34.4769 39.1111 35.2027 39.1111 36C39.1111 37.72 37.72 39.1111 36 39.1111C34.28 39.1111 32.8889 37.72 32.8889 36C32.8889 35.2009 33.1914 34.4737 33.6859 33.9242C33.8589 33.7319 33.8766 33.4322 33.6937 33.2493V33.2493C33.5328 33.0884 33.2733 33.0764 33.1154 33.2402C32.4245 33.9572 32 34.9268 32 36C32 38.2089 33.7911 40 36 40C38.2089 40 40 38.2089 40 36C40 34.9273 39.5758 33.9581 38.8855 33.2412Z" fill="black" stroke="black" stroke-width="0.2"/>
<rect x="35" y="12" width="12" height="2" rx="1" fill="black"/>
<circle cx="58.5" cy="13.5" r="12.5" stroke="black" stroke-width="2"/>
<path d="M58.5 5C57.0413 5 55.6424 5.55974 54.6109 6.55609C53.5795 7.55244 53 8.90378 53 10.3128C53.0062 11.1559 53.2287 11.9844 53.6476 12.7241C54.0665 13.4637 54.6686 14.0916 55.4002 14.5514L56.3 16.6882C56.1541 16.6882 56.0142 16.7442 55.9111 16.8438C55.8079 16.9435 55.75 17.0786 55.75 17.2195C55.75 17.3604 55.8079 17.4956 55.9111 17.5952C56.0142 17.6948 56.1541 17.7508 56.3 17.7508C56.1541 17.7508 56.0142 17.8068 55.9111 17.9064C55.8079 18.006 55.75 18.1412 55.75 18.2821C55.75 18.423 55.8079 18.5581 55.9111 18.6578C56.0142 18.7574 56.1541 18.8134 56.3 18.8134C56.1541 18.8134 56.0142 18.8693 55.9111 18.969C55.8079 19.0686 55.75 19.2037 55.75 19.3446C55.75 19.4856 55.8079 19.6207 55.9111 19.7203C56.0142 19.82 56.1541 19.8759 56.3 19.8759C56.1541 19.8759 56.0142 19.9319 55.9111 20.0315C55.8079 20.1312 55.75 20.2663 55.75 20.4072C55.75 20.5481 55.8079 20.6833 55.9111 20.7829C56.0142 20.8825 56.1541 20.9385 56.3 20.9385H56.751C57.1272 21.5229 57.7575 21.9256 58.4901 22C58.8463 21.9662 59.1897 21.8538 59.4937 21.6714C59.7977 21.489 60.0543 21.2415 60.2435 20.9481L60.7 20.9385C60.8459 20.9385 60.9858 20.8825 61.0889 20.7829C61.1921 20.6833 61.25 20.5481 61.25 20.4072C61.25 20.2663 61.1921 20.1312 61.0889 20.0315C60.9858 19.9319 60.8459 19.8759 60.7 19.8759C60.8459 19.8759 60.9858 19.82 61.0889 19.7203C61.1921 19.6207 61.25 19.4856 61.25 19.3446C61.25 19.2037 61.1921 19.0686 61.0889 18.969C60.9858 18.8693 60.8459 18.8134 60.7 18.8134C60.8459 18.8134 60.9858 18.7574 61.0889 18.6578C61.1921 18.5581 61.25 18.423 61.25 18.2821C61.25 18.1412 61.1921 18.006 61.0889 17.9064C60.9858 17.8068 60.8459 17.7508 60.7 17.7508C60.8459 17.7508 60.9858 17.6948 61.0889 17.5952C61.1921 17.4956 61.25 17.3604 61.25 17.2195C61.25 17.0786 61.1921 16.9435 61.0889 16.8438C60.9858 16.7442 60.8459 16.6882 60.7 16.6882L61.58 14.5631C62.3163 14.1043 62.923 13.4758 63.3454 12.7342C63.7678 11.9927 63.9928 11.1613 64 10.315C64.0001 9.61713 63.858 8.9261 63.5817 8.28134C63.3054 7.63657 62.9003 7.05069 62.3895 6.55715C61.8788 6.06362 61.2725 5.67208 60.6051 5.4049C59.9377 5.13773 59.2224 5.00014 58.5 5V5ZM60.975 13.7237L60.7 13.9043L60.579 14.2125L59.6 16.4863C59.5774 16.545 59.5369 16.5957 59.4839 16.6317C59.4309 16.6678 59.3678 16.6875 59.303 16.6882H57.642C57.5873 16.6781 57.5363 16.6544 57.494 16.6194C57.4517 16.5843 57.4197 16.5392 57.4011 16.4885L56.443 14.2125L56.3 13.9043L56.025 13.713C55.4429 13.3401 54.9636 12.836 54.6282 12.2442C54.2928 11.6524 54.1115 10.9906 54.1 10.316C54.0998 9.75787 54.2134 9.20514 54.4343 8.68939C54.6552 8.17365 54.9791 7.70498 55.3876 7.31016C56.2124 6.51278 57.3314 6.06458 58.4983 6.06416C59.6653 6.06374 60.7846 6.51113 61.6101 7.30791C62.4356 8.10469 62.8996 9.18559 62.9 10.3128C62.8917 10.987 62.7135 11.649 62.3808 12.2416C62.048 12.8343 61.5708 13.3397 60.9904 13.7141L60.975 13.7237Z" fill="black"/>
<path d="M57 13H57.1471L59.9729 9.87548C60 9.84237 60.0068 9.81564 59.9932 9.79526C59.9797 9.77489 59.9493 9.76471 59.9019 9.76471H58.7655L59.9476 8.12223C60.0118 8.04074 59.9797 8 59.8512 8H58.3698C58.2988 8 58.2446 8.02546 58.2074 8.07639L57.0812 10.3109C57.0643 10.3466 57.066 10.3746 57.0862 10.395C57.1065 10.4153 57.1404 10.4255 57.1877 10.4255H58.2937L57 13Z" fill="black"/>
<rect x="15" y="25" width="2" height="12" rx="1" fill="black"/>
<circle cx="16" cy="16" r="10" stroke="black" stroke-width="2"/>
<path d="M10.4777 13.4059C10.1913 13.6954 10.1933 14.1551 10.4567 14.4656V14.4656C10.7889 14.8571 11.3917 14.8527 11.7719 14.5077C14.2575 12.2527 17.7422 12.2527 20.2278 14.5075C20.6082 14.8526 21.2112 14.857 21.5435 14.4653V14.4653C21.8068 14.1549 21.809 13.6954 21.523 13.4058C18.3548 10.198 13.6502 10.1981 10.4777 13.4059ZM15.2011 18.4384C14.6409 18.6814 14.6534 19.4126 15.0484 19.8783V19.8783C15.5468 20.4658 16.4539 20.4649 16.9523 19.8775V19.8775C17.3469 19.4123 17.361 18.6812 16.8015 18.4382C16.2867 18.2146 15.7171 18.2147 15.2011 18.4384ZM12.6707 15.9891C12.3715 16.2654 12.3752 16.7271 12.6387 17.0377V17.0377C12.9708 17.4291 13.5728 17.4194 13.9892 17.1192C15.2191 16.2325 16.7804 16.2324 18.0104 17.1189C18.4271 17.4191 19.0294 17.4289 19.3617 17.0373V17.0373C19.625 16.7268 19.6291 16.2654 19.3303 15.9889C17.3828 14.1872 14.622 14.1873 12.6707 15.9891Z" fill="black"/>
<rect x="25" y="57" width="12" height="2" rx="1" fill="black"/>
<circle cx="13.5" cy="58.5" r="12.5" stroke="black" stroke-width="2"/>
<path d="M21.4109 58.0885H19.4752L20.6535 56.8965C20.8218 56.7262 20.8218 56.4708 20.6535 56.3005C20.4851 56.1302 20.2327 56.1302 20.0644 56.3005L18.297 58.0885H16.9785L17.6799 57.379C17.8482 57.2087 17.8482 56.9533 17.6799 56.783C17.5116 56.6127 17.2591 56.6127 17.0908 56.783L15.8003 58.0885H14.4538L16.9785 55.5342H19.4752C19.6997 55.5342 19.896 55.3356 19.896 55.1085C19.896 54.8815 19.6997 54.6828 19.4752 54.6828H17.8201L19.363 53.1219C19.5314 52.9516 19.5314 52.6962 19.363 52.5259C19.1947 52.3556 18.9422 52.3556 18.7739 52.5259L17.231 54.0868V52.4124C17.203 52.1569 17.0347 51.9866 16.7822 51.9866C16.5297 51.9866 16.3614 52.1853 16.3614 52.4124V54.9382L13.8366 57.4925V56.1302L15.1271 54.8247C15.2954 54.6544 15.2954 54.399 15.1271 54.2287C14.9587 54.0584 14.7063 54.0584 14.538 54.2287L13.8366 54.9382V53.6043L15.604 51.8164C15.7723 51.6461 15.7723 51.3907 15.604 51.2204C15.4356 51.0501 15.1832 51.0501 15.0149 51.2204L13.8366 52.4124V50.4257C13.8366 50.1987 13.6403 50 13.4158 50C13.1914 50 12.995 50.1987 12.995 50.4257V52.384L11.8168 51.192C11.6485 51.0217 11.396 51.0217 11.2277 51.192C11.0594 51.3623 11.0594 51.6177 11.2277 51.788L12.995 53.576V54.9098L12.2937 54.2003C12.1254 54.03 11.8729 54.03 11.7046 54.2003C11.5363 54.3706 11.5363 54.626 11.7046 54.7963L12.995 56.1018V57.4641L10.4703 54.9098V52.384C10.4703 52.1569 10.2739 51.9866 10.0495 51.9866C9.82508 51.9866 9.62871 52.1853 9.62871 52.4124V54.0868L8.08581 52.5259C7.91749 52.3556 7.66502 52.3556 7.4967 52.5259C7.32838 52.6962 7.32838 52.9516 7.4967 53.1219L9.0396 54.6828H7.38449C7.13201 54.6828 6.9637 54.8531 6.9637 55.1085C6.9637 55.3639 7.16007 55.5342 7.38449 55.5342H9.88119L12.4059 58.0885H11.0594L9.76898 56.783C9.60066 56.6127 9.34818 56.6127 9.17987 56.783C9.01155 56.9533 9.01155 57.2087 9.17987 57.379L9.88119 58.0885H8.56271L6.79538 56.3005C6.62706 56.1302 6.37459 56.1302 6.20627 56.3005C6.03795 56.4708 6.03795 56.7262 6.20627 56.8965L7.38449 58.0885H5.42079C5.19637 58.0885 5 58.2871 5 58.5142C5 58.7412 5.19637 58.9399 5.42079 58.9399H7.35644L6.17822 60.1319C6.0099 60.3022 6.0099 60.5576 6.17822 60.7279C6.26238 60.813 6.37459 60.8414 6.4868 60.8414C6.59901 60.8414 6.71122 60.813 6.79538 60.7279L8.56271 58.9399H9.88119L9.15182 59.6494C8.9835 59.8197 8.9835 60.0751 9.15182 60.2454C9.23597 60.3305 9.34818 60.3589 9.4604 60.3589C9.57261 60.3589 9.68482 60.3305 9.76898 60.2454L11.0594 58.9399H12.4059L9.88119 61.4942H7.38449C7.13201 61.4942 6.9637 61.6928 6.9637 61.9199C6.9637 62.1469 7.16007 62.3456 7.38449 62.3456H9.0396L7.4967 63.9065C7.32838 64.0768 7.32838 64.3322 7.4967 64.5025C7.58086 64.5876 7.69307 64.616 7.80528 64.616C7.91749 64.616 8.0297 64.5876 8.11386 64.5025L9.65677 62.9416V64.616C9.65677 64.8431 9.85314 65.0417 10.0776 65.0417C10.302 65.0417 10.4984 64.8431 10.4984 64.616V62.0901L13.0231 59.5359V60.8982L11.7046 62.2037C11.5363 62.374 11.5363 62.6294 11.7046 62.7997C11.7888 62.8848 11.901 62.9132 12.0132 62.9132C12.1254 62.9132 12.2376 62.8848 12.3218 62.7997L13.0231 62.0901V63.424L11.2558 65.212C11.0875 65.3823 11.0875 65.6377 11.2558 65.808C11.3399 65.8932 11.4521 65.9215 11.5644 65.9215C11.6766 65.9215 11.7888 65.8932 11.8729 65.808L13.0512 64.616V66.5743C13.0512 66.8013 13.2475 67 13.4719 67C13.6964 67 13.8927 66.8013 13.8927 66.5743V64.616L15.071 65.808C15.1551 65.8932 15.2673 65.9215 15.3795 65.9215C15.4917 65.9215 15.604 65.8932 15.6881 65.808C15.8564 65.6377 15.8564 65.3823 15.6881 65.212L13.9208 63.424V62.0901L14.6221 62.7997C14.7063 62.8848 14.8185 62.9132 14.9307 62.9132C15.0429 62.9132 15.1551 62.8848 15.2393 62.7997C15.4076 62.6294 15.4076 62.374 15.2393 62.2037L13.9488 60.8982V59.5359L16.4736 62.0901V64.616C16.4736 64.8431 16.67 65.0417 16.8944 65.0417C17.1188 65.0417 17.3152 64.8431 17.3152 64.616V62.9416L18.8581 64.5025C18.9422 64.5876 19.0545 64.616 19.1667 64.616C19.2789 64.616 19.3911 64.5876 19.4752 64.5025C19.6436 64.3322 19.6436 64.0768 19.4752 63.9065L17.9323 62.3456H19.5875C19.8119 62.3456 20.0083 62.1469 20.0083 61.9199C20.0083 61.6928 19.8119 61.4942 19.5875 61.4942H17.0908L14.566 58.9399H15.9125L17.203 60.2454C17.2871 60.3305 17.3993 60.3589 17.5116 60.3589C17.6238 60.3589 17.736 60.3305 17.8201 60.2454C17.9884 60.0751 17.9884 59.8197 17.8201 59.6494L17.1188 58.9399H18.4373L20.2046 60.7279C20.2888 60.813 20.401 60.8414 20.5132 60.8414C20.6254 60.8414 20.7376 60.813 20.8218 60.7279C20.9901 60.5576 20.9901 60.3022 20.8218 60.1319L19.6436 58.9399H21.5792C21.8036 58.9399 22 58.7412 22 58.5142C22 58.2871 21.6353 58.0885 21.4109 58.0885" fill="black"/>
<path d="M21.4109 58.0885H19.4752L20.6535 56.8965C20.8218 56.7262 20.8218 56.4708 20.6535 56.3005C20.4851 56.1302 20.2327 56.1302 20.0644 56.3005L18.297 58.0885H16.9785L17.6799 57.379C17.8482 57.2087 17.8482 56.9533 17.6799 56.783C17.5116 56.6127 17.2591 56.6127 17.0908 56.783L15.8003 58.0885H14.4538L16.9785 55.5342H19.4752C19.6997 55.5342 19.896 55.3356 19.896 55.1085C19.896 54.8815 19.6997 54.6828 19.4752 54.6828H17.8201L19.363 53.1219C19.5314 52.9516 19.5314 52.6962 19.363 52.5259C19.1947 52.3556 18.9422 52.3556 18.7739 52.5259L17.231 54.0868V52.4124C17.203 52.1569 17.0347 51.9866 16.7822 51.9866C16.5297 51.9866 16.3614 52.1853 16.3614 52.4124V54.9382L13.8366 57.4925V56.1302L15.1271 54.8247C15.2954 54.6544 15.2954 54.399 15.1271 54.2287C14.9587 54.0584 14.7063 54.0584 14.538 54.2287L13.8366 54.9382V53.6043L15.604 51.8164C15.7723 51.6461 15.7723 51.3907 15.604 51.2204C15.4356 51.0501 15.1832 51.0501 15.0149 51.2204L13.8366 52.4124V50.4257C13.8366 50.1987 13.6403 50 13.4158 50C13.1914 50 12.995 50.1987 12.995 50.4257V52.384L11.8168 51.192C11.6485 51.0217 11.396 51.0217 11.2277 51.192C11.0594 51.3623 11.0594 51.6177 11.2277 51.788L12.995 53.576V54.9098L12.2937 54.2003C12.1254 54.03 11.8729 54.03 11.7046 54.2003C11.5363 54.3706 11.5363 54.626 11.7046 54.7963L12.995 56.1018V57.4641L10.4703 54.9098V52.384C10.4703 52.1569 10.2739 51.9866 10.0495 51.9866C9.82508 51.9866 9.62871 52.1853 9.62871 52.4124V54.0868L8.08581 52.5259C7.91749 52.3556 7.66502 52.3556 7.4967 52.5259C7.32838 52.6962 7.32838 52.9516 7.4967 53.1219L9.0396 54.6828H7.38449C7.13201 54.6828 6.9637 54.8531 6.9637 55.1085C6.9637 55.3639 7.16007 55.5342 7.38449 55.5342H9.88119L12.4059 58.0885H11.0594L9.76898 56.783C9.60066 56.6127 9.34818 56.6127 9.17987 56.783C9.01155 56.9533 9.01155 57.2087 9.17987 57.379L9.88119 58.0885H8.56271L6.79538 56.3005C6.62706 56.1302 6.37459 56.1302 6.20627 56.3005C6.03795 56.4708 6.03795 56.7262 6.20627 56.8965L7.38449 58.0885H5.42079C5.19637 58.0885 5 58.2871 5 58.5142C5 58.7412 5.19637 58.9399 5.42079 58.9399H7.35644L6.17822 60.1319C6.0099 60.3022 6.0099 60.5576 6.17822 60.7279C6.26238 60.813 6.37459 60.8414 6.4868 60.8414C6.59901 60.8414 6.71122 60.813 6.79538 60.7279L8.56271 58.9399H9.88119L9.15182 59.6494C8.9835 59.8197 8.9835 60.0751 9.15182 60.2454C9.23597 60.3305 9.34818 60.3589 9.4604 60.3589C9.57261 60.3589 9.68482 60.3305 9.76898 60.2454L11.0594 58.9399H12.4059L9.88119 61.4942H7.38449C7.13201 61.4942 6.9637 61.6928 6.9637 61.9199C6.9637 62.1469 7.16007 62.3456 7.38449 62.3456H9.0396L7.4967 63.9065C7.32838 64.0768 7.32838 64.3322 7.4967 64.5025C7.58086 64.5876 7.69307 64.616 7.80528 64.616C7.91749 64.616 8.0297 64.5876 8.11386 64.5025L9.65677 62.9416V64.616C9.65677 64.8431 9.85314 65.0417 10.0776 65.0417C10.302 65.0417 10.4984 64.8431 10.4984 64.616V62.0901L13.0231 59.5359V60.8982L11.7046 62.2037C11.5363 62.374 11.5363 62.6294 11.7046 62.7997C11.7888 62.8848 11.901 62.9132 12.0132 62.9132C12.1254 62.9132 12.2376 62.8848 12.3218 62.7997L13.0231 62.0901V63.424L11.2558 65.212C11.0875 65.3823 11.0875 65.6377 11.2558 65.808C11.3399 65.8932 11.4521 65.9215 11.5644 65.9215C11.6766 65.9215 11.7888 65.8932 11.8729 65.808L13.0512 64.616V66.5743C13.0512 66.8013 13.2475 67 13.4719 67C13.6964 67 13.8927 66.8013 13.8927 66.5743V64.616L15.071 65.808C15.1551 65.8932 15.2673 65.9215 15.3795 65.9215C15.4917 65.9215 15.604 65.8932 15.6881 65.808C15.8564 65.6377 15.8564 65.3823 15.6881 65.212L13.9208 63.424V62.0901L14.6221 62.7997C14.7063 62.8848 14.8185 62.9132 14.9307 62.9132C15.0429 62.9132 15.1551 62.8848 15.2393 62.7997C15.4076 62.6294 15.4076 62.374 15.2393 62.2037L13.9488 60.8982V59.5359L16.4736 62.0901V64.616C16.4736 64.8431 16.67 65.0417 16.8944 65.0417C17.1188 65.0417 17.3152 64.8431 17.3152 64.616V62.9416L18.8581 64.5025C18.9422 64.5876 19.0545 64.616 19.1667 64.616C19.2789 64.616 19.3911 64.5876 19.4752 64.5025C19.6436 64.3322 19.6436 64.0768 19.4752 63.9065L17.9323 62.3456H19.5875C19.8119 62.3456 20.0083 62.1469 20.0083 61.9199C20.0083 61.6928 19.8119 61.4942 19.5875 61.4942H17.0908L14.566 58.9399H15.9125L17.203 60.2454C17.2871 60.3305 17.3993 60.3589 17.5116 60.3589C17.6238 60.3589 17.736 60.3305 17.8201 60.2454C17.9884 60.0751 17.9884 59.8197 17.8201 59.6494L17.1188 58.9399H18.4373L20.2046 60.7279C20.2888 60.813 20.401 60.8414 20.5132 60.8414C20.6254 60.8414 20.7376 60.813 20.8218 60.7279C20.9901 60.5576 20.9901 60.3022 20.8218 60.1319L19.6436 58.9399H21.5792C21.8036 58.9399 22 58.7412 22 58.5142C22 58.2871 21.6353 58.0885 21.4109 58.0885" stroke="black" stroke-width="0.25"/>
<rect x="55" y="35" width="2" height="12" rx="1" fill="black"/>
<circle cx="56" cy="56" r="10" stroke="black" stroke-width="2"/>
<path d="M59.3566 56.9485C59.3566 56.8698 59.3201 56.7942 59.2552 56.7385C59.1902 56.6828 59.1021 56.6515 59.0103 56.6515H57.0784L57.5112 56.2802C57.5759 56.2242 57.6121 56.1485 57.6117 56.0697C57.6113 55.9909 57.5745 55.9154 57.5093 55.8599C57.4441 55.8044 57.3558 55.7734 57.2639 55.7737C57.1721 55.7741 57.0841 55.8057 57.0194 55.8616L55.7564 56.9485L57.0194 58.022C57.0514 58.0497 57.0895 58.0717 57.1315 58.0868C57.1734 58.1018 57.2184 58.1097 57.2639 58.1098C57.3094 58.11 57.3545 58.1025 57.3966 58.0877C57.4387 58.0729 57.477 58.0511 57.5093 58.0237C57.5416 57.9962 57.5672 57.9635 57.5848 57.9275C57.6024 57.8915 57.6115 57.8529 57.6117 57.8139C57.6119 57.7748 57.6031 57.7362 57.5859 57.7001C57.5686 57.6639 57.5433 57.6311 57.5112 57.6034L57.0824 57.2456H59.0103C59.1021 57.2456 59.1902 57.2143 59.2552 57.1586C59.3201 57.1029 59.3566 57.0273 59.3566 56.9485V56.9485Z" fill="black"/>
<path d="M60.4307 57.2456C60.5225 57.2456 60.6106 57.2143 60.6755 57.1586C60.7405 57.1029 60.7769 57.0273 60.7769 56.9485C60.7769 56.8698 60.7405 56.7942 60.6755 56.7385C60.6106 56.6828 60.5225 56.6515 60.4307 56.6515H60.2025C60.1107 56.6515 60.0226 56.6828 59.9577 56.7385C59.8927 56.7942 59.8562 56.8698 59.8562 56.9485C59.8562 57.0273 59.8927 57.1029 59.9577 57.1586C60.0226 57.2143 60.1107 57.2456 60.2025 57.2456H60.4307Z" fill="black"/>
<path d="M61.5875 56.6717H61.5639C61.519 56.6717 61.4745 56.6794 61.4331 56.6945C61.3917 56.7095 61.3543 56.7316 61.3231 56.7593C61.2919 56.787 61.2675 56.8199 61.2514 56.8559C61.2353 56.8918 61.2279 56.9302 61.2294 56.9688C61.2325 57.0485 61.2716 57.124 61.3384 57.1795C61.4052 57.2349 61.4945 57.2659 61.5875 57.2658C61.6793 57.2658 61.7674 57.2345 61.8323 57.1788C61.8973 57.1231 61.9337 57.0476 61.9337 56.9688C61.9337 56.89 61.8973 56.8144 61.8323 56.7587C61.7674 56.703 61.6793 56.6717 61.5875 56.6717V56.6717Z" fill="black"/>
<path d="M61.5735 53.8228L61.5735 53.8228L61.5742 53.8235L62.6164 54.7176L61.5739 55.6147L61.5735 55.6151C61.5659 55.6217 61.5549 55.6285 61.5404 55.6338C61.5258 55.639 61.5092 55.642 61.4916 55.6421C61.4741 55.6422 61.4574 55.6392 61.4427 55.6341C61.428 55.6289 61.4169 55.6221 61.4092 55.6155C61.4015 55.609 61.3979 55.6033 61.3963 55.6001C61.3947 55.597 61.3947 55.5953 61.3947 55.595C61.3947 55.5946 61.3947 55.593 61.3962 55.59C61.3977 55.5869 61.4011 55.5814 61.4085 55.575C61.4085 55.5749 61.4086 55.5748 61.4087 55.5747L61.8368 55.2075L62.3494 54.7677H61.6741H59.7461C59.7093 54.7677 59.6802 54.7548 59.6641 54.741C59.6564 54.7344 59.6529 54.7288 59.6513 54.7256C59.6499 54.7226 59.6499 54.7211 59.6499 54.7207C59.6499 54.7203 59.6499 54.7187 59.6513 54.7157C59.6529 54.7125 59.6564 54.7069 59.6641 54.7004C59.6802 54.6865 59.7093 54.6736 59.7461 54.6736H61.678H62.3533L61.8408 54.2339L61.4087 53.8632C61.4086 53.8632 61.4086 53.8631 61.4085 53.863C61.4011 53.8566 61.3976 53.8511 61.3962 53.848C61.3947 53.8449 61.3947 53.8434 61.3947 53.843C61.3947 53.8426 61.3947 53.841 61.3963 53.8379C61.3978 53.8347 61.4015 53.829 61.4092 53.8225C61.4255 53.8086 61.4547 53.7957 61.4916 53.7959C61.5285 53.796 61.5575 53.809 61.5735 53.8228Z" fill="black" stroke="black" stroke-width="0.5"/>
<path d="M58.5539 55.0076C58.6458 55.0076 58.7338 54.9763 58.7988 54.9206C58.8637 54.8649 58.9002 54.7893 58.9002 54.7105C58.9002 54.6317 58.8637 54.5562 58.7988 54.5005C58.7338 54.4448 58.6458 54.4135 58.5539 54.4135H58.3257C58.2339 54.4135 58.1458 54.4448 58.0809 54.5005C58.016 54.5562 57.9795 54.6317 57.9795 54.7105C57.9795 54.7893 58.016 54.8649 58.0809 54.9206C58.1458 54.9763 58.2339 55.0076 58.3257 55.0076H58.5539Z" fill="black"/>
<path d="M57.5309 54.7376C57.5325 54.699 57.525 54.6606 57.5089 54.6247C57.4928 54.5887 57.4684 54.5558 57.4372 54.5281C57.406 54.5004 57.3686 54.4783 57.3272 54.4633C57.2859 54.4482 57.2414 54.4405 57.1965 54.4405H57.1768C57.1313 54.4405 57.0863 54.4482 57.0443 54.4631C57.0023 54.4781 56.9641 54.4999 56.932 54.5275C56.8998 54.5551 56.8743 54.5879 56.8569 54.6239C56.8395 54.6599 56.8306 54.6986 56.8306 54.7376C56.8306 54.7766 56.8395 54.8152 56.8569 54.8512C56.8743 54.8873 56.8998 54.92 56.932 54.9476C56.9641 54.9752 57.0023 54.9971 57.0443 55.012C57.0863 55.0269 57.1313 55.0346 57.1768 55.0346C57.2691 55.0338 57.3574 55.0024 57.4234 54.9471C57.4893 54.8917 57.5279 54.8167 57.5309 54.7376V54.7376Z" fill="black"/>
<path d="M60.8596 57.9038V58.0354C60.8724 58.3713 60.7298 58.6979 60.4629 58.9439C60.1961 59.1899 59.8267 59.3353 59.4353 59.3485H51.7785C51.2254 59.3318 50.7025 59.1278 50.3242 58.7811C49.9459 58.4344 49.7431 57.9734 49.7601 57.4987C49.7463 57.0258 49.9505 56.5673 50.3284 56.2229C50.7064 55.8784 51.2275 55.6758 51.7785 55.6591H52.4199L52.4553 55.362C52.5427 54.6356 52.935 53.9612 53.5589 53.4644C54.1829 52.9676 54.996 52.6823 55.8469 52.6616H55.8784C56.378 52.6693 56.8693 52.7731 57.316 52.9653C57.7627 53.1575 58.1535 53.4332 58.4595 53.7722H59.392C59.0341 53.2434 58.5236 52.8027 57.9096 52.4923C57.2956 52.1819 56.5988 52.0124 55.8863 52H55.843C54.8658 52.0192 53.9262 52.3263 53.1818 52.8696C52.4373 53.413 51.9335 54.1596 51.7549 54.984C51.0042 55.0086 50.2948 55.2853 49.7796 55.7544C49.2644 56.2236 48.9847 56.8476 49.0007 57.492C48.9838 58.1412 49.2675 58.7696 49.7896 59.2397C50.3118 59.7098 51.0298 59.9832 51.7864 60H59.4471C59.7426 59.9939 60.0339 59.9378 60.3042 59.8351C60.5746 59.7324 60.8186 59.5849 61.0225 59.4012C61.2264 59.2175 61.3861 59.0012 61.4925 58.7645C61.5989 58.5278 61.6499 58.2755 61.6426 58.0219C61.6452 57.9781 61.6452 57.9341 61.6426 57.8903L60.8596 57.9038Z" fill="black" stroke="black" stroke-width="0.5"/>
</svg>
