<svg width="72" height="72" viewBox="0 0 72 72" fill="none" xmlns="http://www.w3.org/2000/svg">
<rect x="20" y="20.2754" width="30" height="30.4348" rx="5" stroke="#0066CC" stroke-width="2"/>
<path d="M36.5556 27.4179C36.5556 26.8349 36.083 26.3623 35.5 26.3623V26.3623C34.917 26.3623 34.4444 26.8349 34.4444 27.4179V36.0153C34.4444 36.5983 34.917 37.0709 35.5 37.0709V37.0709C36.083 37.0709 36.5556 36.5983 36.5556 36.0153V27.4179ZM42.3637 29.3641C41.984 28.9627 41.3524 28.9919 40.9645 29.3855V29.3855C40.5303 29.826 40.5755 30.5415 40.9882 31.0022C42.1695 32.3206 42.8889 34.0736 42.8889 36C42.8889 40.1442 39.585 43.496 35.5 43.496C31.415 43.496 28.1111 40.1442 28.1111 36C28.1111 34.0694 28.8336 32.3129 30.0137 30.9875C30.4217 30.5292 30.464 29.8201 30.0332 29.3832V29.3832C29.6466 28.9909 29.0171 28.9618 28.6385 29.3618C27.0039 31.0883 26 33.4199 26 36C26 41.3221 30.2539 45.6377 35.5 45.6377C40.7461 45.6377 45 41.3221 45 36C45 33.4211 43.997 31.0904 42.3637 29.3641Z" fill="#0066CC"/>
<rect x="24" y="14.1884" width="1.0002" height="6.08696" rx="0.500102" stroke="#0066CC"/>
<rect x="24" y="50.7101" width="1.0002" height="6.08696" rx="0.500102" stroke="#0066CC"/>
<rect x="49.9995" y="25.3478" width="1.01449" height="6" rx="0.507246" transform="rotate(-90 49.9995 25.3478)" stroke="#0066CC"/>
<rect x="14" y="25.3478" width="1.01449" height="6" rx="0.507246" transform="rotate(-90 14 25.3478)" stroke="#0066CC"/>
<rect x="45" y="14.1884" width="1.0002" height="6.08696" rx="0.500102" stroke="#0066CC"/>
<rect x="45" y="50.7101" width="1.0002" height="6.08696" rx="0.500102" stroke="#0066CC"/>
<rect x="49.9995" y="46.6522" width="1.01449" height="6" rx="0.507246" transform="rotate(-90 49.9995 46.6522)" stroke="#0066CC"/>
<rect x="14" y="46.6522" width="1.01449" height="6" rx="0.507246" transform="rotate(-90 14 46.6522)" stroke="#0066CC"/>
<rect x="30.9995" y="14.1884" width="1.0002" height="6.08696" rx="0.500102" stroke="#0066CC"/>
<rect x="30.9995" y="50.7101" width="1.0002" height="10.1449" rx="0.500102" stroke="#0066CC"/>
<rect x="49.9995" y="39.5507" width="1.01449" height="6" rx="0.507246" transform="rotate(-90 49.9995 39.5507)" stroke="#0066CC"/>
<rect x="10" y="39.5507" width="1.01449" height="10" rx="0.507246" transform="rotate(-90 10 39.5507)" stroke="#0066CC"/>
<rect x="37.9995" y="10.1304" width="1.0002" height="10.1449" rx="0.500102" stroke="#0066CC"/>
<rect x="37.9995" y="50.7101" width="1.0002" height="6.08696" rx="0.500102" stroke="#0066CC"/>
<rect x="49.9995" y="32.4493" width="1.01449" height="10" rx="0.507246" transform="rotate(-90 49.9995 32.4493)" stroke="#0066CC"/>
<rect x="14" y="32.4493" width="1.01449" height="6" rx="0.507246" transform="rotate(-90 14 32.4493)" stroke="#0066CC"/>
<rect x="37.9995" y="10.1304" width="13" height="1.01449" rx="0.507246" stroke="#0066CC"/>
<ellipse cx="61" cy="11.1449" rx="10" ry="10.1449" stroke="#0066CC" stroke-width="2"/>
<ellipse cx="59.5" cy="58.3188" rx="7.5" ry="7.6087" stroke="#0066CC" stroke-width="2"/>
<ellipse cx="10.5" cy="11.6522" rx="7.5" ry="7.6087" stroke="#0066CC" stroke-width="2"/>
<path d="M6.38116 9.78816C6.15563 10.002 6.15708 10.3555 6.36448 10.587V10.587C6.60659 10.8572 7.0285 10.8539 7.30215 10.6156C9.17693 8.98334 11.8228 8.98328 13.6977 10.6155C13.9714 10.8538 14.3935 10.8571 14.6357 10.5868V10.5868C14.843 10.3554 14.8446 10.002 14.6193 9.78806C12.2511 7.53921 8.75261 7.53924 6.38116 9.78816ZM9.93825 13.369C9.5028 13.5353 9.50817 14.0959 9.8192 14.443V14.443C10.1825 14.8485 10.818 14.8479 11.1813 14.4424V14.4424C11.4921 14.0956 11.4987 13.535 11.0637 13.3688C10.7 13.2298 10.3027 13.2299 9.93825 13.369ZM8.02651 11.624C7.79095 11.8269 7.79351 12.182 8.00094 12.4135V12.4135C8.243 12.6837 8.6642 12.6767 8.96109 12.4683C9.8984 11.8102 11.1012 11.8101 12.0386 12.468C12.3357 12.6766 12.7571 12.6836 12.9993 12.4133V12.4133C13.2067 12.1818 13.2095 11.8269 12.9742 11.6239C11.5228 10.3716 9.48075 10.3717 8.02651 11.624Z" fill="#0066CC"/>
<ellipse cx="11" cy="60.8551" rx="10" ry="10.1449" stroke="#0066CC" stroke-width="2"/>
<path d="M10.6685 53.8688C10.5122 53.9245 10.4146 54.3148 10.4146 54.8724C10.4146 55.3742 10.356 55.7831 10.2779 55.7831C10.1998 55.7831 9.84823 55.5229 9.51623 55.2069C8.85222 54.5936 8.36397 54.575 8.12962 55.1512C8.0515 55.3556 8.40303 55.8017 9.22328 56.6008C10.5904 57.9204 10.7661 58.5337 9.90682 59.0727C9.12563 59.5559 8.46162 59.0913 8.01244 57.6974C7.4656 56.0061 7.3289 55.7831 6.89924 55.7831C6.37194 55.7831 6.23523 56.192 6.46959 57.0841C6.56724 57.4929 6.62582 57.8275 6.56724 57.8275C6.52818 57.8275 6.15711 57.6416 5.74699 57.4186C4.28225 56.6194 3.75495 57.6416 5.20015 58.5151L6.0204 59.0169L5.16109 59.2214C4.12602 59.463 3.73542 59.909 4.18461 60.3551C4.47755 60.6339 4.63379 60.6153 6.03993 60.2436C7.28984 59.9276 7.6609 59.8905 8.11009 60.0763C8.55927 60.2436 8.65692 60.4108 8.65692 60.9126C8.65692 61.4145 8.53974 61.5817 8.11009 61.8047C7.60231 62.0649 7.40701 62.0464 6.03993 61.6932C4.67285 61.3215 4.51661 61.3215 4.22367 61.6003C3.75495 62.0464 4.0479 62.4367 5.06344 62.7154L6.00087 62.9756L5.18062 63.4031C4.59473 63.719 4.36037 63.9607 4.36037 64.258C4.36037 64.8528 4.84862 64.9457 5.72746 64.5182C6.15711 64.3138 6.52818 64.1465 6.58677 64.1465C6.62582 64.1465 6.56724 64.481 6.46959 64.8899C6.23523 65.782 6.35241 66.1909 6.87971 66.1909C7.36796 66.1909 7.52419 65.9121 7.97338 64.2952C8.26632 63.2544 8.40303 63.0128 8.87175 62.8269C9.34046 62.6597 9.51623 62.6597 9.92635 62.9199C10.7661 63.4403 10.5904 64.0908 9.24281 65.3546C8.59833 65.9679 8.07103 66.5626 8.07103 66.6927C8.07103 66.8228 8.24679 67.0087 8.48115 67.1388C8.83269 67.306 8.98892 67.2503 9.51623 66.7671C9.86776 66.4511 10.1998 66.1909 10.2584 66.1909C10.3365 66.1909 10.4146 66.5812 10.4537 67.0644C10.5122 67.8822 10.5513 67.9565 11.0005 67.9565C11.4497 67.9565 11.4887 67.8822 11.5473 67.0644C11.5864 66.5812 11.6645 66.1909 11.7426 66.1909C11.8012 66.1909 12.1527 66.4511 12.4847 66.7671C13.1488 67.3804 13.637 67.399 13.8714 66.8228C13.9495 66.6184 13.5979 66.1723 12.7777 65.3731C11.4301 64.0722 11.2348 63.4403 12.0746 62.9199C12.8558 62.4367 13.6761 62.8455 13.93 63.8491C14.4573 65.782 14.6135 66.098 15.0627 66.1537C15.629 66.2281 15.8048 65.782 15.5509 64.8528C15.4337 64.4625 15.3947 64.1465 15.4337 64.1465C15.4728 64.1465 15.8439 64.3138 16.2735 64.5182C17.1524 64.9457 17.6406 64.8528 17.6406 64.258C17.6406 63.9607 17.4062 63.719 16.8204 63.4031L16.0001 62.9756L16.9375 62.7154C17.9531 62.4367 18.246 62.0464 17.7773 61.6003C17.5039 61.3401 17.3281 61.3401 15.961 61.6932C14.6135 62.0464 14.4182 62.0649 13.9104 61.8047C13.1488 61.433 13.1292 60.5781 13.8323 60.1321C14.301 59.8347 14.4182 59.8347 15.922 60.225C17.3672 60.6153 17.5234 60.6153 17.8164 60.3551C18.2656 59.909 17.875 59.463 16.8399 59.2214L15.9806 59.0169L16.8204 58.5151C18.246 57.6416 17.7187 56.6194 16.254 57.4186C15.8439 57.6416 15.4728 57.8275 15.4337 57.8275C15.3947 57.8275 15.4337 57.5115 15.5509 57.1212C15.8048 56.2477 15.6486 55.7831 15.1017 55.7831C14.6526 55.7831 14.4963 56.0619 14.0276 57.6788C13.637 59.0541 13.0121 59.5373 12.2113 59.0727C11.2544 58.5337 11.3911 57.9204 12.7777 56.6008C13.5979 55.8017 13.9495 55.3556 13.8714 55.1512C13.637 54.575 13.1488 54.5936 12.4847 55.2069C12.1527 55.5229 11.8012 55.7831 11.7231 55.7831C11.645 55.7831 11.5864 55.3742 11.5864 54.8724C11.5864 54.2219 11.5083 53.9245 11.2739 53.8502C11.0981 53.7944 10.9614 53.7387 10.9419 53.7573C10.9224 53.7573 10.7857 53.813 10.6685 53.8688ZM11.5473 60.1692C12.1723 60.5781 12.1332 61.4888 11.4887 61.7676C10.3169 62.2694 9.39905 60.8569 10.4537 60.1692C10.688 60.002 10.9419 59.8719 11.0005 59.8719C11.0591 59.8719 11.313 60.002 11.5473 60.1692Z" fill="#0066CC"/>
<rect x="59" y="31.4348" width="1.0002" height="19.2754" rx="0.500102" stroke="#0066CC"/>
<rect x="21.0005" y="59.8406" width="11" height="1.01449" rx="0.507246" stroke="#0066CC"/>
<rect x="10" y="19.2609" width="1.0002" height="20.2899" rx="0.500102" stroke="#0066CC"/>
<path d="M61.3753 4.04348C60.2149 4.04348 59.102 4.51113 58.2815 5.34354C57.461 6.17595 57 7.30495 57 8.48216C57.005 9.18654 57.182 9.87868 57.5152 10.4967C57.8484 11.1146 58.3274 11.6392 58.9094 12.0233L59.6252 13.8086C59.5091 13.8086 59.3978 13.8553 59.3158 13.9386C59.2337 14.0218 59.1876 14.1347 59.1876 14.2525C59.1876 14.3702 59.2337 14.4831 59.3158 14.5663C59.3978 14.6496 59.5091 14.6963 59.6252 14.6963C59.5091 14.6963 59.3978 14.7431 59.3158 14.8263C59.2337 14.9096 59.1876 15.0225 59.1876 15.1402C59.1876 15.2579 59.2337 15.3708 59.3158 15.4541C59.3978 15.5373 59.5091 15.5841 59.6252 15.5841C59.5091 15.5841 59.3978 15.6308 59.3158 15.7141C59.2337 15.7973 59.1876 15.9102 59.1876 16.0279C59.1876 16.1456 59.2337 16.2585 59.3158 16.3418C59.3978 16.425 59.5091 16.4718 59.6252 16.4718C59.5091 16.4718 59.3978 16.5186 59.3158 16.6018C59.2337 16.685 59.1876 16.7979 59.1876 16.9157C59.1876 17.0334 59.2337 17.1463 59.3158 17.2295C59.3978 17.3128 59.5091 17.3595 59.6252 17.3595H59.9839C60.2832 17.8478 60.7846 18.1842 61.3674 18.2464C61.6507 18.2182 61.9239 18.1242 62.1658 17.9719C62.4076 17.8195 62.6117 17.6127 62.7622 17.3675L63.1254 17.3595C63.2414 17.3595 63.3527 17.3128 63.4348 17.2295C63.5168 17.1463 63.5629 17.0334 63.5629 16.9157C63.5629 16.7979 63.5168 16.685 63.4348 16.6018C63.3527 16.5186 63.2414 16.4718 63.1254 16.4718C63.2414 16.4718 63.3527 16.425 63.4348 16.3418C63.5168 16.2585 63.5629 16.1456 63.5629 16.0279C63.5629 15.9102 63.5168 15.7973 63.4348 15.7141C63.3527 15.6308 63.2414 15.5841 63.1254 15.5841C63.2414 15.5841 63.3527 15.5373 63.4348 15.4541C63.5168 15.3708 63.5629 15.2579 63.5629 15.1402C63.5629 15.0225 63.5168 14.9096 63.4348 14.8263C63.3527 14.7431 63.2414 14.6963 63.1254 14.6963C63.2414 14.6963 63.3527 14.6496 63.4348 14.5663C63.5168 14.4831 63.5629 14.3702 63.5629 14.2525C63.5629 14.1347 63.5168 14.0218 63.4348 13.9386C63.3527 13.8553 63.2414 13.8086 63.1254 13.8086L63.8254 12.0331C64.4112 11.6498 64.8938 11.1247 65.2298 10.5052C65.5658 9.88563 65.7448 9.19106 65.7505 8.48394C65.7507 7.90093 65.6376 7.3236 65.4178 6.78492C65.198 6.24624 64.8757 5.75676 64.4694 5.34443C64.0631 4.93209 63.5808 4.60498 63.0499 4.38176C62.519 4.15854 61.95 4.0436 61.3753 4.04348V4.04348ZM63.3441 11.3318L63.1254 11.4827L63.0291 11.7402L62.2503 13.6399C62.2323 13.6889 62.2001 13.7313 62.1579 13.7614C62.1158 13.7915 62.0656 13.8079 62.0141 13.8086H60.6927C60.6492 13.8002 60.6086 13.7803 60.575 13.751C60.5414 13.7218 60.5159 13.6841 60.5011 13.6417L59.7389 11.7402L59.6252 11.4827L59.4064 11.3229C58.9434 11.0114 58.562 10.5902 58.2952 10.0957C58.0284 9.60129 57.8842 9.04842 57.8751 8.48483C57.8749 8.01851 57.9652 7.55672 58.141 7.12584C58.3167 6.69495 58.5744 6.3034 58.8993 5.97354C59.5555 5.30736 60.4456 4.9329 61.374 4.93255C62.3023 4.9322 63.1927 5.30597 63.8494 5.97165C64.506 6.63734 64.8751 7.54039 64.8755 8.48216C64.8689 9.04538 64.7271 9.59849 64.4624 10.0936C64.1977 10.5887 63.8181 11.011 63.3564 11.3238L63.3441 11.3318Z" fill="#0066CC"/>
<path d="M61.4637 8.07429L61.8837 6.07246L60.0005 8.70798L61.2878 9.14318L60.8678 11.1449L62.751 8.50945L61.4637 8.07429Z" fill="#0066CC"/>
<path d="M62.8687 57.4489C62.5571 55.9177 61.1683 54.7681 59.5 54.7681C58.1754 54.7681 57.025 55.496 56.4521 56.5612C55.0725 56.7033 54 57.8351 54 59.2065C54 60.6756 55.2329 61.8696 56.75 61.8696H62.7083C63.9733 61.8696 65 60.8754 65 59.6504C65 58.4786 64.0604 57.5288 62.8687 57.4489ZM62.7083 60.9819H56.75C55.7371 60.9819 54.9167 60.1874 54.9167 59.2065C54.9167 58.2256 55.7371 57.4312 56.75 57.4312H57.0754C57.3779 56.4059 58.345 55.6558 59.5 55.6558C60.8933 55.6558 62.0208 56.7476 62.0208 58.0969V58.3188H62.7083C63.4692 58.3188 64.0833 58.9136 64.0833 59.6504C64.0833 60.3871 63.4692 60.9819 62.7083 60.9819Z" fill="#0066CC"/>
<path fill-rule="evenodd" clip-rule="evenodd" d="M57.042 58.7233C57.0552 58.7098 57.071 58.6991 57.0884 58.6918C57.1057 58.6845 57.1243 58.6807 57.1431 58.6807C57.1619 58.6807 57.1805 58.6845 57.1979 58.6918C57.2152 58.6991 57.231 58.7098 57.2443 58.7233L58.0002 59.4904L58.7562 58.7233C58.7831 58.6961 58.8194 58.6808 58.8574 58.6808C58.8953 58.6808 58.9317 58.6961 58.9585 58.7233C58.9853 58.7505 59.0004 58.7874 59.0004 58.8259C59.0004 58.8643 58.9853 58.9012 58.9585 58.9284L58.1014 59.7978C58.0881 59.8113 58.0723 59.822 58.055 59.8293C58.0376 59.8366 58.019 59.8404 58.0002 59.8404C57.9815 59.8404 57.9628 59.8366 57.9455 59.8293C57.9281 59.822 57.9124 59.8113 57.8991 59.7978L57.042 58.9284C57.0287 58.915 57.0181 58.899 57.0109 58.8814C57.0037 58.8638 57 58.8449 57 58.8259C57 58.8068 57.0037 58.7879 57.0109 58.7703C57.0181 58.7527 57.0287 58.7367 57.042 58.7233V58.7233Z" fill="#0066CC"/>
<path fill-rule="evenodd" clip-rule="evenodd" d="M58.0008 57.8116C58.0387 57.8116 58.075 57.8269 58.1018 57.854C58.1286 57.8812 58.1436 57.9181 58.1436 57.9565V59.4055C58.1436 59.4439 58.1286 59.4807 58.1018 59.5079C58.075 59.5351 58.0387 59.5503 58.0008 59.5503C57.9629 59.5503 57.9265 59.5351 57.8998 59.5079C57.873 59.4807 57.8579 59.4439 57.8579 59.4055V57.9565C57.8579 57.9181 57.873 57.8812 57.8998 57.854C57.9265 57.8269 57.9629 57.8116 58.0008 57.8116V57.8116Z" fill="#0066CC"/>
<path fill-rule="evenodd" clip-rule="evenodd" d="M61.9575 58.9287C61.9443 58.9422 61.9285 58.9529 61.9112 58.9602C61.8938 58.9675 61.8752 58.9713 61.8564 58.9713C61.8376 58.9713 61.819 58.9675 61.8016 58.9602C61.7843 58.9529 61.7685 58.9422 61.7553 58.9287L60.9993 58.1616L60.2433 58.9287C60.2165 58.9559 60.1801 58.9712 60.1421 58.9712C60.1042 58.9712 60.0678 58.9559 60.041 58.9287C60.0142 58.9015 59.9991 58.8646 59.9991 58.8261C59.9991 58.7877 60.0142 58.7507 60.041 58.7235L60.8981 57.8542C60.9114 57.8407 60.9272 57.83 60.9445 57.8227C60.9619 57.8154 60.9805 57.8116 60.9993 57.8116C61.0181 57.8116 61.0367 57.8154 61.054 57.8227C61.0714 57.83 61.0871 57.8407 61.1004 57.8542L61.9575 58.7235C61.9708 58.737 61.9814 58.753 61.9886 58.7706C61.9958 58.7882 61.9995 58.8071 61.9995 58.8261C61.9995 58.8452 61.9958 58.8641 61.9886 58.8817C61.9814 58.8993 61.9708 58.9153 61.9575 58.9287V58.9287Z" fill="#0066CC"/>
<path fill-rule="evenodd" clip-rule="evenodd" d="M60.9992 59.8404C60.9613 59.8404 60.925 59.8251 60.8982 59.798C60.8714 59.7708 60.8564 59.7339 60.8564 59.6955V58.2465C60.8564 58.2081 60.8714 58.1713 60.8982 58.1441C60.925 58.1169 60.9613 58.1016 60.9992 58.1016C61.0371 58.1016 61.0735 58.1169 61.1002 58.1441C61.127 58.1713 61.1421 58.2081 61.1421 58.2465V59.6955C61.1421 59.7339 61.127 59.7708 61.1002 59.798C61.0735 59.8251 61.0371 59.8404 60.9992 59.8404V59.8404Z" fill="#0066CC"/>
</svg>
