<svg width="69" height="73" viewBox="0 0 69 73" fill="none" xmlns="http://www.w3.org/2000/svg">
<path d="M28.2 27.6H37.8C38.7548 27.6 39.6705 27.9793 40.3456 28.6544C41.0207 29.3295 41.4 30.2452 41.4 31.2V40.8C41.4 41.7548 41.0207 42.6705 40.3456 43.3456C39.6705 44.0207 38.7548 44.4 37.8 44.4H28.2C27.2452 44.4 26.3295 44.0207 25.6544 43.3456C24.9793 42.6705 24.6 41.7548 24.6 40.8V31.2C24.6 30.2452 24.9793 29.3295 25.6544 28.6544C26.3295 27.9793 27.2452 27.6 28.2 27.6ZM28.2 30C27.8817 30 27.5765 30.1264 27.3515 30.3515C27.1264 30.5765 27 30.8817 27 31.2V40.8C27 41.1183 27.1264 41.4235 27.3515 41.6485C27.5765 41.8736 27.8817 42 28.2 42H37.8C38.1183 42 38.4235 41.8736 38.6485 41.6485C38.8736 41.4235 39 41.1183 39 40.8V31.2C39 30.8817 38.8736 30.5765 38.6485 30.3515C38.4235 30.1264 38.1183 30 37.8 30H28.2ZM28.2 24C28.5183 24 28.8235 24.1264 29.0485 24.3515C29.2736 24.5765 29.4 24.8817 29.4 25.2V27.6C29.4 27.9183 29.2736 28.2235 29.0485 28.4485C28.8235 28.6736 28.5183 28.8 28.2 28.8C27.8817 28.8 27.5765 28.6736 27.3515 28.4485C27.1264 28.2235 27 27.9183 27 27.6V25.2C27 24.8817 27.1264 24.5765 27.3515 24.3515C27.5765 24.1264 27.8817 24 28.2 24ZM13.2 30H24.6C24.9183 30 25.2235 30.1264 25.4485 30.3515C25.6736 30.5765 25.8 30.8817 25.8 31.2C25.8 31.5183 25.6736 31.8235 25.4485 32.0485C25.2235 32.2736 24.9183 32.4 24.6 32.4H13.2C12.8817 32.4 12.5765 32.2736 12.3515 32.0485C12.1264 31.8235 12 31.5183 12 31.2C12 30.8817 12.1264 30.5765 12.3515 30.3515C12.5765 30.1264 12.8817 30 13.2 30ZM41.4 30H43.8C44.1183 30 44.4235 30.1264 44.6485 30.3515C44.8736 30.5765 45 30.8817 45 31.2C45 31.5183 44.8736 31.8235 44.6485 32.0485C44.4235 32.2736 44.1183 32.4 43.8 32.4H41.4C41.0817 32.4 40.7765 32.2736 40.5515 32.0485C40.3264 31.8235 40.2 31.5183 40.2 31.2C40.2 30.8817 40.3264 30.5765 40.5515 30.3515C40.7765 30.1264 41.0817 30 41.4 30ZM14.2 34.8H24.6C24.9183 34.8 25.2235 34.9264 25.4485 35.1515C25.6736 35.3765 25.8 35.6817 25.8 36C25.8 36.3183 25.6736 36.6235 25.4485 36.8485C25.2235 37.0736 24.9183 37.2 24.6 37.2H14.2C13.8817 37.2 13.5765 37.0736 13.3515 36.8485C13.1264 36.6235 13 36.3183 13 36C13 35.6817 13.1264 35.3765 13.3515 35.1515C13.5765 34.9264 13.8817 34.8 14.2 34.8ZM41.4 34.8H52.8C53.1183 34.8 53.4235 34.9264 53.6485 35.1515C53.8736 35.3765 54 35.6817 54 36C54 36.3183 53.8736 36.6235 53.6485 36.8485C53.4235 37.0736 53.1183 37.2 52.8 37.2H41.4C41.0817 37.2 40.7765 37.0736 40.5515 36.8485C40.3264 36.6235 40.2 36.3183 40.2 36C40.2 35.6817 40.3264 35.3765 40.5515 35.1515C40.7765 34.9264 41.0817 34.8 41.4 34.8ZM22.2 39.6H24.6C24.9183 39.6 25.2235 39.7264 25.4485 39.9515C25.6736 40.1765 25.8 40.4817 25.8 40.8C25.8 41.1183 25.6736 41.4235 25.4485 41.6485C25.2235 41.8736 24.9183 42 24.6 42H22.2C21.8817 42 21.5765 41.8736 21.3515 41.6485C21.1264 41.4235 21 41.1183 21 40.8C21 40.4817 21.1264 40.1765 21.3515 39.9515C21.5765 39.7264 21.8817 39.6 22.2 39.6ZM41.4 39.6H43.8C44.1183 39.6 44.4235 39.7264 44.6485 39.9515C44.8736 40.1765 45 40.4817 45 40.8C45 41.1183 44.8736 41.4235 44.6485 41.6485C44.4235 41.8736 44.1183 42 43.8 42H41.4C41.0817 42 40.7765 41.8736 40.5515 41.6485C40.3264 41.4235 40.2 41.1183 40.2 40.8C40.2 40.4817 40.3264 40.1765 40.5515 39.9515C40.7765 39.7264 41.0817 39.6 41.4 39.6ZM28.2 43.2C28.5183 43.2 28.8235 43.3264 29.0485 43.5515C29.2736 43.7765 29.4 44.0817 29.4 44.4V46.8C29.4 47.1183 29.2736 47.4235 29.0485 47.6485C28.8235 47.8736 28.5183 48 28.2 48C27.8817 48 27.5765 47.8736 27.3515 47.6485C27.1264 47.4235 27 47.1183 27 46.8V44.4C27 44.0817 27.1264 43.7765 27.3515 43.5515C27.5765 43.3264 27.8817 43.2 28.2 43.2ZM37.8 12C38.1183 12 38.4235 12.1264 38.6485 12.3515C38.8736 12.5765 39 12.8817 39 13.2V27.6C39 27.9183 38.8736 28.2235 38.6485 28.4485C38.4235 28.6736 38.1183 28.8 37.8 28.8C37.4817 28.8 37.1765 28.6736 36.9515 28.4485C36.7264 28.2235 36.6 27.9183 36.6 27.6V13.2C36.6 12.8817 36.7264 12.5765 36.9515 12.3515C37.1765 12.1264 37.4817 12 37.8 12ZM37.8 43.2C38.1183 43.2 38.4235 43.3264 38.6485 43.5515C38.8736 43.7765 39 44.0817 39 44.4V46.8C39 47.1183 38.8736 47.4235 38.6485 47.6485C38.4235 47.8736 38.1183 48 37.8 48C37.4817 48 37.1765 47.8736 36.9515 47.6485C36.7264 47.4235 36.6 47.1183 36.6 46.8V44.4C36.6 44.0817 36.7264 43.7765 36.9515 43.5515C37.1765 43.3264 37.4817 43.2 37.8 43.2ZM33 24C33.3183 24 33.6235 24.1264 33.8485 24.3515C34.0736 24.5765 34.2 24.8817 34.2 25.2V27.6C34.2 27.9183 34.0736 28.2235 33.8485 28.4485C33.6235 28.6736 33.3183 28.8 33 28.8C32.6817 28.8 32.3765 28.6736 32.1515 28.4485C31.9264 28.2235 31.8 27.9183 31.8 27.6V25.2C31.8 24.8817 31.9264 24.5765 32.1515 24.3515C32.3765 24.1264 32.6817 24 33 24ZM33 43.2C33.3183 43.2 33.6235 43.3264 33.8485 43.5515C34.0736 43.7765 34.2 44.0817 34.2 44.4V51.8C34.2 52.1183 34.0736 52.4235 33.8485 52.6485C33.6235 52.8736 33.3183 53 33 53C32.6817 53 32.3765 52.8736 32.1515 52.6485C31.9264 52.4235 31.8 52.1183 31.8 51.8V44.4C31.8 44.0817 31.9264 43.7765 32.1515 43.5515C32.3765 43.3264 32.6817 43.2 33 43.2Z" fill="black"/>
<path d="M33.4444 32.4444C33.4444 32.199 33.2455 32 33 32C32.7545 32 32.5556 32.199 32.5556 32.4444V36C32.5556 36.2455 32.7545 36.4444 33 36.4444C33.2455 36.4444 33.4444 36.2455 33.4444 36V32.4444ZM35.8855 33.2412C35.7271 33.0767 35.4668 33.0888 35.3053 33.2502C35.121 33.4346 35.14 33.737 35.3149 33.9303C35.8099 34.4769 36.1111 35.2027 36.1111 36C36.1111 37.72 34.72 39.1111 33 39.1111C31.28 39.1111 29.8889 37.72 29.8889 36C29.8889 35.2009 30.1914 34.4737 30.6859 33.9242C30.8589 33.7319 30.8766 33.4322 30.6937 33.2493C30.5328 33.0884 30.2733 33.0764 30.1154 33.2402C29.4245 33.9572 29 34.9268 29 36C29 38.2089 30.7911 40 33 40C35.2089 40 37 38.2089 37 36C37 34.9273 36.5758 33.9581 35.8855 33.2412Z" fill="black" stroke="black" stroke-width="0.2"/>
<path d="M37 13C37 12.4477 37.4477 12 38 12H43C43.5523 12 44 12.4477 44 13C44 13.5523 43.5523 14 43 14H38C37.4477 14 37 13.5523 37 13Z" fill="black"/>
<circle cx="55.5" cy="13.5" r="12.5" stroke="black" stroke-width="2"/>
<path d="M55.5 5C54.0413 5 52.6424 5.55974 51.6109 6.55609C50.5795 7.55244 50 8.90378 50 10.3128C50.0062 11.1559 50.2287 11.9844 50.6476 12.7241C51.0665 13.4637 51.6686 14.0916 52.4002 14.5514L53.3 16.6882C53.1541 16.6882 53.0142 16.7442 52.9111 16.8438C52.8079 16.9435 52.75 17.0786 52.75 17.2195C52.75 17.3604 52.8079 17.4956 52.9111 17.5952C53.0142 17.6948 53.1541 17.7508 53.3 17.7508C53.1541 17.7508 53.0142 17.8068 52.9111 17.9064C52.8079 18.006 52.75 18.1412 52.75 18.2821C52.75 18.423 52.8079 18.5581 52.9111 18.6578C53.0142 18.7574 53.1541 18.8134 53.3 18.8134C53.1541 18.8134 53.0142 18.8693 52.9111 18.969C52.8079 19.0686 52.75 19.2037 52.75 19.3446C52.75 19.4856 52.8079 19.6207 52.9111 19.7203C53.0142 19.82 53.1541 19.8759 53.3 19.8759C53.1541 19.8759 53.0142 19.9319 52.9111 20.0315C52.8079 20.1312 52.75 20.2663 52.75 20.4072C52.75 20.5481 52.8079 20.6833 52.9111 20.7829C53.0142 20.8825 53.1541 20.9385 53.3 20.9385H53.751C54.1272 21.5229 54.7575 21.9256 55.4901 22C55.8463 21.9662 56.1897 21.8538 56.4937 21.6714C56.7977 21.489 57.0543 21.2415 57.2435 20.9481L57.7 20.9385C57.8459 20.9385 57.9858 20.8825 58.0889 20.7829C58.1921 20.6833 58.25 20.5481 58.25 20.4072C58.25 20.2663 58.1921 20.1312 58.0889 20.0315C57.9858 19.9319 57.8459 19.8759 57.7 19.8759C57.8459 19.8759 57.9858 19.82 58.0889 19.7203C58.1921 19.6207 58.25 19.4856 58.25 19.3446C58.25 19.2037 58.1921 19.0686 58.0889 18.969C57.9858 18.8693 57.8459 18.8134 57.7 18.8134C57.8459 18.8134 57.9858 18.7574 58.0889 18.6578C58.1921 18.5581 58.25 18.423 58.25 18.2821C58.25 18.1412 58.1921 18.006 58.0889 17.9064C57.9858 17.8068 57.8459 17.7508 57.7 17.7508C57.8459 17.7508 57.9858 17.6948 58.0889 17.5952C58.1921 17.4956 58.25 17.3604 58.25 17.2195C58.25 17.0786 58.1921 16.9435 58.0889 16.8438C57.9858 16.7442 57.8459 16.6882 57.7 16.6882L58.58 14.5631C59.3163 14.1043 59.923 13.4758 60.3454 12.7342C60.7678 11.9927 60.9928 11.1613 61 10.315C61.0001 9.61713 60.858 8.9261 60.5817 8.28134C60.3054 7.63657 59.9003 7.05069 59.3895 6.55716C58.8788 6.06362 58.2725 5.67208 57.6051 5.4049C56.9377 5.13773 56.2224 5.00014 55.5 5V5ZM57.975 13.7237L57.7 13.9043L57.579 14.2125L56.6 16.4863C56.5774 16.545 56.5369 16.5957 56.4839 16.6317C56.4309 16.6678 56.3678 16.6875 56.303 16.6882H54.642C54.5873 16.6781 54.5363 16.6544 54.494 16.6194C54.4517 16.5843 54.4197 16.5392 54.4011 16.4885L53.443 14.2125L53.3 13.9043L53.025 13.713C52.4429 13.3401 51.9636 12.836 51.6282 12.2442C51.2928 11.6524 51.1115 10.9906 51.1 10.316C51.0998 9.75787 51.2134 9.20514 51.4343 8.68939C51.6552 8.17365 51.9791 7.70498 52.3876 7.31016C53.2124 6.51278 54.3314 6.06458 55.4984 6.06416C56.6653 6.06374 57.7846 6.51113 58.6101 7.30791C59.4356 8.10469 59.8996 9.18559 59.9 10.3128C59.8917 10.987 59.7135 11.649 59.3808 12.2416C59.048 12.8343 58.5708 13.3397 57.9904 13.7141L57.975 13.7237Z" fill="black"/>
<path d="M54 13H54.1471L56.9729 9.87548C57 9.84237 57.0068 9.81564 56.9932 9.79526C56.9797 9.77489 56.9493 9.76471 56.9019 9.76471H55.7655L56.9476 8.12223C57.0118 8.04074 56.9797 8 56.8512 8H55.3698C55.2988 8 55.2446 8.02546 55.2074 8.07639L54.0812 10.3109C54.0643 10.3466 54.066 10.3746 54.0862 10.395C54.1065 10.4153 54.1404 10.4255 54.1877 10.4255H55.2937L54 13Z" fill="black"/>
<rect x="12" y="25" width="2" height="7" rx="1" fill="black"/>
<rect x="13" y="35" width="2" height="12" rx="1" fill="black"/>
<circle cx="13" cy="16" r="10" stroke="black" stroke-width="2"/>
<path d="M7.47767 13.4059C7.19132 13.6954 7.19332 14.1551 7.45675 14.4656C7.78888 14.8571 8.3917 14.8527 8.77195 14.5077C11.2575 12.2527 14.7422 12.2527 17.2278 14.5075C17.6082 14.8526 18.2112 14.857 18.5435 14.4653C18.8068 14.1549 18.809 13.6954 18.523 13.4058C15.3548 10.198 10.6502 10.1981 7.47767 13.4059ZM12.2011 18.4384C11.6409 18.6814 11.6534 19.4126 12.0484 19.8783C12.5468 20.4658 13.4539 20.4649 13.9523 19.8775C14.3469 19.4123 14.361 18.6812 13.8015 18.4382C13.2867 18.2146 12.7171 18.2147 12.2011 18.4384ZM9.67068 15.9891C9.37145 16.2654 9.37522 16.7271 9.63869 17.0377C9.97076 17.4291 10.5728 17.4194 10.9892 17.1192C12.2191 16.2325 13.7804 16.2324 15.0104 17.1189C15.4271 17.4191 16.0294 17.4289 16.3617 17.0373C16.625 16.7268 16.6291 16.2654 16.3303 15.9889C14.3828 14.1872 11.622 14.1873 9.67068 15.9891Z" fill="black"/>
<rect x="32" y="51" width="6" height="2" rx="1" fill="black"/>
<circle cx="38" cy="52" r="2" fill="black"/>
<circle cx="13.5" cy="59.5" r="12.5" stroke="black" stroke-width="2"/>
<path d="M21.4109 59.0885H19.4752L20.6535 57.8965C20.8218 57.7262 20.8218 57.4708 20.6535 57.3005C20.4851 57.1302 20.2327 57.1302 20.0644 57.3005L18.297 59.0885H16.9785L17.6799 58.379C17.8482 58.2087 17.8482 57.9533 17.6799 57.783C17.5116 57.6127 17.2591 57.6127 17.0908 57.783L15.8003 59.0885H14.4538L16.9785 56.5342H19.4752C19.6997 56.5342 19.896 56.3356 19.896 56.1085C19.896 55.8815 19.6997 55.6828 19.4752 55.6828H17.8201L19.363 54.1219C19.5314 53.9516 19.5314 53.6962 19.363 53.5259C19.1947 53.3556 18.9422 53.3556 18.7739 53.5259L17.231 55.0868V53.4124C17.203 53.1569 17.0347 52.9866 16.7822 52.9866C16.5297 52.9866 16.3614 53.1853 16.3614 53.4124V55.9382L13.8366 58.4925V57.1302L15.1271 55.8247C15.2954 55.6544 15.2954 55.399 15.1271 55.2287C14.9587 55.0584 14.7063 55.0584 14.538 55.2287L13.8366 55.9382V54.6043L15.604 52.8164C15.7723 52.6461 15.7723 52.3907 15.604 52.2204C15.4356 52.0501 15.1832 52.0501 15.0149 52.2204L13.8366 53.4124V51.4257C13.8366 51.1987 13.6403 51 13.4158 51C13.1914 51 12.995 51.1987 12.995 51.4257V53.384L11.8168 52.192C11.6485 52.0217 11.396 52.0217 11.2277 52.192C11.0594 52.3623 11.0594 52.6177 11.2277 52.788L12.995 54.576V55.9098L12.2937 55.2003C12.1254 55.03 11.8729 55.03 11.7046 55.2003C11.5363 55.3706 11.5363 55.626 11.7046 55.7963L12.995 57.1018V58.4641L10.4703 55.9098V53.384C10.4703 53.1569 10.2739 52.9866 10.0495 52.9866C9.82508 52.9866 9.62871 53.1853 9.62871 53.4124V55.0868L8.08581 53.5259C7.91749 53.3556 7.66502 53.3556 7.4967 53.5259C7.32838 53.6962 7.32838 53.9516 7.4967 54.1219L9.0396 55.6828H7.38449C7.13201 55.6828 6.9637 55.8531 6.9637 56.1085C6.9637 56.3639 7.16007 56.5342 7.38449 56.5342H9.88119L12.4059 59.0885H11.0594L9.76898 57.783C9.60066 57.6127 9.34819 57.6127 9.17987 57.783C9.01155 57.9533 9.01155 58.2087 9.17987 58.379L9.88119 59.0885H8.56271L6.79538 57.3005C6.62706 57.1302 6.37459 57.1302 6.20627 57.3005C6.03795 57.4708 6.03795 57.7262 6.20627 57.8965L7.38449 59.0885H5.42079C5.19637 59.0885 5 59.2871 5 59.5142C5 59.7412 5.19637 59.9399 5.42079 59.9399H7.35644L6.17822 61.1319C6.0099 61.3022 6.0099 61.5576 6.17822 61.7279C6.26238 61.813 6.37459 61.8414 6.4868 61.8414C6.59901 61.8414 6.71122 61.813 6.79538 61.7279L8.56271 59.9399H9.88119L9.15182 60.6494C8.9835 60.8197 8.9835 61.0751 9.15182 61.2454C9.23597 61.3306 9.34819 61.3589 9.4604 61.3589C9.57261 61.3589 9.68482 61.3306 9.76898 61.2454L11.0594 59.9399H12.4059L9.88119 62.4942H7.38449C7.13201 62.4942 6.9637 62.6928 6.9637 62.9199C6.9637 63.1469 7.16007 63.3456 7.38449 63.3456H9.0396L7.4967 64.9065C7.32838 65.0768 7.32838 65.3322 7.4967 65.5025C7.58086 65.5876 7.69307 65.616 7.80528 65.616C7.91749 65.616 8.0297 65.5876 8.11386 65.5025L9.65677 63.9416V65.616C9.65677 65.8431 9.85314 66.0417 10.0776 66.0417C10.302 66.0417 10.4984 65.8431 10.4984 65.616V63.0901L13.0231 60.5359V61.8982L11.7046 63.2037C11.5363 63.374 11.5363 63.6294 11.7046 63.7997C11.7888 63.8848 11.901 63.9132 12.0132 63.9132C12.1254 63.9132 12.2376 63.8848 12.3218 63.7997L13.0231 63.0901V64.424L11.2558 66.212C11.0875 66.3823 11.0875 66.6377 11.2558 66.808C11.3399 66.8932 11.4521 66.9215 11.5644 66.9215C11.6766 66.9215 11.7888 66.8932 11.8729 66.808L13.0512 65.616V67.5743C13.0512 67.8013 13.2475 68 13.4719 68C13.6964 68 13.8927 67.8013 13.8927 67.5743V65.616L15.071 66.808C15.1551 66.8932 15.2673 66.9215 15.3795 66.9215C15.4917 66.9215 15.604 66.8932 15.6881 66.808C15.8564 66.6377 15.8564 66.3823 15.6881 66.212L13.9208 64.424V63.0901L14.6221 63.7997C14.7063 63.8848 14.8185 63.9132 14.9307 63.9132C15.0429 63.9132 15.1551 63.8848 15.2393 63.7997C15.4076 63.6294 15.4076 63.374 15.2393 63.2037L13.9488 61.8982V60.5359L16.4736 63.0901V65.616C16.4736 65.8431 16.67 66.0417 16.8944 66.0417C17.1188 66.0417 17.3152 65.8431 17.3152 65.616V63.9416L18.8581 65.5025C18.9422 65.5876 19.0545 65.616 19.1667 65.616C19.2789 65.616 19.3911 65.5876 19.4752 65.5025C19.6436 65.3322 19.6436 65.0768 19.4752 64.9065L17.9323 63.3456H19.5875C19.8119 63.3456 20.0083 63.1469 20.0083 62.9199C20.0083 62.6928 19.8119 62.4942 19.5875 62.4942H17.0908L14.566 59.9399H15.9125L17.203 61.2454C17.2871 61.3306 17.3993 61.3589 17.5116 61.3589C17.6238 61.3589 17.736 61.3306 17.8201 61.2454C17.9885 61.0751 17.9885 60.8197 17.8201 60.6494L17.1188 59.9399H18.4373L20.2046 61.7279C20.2888 61.813 20.401 61.8414 20.5132 61.8414C20.6254 61.8414 20.7376 61.813 20.8218 61.7279C20.9901 61.5576 20.9901 61.3022 20.8218 61.1319L19.6436 59.9399H21.5792C21.8036 59.9399 22 59.7412 22 59.5142C22 59.2871 21.6353 59.0885 21.4109 59.0885Z" fill="black"/>
<path d="M21.4109 59.0885H19.4752L20.6535 57.8965C20.8218 57.7262 20.8218 57.4708 20.6535 57.3005C20.4851 57.1302 20.2327 57.1302 20.0644 57.3005L18.297 59.0885H16.9785L17.6799 58.379C17.8482 58.2087 17.8482 57.9533 17.6799 57.783C17.5116 57.6127 17.2591 57.6127 17.0908 57.783L15.8003 59.0885H14.4538L16.9785 56.5342H19.4752C19.6997 56.5342 19.896 56.3356 19.896 56.1085C19.896 55.8815 19.6997 55.6828 19.4752 55.6828H17.8201L19.363 54.1219C19.5314 53.9516 19.5314 53.6962 19.363 53.5259C19.1947 53.3556 18.9422 53.3556 18.7739 53.5259L17.231 55.0868V53.4124C17.203 53.1569 17.0347 52.9866 16.7822 52.9866C16.5297 52.9866 16.3614 53.1853 16.3614 53.4124V55.9382L13.8366 58.4925V57.1302L15.1271 55.8247C15.2954 55.6544 15.2954 55.399 15.1271 55.2287C14.9587 55.0584 14.7063 55.0584 14.538 55.2287L13.8366 55.9382V54.6043L15.604 52.8164C15.7723 52.6461 15.7723 52.3907 15.604 52.2204C15.4356 52.0501 15.1832 52.0501 15.0149 52.2204L13.8366 53.4124V51.4257C13.8366 51.1987 13.6403 51 13.4158 51C13.1914 51 12.995 51.1987 12.995 51.4257V53.384L11.8168 52.192C11.6485 52.0217 11.396 52.0217 11.2277 52.192C11.0594 52.3623 11.0594 52.6177 11.2277 52.788L12.995 54.576V55.9098L12.2937 55.2003C12.1254 55.03 11.8729 55.03 11.7046 55.2003C11.5363 55.3706 11.5363 55.626 11.7046 55.7963L12.995 57.1018V58.4641L10.4703 55.9098V53.384C10.4703 53.1569 10.2739 52.9866 10.0495 52.9866C9.82508 52.9866 9.62871 53.1853 9.62871 53.4124V55.0868L8.08581 53.5259C7.91749 53.3556 7.66502 53.3556 7.4967 53.5259C7.32838 53.6962 7.32838 53.9516 7.4967 54.1219L9.0396 55.6828H7.38449C7.13201 55.6828 6.9637 55.8531 6.9637 56.1085C6.9637 56.3639 7.16007 56.5342 7.38449 56.5342H9.88119L12.4059 59.0885H11.0594L9.76898 57.783C9.60066 57.6127 9.34818 57.6127 9.17987 57.783C9.01155 57.9533 9.01155 58.2087 9.17987 58.379L9.88119 59.0885H8.56271L6.79538 57.3005C6.62706 57.1302 6.37459 57.1302 6.20627 57.3005C6.03795 57.4708 6.03795 57.7262 6.20627 57.8965L7.38449 59.0885H5.42079C5.19637 59.0885 5 59.2871 5 59.5142C5 59.7412 5.19637 59.9399 5.42079 59.9399H7.35644L6.17822 61.1319C6.0099 61.3022 6.0099 61.5576 6.17822 61.7279C6.26238 61.813 6.37459 61.8414 6.4868 61.8414C6.59901 61.8414 6.71122 61.813 6.79538 61.7279L8.56271 59.9399H9.88119L9.15182 60.6494C8.9835 60.8197 8.9835 61.0751 9.15182 61.2454C9.23597 61.3305 9.34818 61.3589 9.4604 61.3589C9.57261 61.3589 9.68482 61.3305 9.76898 61.2454L11.0594 59.9399H12.4059L9.88119 62.4942H7.38449C7.13201 62.4942 6.9637 62.6928 6.9637 62.9199C6.9637 63.1469 7.16007 63.3456 7.38449 63.3456H9.0396L7.4967 64.9065C7.32838 65.0768 7.32838 65.3322 7.4967 65.5025C7.58086 65.5876 7.69307 65.616 7.80528 65.616C7.91749 65.616 8.0297 65.5876 8.11386 65.5025L9.65677 63.9416V65.616C9.65677 65.8431 9.85314 66.0417 10.0776 66.0417C10.302 66.0417 10.4984 65.8431 10.4984 65.616V63.0901L13.0231 60.5359V61.8982L11.7046 63.2037C11.5363 63.374 11.5363 63.6294 11.7046 63.7997C11.7888 63.8848 11.901 63.9132 12.0132 63.9132C12.1254 63.9132 12.2376 63.8848 12.3218 63.7997L13.0231 63.0901V64.424L11.2558 66.212C11.0875 66.3823 11.0875 66.6377 11.2558 66.808C11.3399 66.8932 11.4521 66.9215 11.5644 66.9215C11.6766 66.9215 11.7888 66.8932 11.8729 66.808L13.0512 65.616V67.5743C13.0512 67.8013 13.2475 68 13.4719 68C13.6964 68 13.8927 67.8013 13.8927 67.5743V65.616L15.071 66.808C15.1551 66.8932 15.2673 66.9215 15.3795 66.9215C15.4917 66.9215 15.604 66.8932 15.6881 66.808C15.8564 66.6377 15.8564 66.3823 15.6881 66.212L13.9208 64.424V63.0901L14.6221 63.7997C14.7063 63.8848 14.8185 63.9132 14.9307 63.9132C15.0429 63.9132 15.1551 63.8848 15.2393 63.7997C15.4076 63.6294 15.4076 63.374 15.2393 63.2037L13.9488 61.8982V60.5359L16.4736 63.0901V65.616C16.4736 65.8431 16.67 66.0417 16.8944 66.0417C17.1188 66.0417 17.3152 65.8431 17.3152 65.616V63.9416L18.8581 65.5025C18.9422 65.5876 19.0545 65.616 19.1667 65.616C19.2789 65.616 19.3911 65.5876 19.4752 65.5025C19.6436 65.3322 19.6436 65.0768 19.4752 64.9065L17.9323 63.3456H19.5875C19.8119 63.3456 20.0083 63.1469 20.0083 62.9199C20.0083 62.6928 19.8119 62.4942 19.5875 62.4942H17.0908L14.566 59.9399H15.9125L17.203 61.2454C17.2871 61.3305 17.3993 61.3589 17.5116 61.3589C17.6238 61.3589 17.736 61.3305 17.8201 61.2454C17.9884 61.0751 17.9884 60.8197 17.8201 60.6494L17.1188 59.9399H18.4373L20.2046 61.7279C20.2888 61.813 20.401 61.8414 20.5132 61.8414C20.6254 61.8414 20.7376 61.813 20.8218 61.7279C20.9901 61.5576 20.9901 61.3022 20.8218 61.1319L19.6436 59.9399H21.5792C21.8036 59.9399 22 59.7412 22 59.5142C22 59.2871 21.6353 59.0885 21.4109 59.0885" stroke="black" stroke-width="0.25"/>
<rect x="52" y="35" width="2" height="12" rx="1" fill="black"/>
<circle cx="53" cy="56" r="10" stroke="black" stroke-width="2"/>
<path d="M56.3566 56.9485C56.3566 56.8698 56.3201 56.7942 56.2551 56.7385C56.1902 56.6828 56.1021 56.6515 56.0103 56.6515H54.0784L54.5112 56.2802C54.5759 56.2242 54.6121 56.1485 54.6117 56.0697C54.6113 55.9909 54.5745 55.9154 54.5093 55.8599C54.444 55.8044 54.3558 55.7734 54.2639 55.7737C54.1721 55.7741 54.0841 55.8057 54.0194 55.8616L52.7564 56.9485L54.0194 58.022C54.0514 58.0497 54.0895 58.0717 54.1315 58.0868C54.1734 58.1018 54.2184 58.1097 54.2639 58.1098C54.3094 58.11 54.3545 58.1025 54.3966 58.0877C54.4387 58.0729 54.477 58.0511 54.5093 58.0237C54.5416 57.9962 54.5672 57.9635 54.5848 57.9275C54.6024 57.8915 54.6115 57.8529 54.6117 57.8139C54.6119 57.7748 54.6031 57.7362 54.5859 57.7001C54.5686 57.6639 54.5433 57.6311 54.5112 57.6034L54.0824 57.2456H56.0103C56.1021 57.2456 56.1902 57.2143 56.2551 57.1586C56.3201 57.1029 56.3566 57.0273 56.3566 56.9485Z" fill="black"/>
<path d="M57.4307 57.2456C57.5225 57.2456 57.6106 57.2143 57.6755 57.1586C57.7405 57.1029 57.7769 57.0273 57.7769 56.9485C57.7769 56.8698 57.7405 56.7942 57.6755 56.7385C57.6106 56.6828 57.5225 56.6515 57.4307 56.6515H57.2025C57.1107 56.6515 57.0226 56.6828 56.9577 56.7385C56.8927 56.7942 56.8562 56.8698 56.8562 56.9485C56.8562 57.0273 56.8927 57.1029 56.9577 57.1586C57.0226 57.2143 57.1107 57.2456 57.2025 57.2456H57.4307Z" fill="black"/>
<path d="M58.5875 56.6717H58.5639C58.519 56.6717 58.4745 56.6794 58.4331 56.6945C58.3917 56.7095 58.3543 56.7316 58.3231 56.7593C58.2919 56.787 58.2675 56.8199 58.2514 56.8559C58.2353 56.8918 58.2279 56.9302 58.2294 56.9688C58.2325 57.0485 58.2716 57.124 58.3384 57.1795C58.4052 57.2349 58.4945 57.2659 58.5875 57.2658C58.6793 57.2658 58.7674 57.2345 58.8323 57.1788C58.8973 57.1231 58.9337 57.0476 58.9337 56.9688C58.9337 56.89 58.8973 56.8144 58.8323 56.7587C58.7674 56.703 58.6793 56.6717 58.5875 56.6717Z" fill="black"/>
<path d="M58.5735 53.8228L58.5735 53.8228L58.5742 53.8235L59.6164 54.7176L58.5739 55.6147L58.5735 55.6151C58.5659 55.6217 58.5549 55.6285 58.5404 55.6338C58.5258 55.639 58.5092 55.642 58.4916 55.6421C58.4741 55.6422 58.4574 55.6392 58.4427 55.6341C58.428 55.6289 58.4169 55.6221 58.4092 55.6155C58.4015 55.609 58.3979 55.6033 58.3963 55.6001C58.3947 55.597 58.3947 55.5953 58.3947 55.595C58.3947 55.5946 58.3947 55.593 58.3962 55.59C58.3977 55.5869 58.4011 55.5814 58.4085 55.575C58.4085 55.5749 58.4086 55.5748 58.4087 55.5747L58.8368 55.2075L59.3494 54.7677H58.6741H56.7461C56.7093 54.7677 56.6802 54.7548 56.6641 54.741C56.6564 54.7344 56.6529 54.7288 56.6513 54.7256C56.6499 54.7226 56.6499 54.7211 56.6499 54.7207C56.6499 54.7203 56.6499 54.7187 56.6513 54.7157C56.6529 54.7125 56.6564 54.7069 56.6641 54.7004C56.6802 54.6865 56.7093 54.6736 56.7461 54.6736H58.678H59.3533L58.8408 54.2339L58.4087 53.8632C58.4086 53.8632 58.4086 53.8631 58.4085 53.863C58.4011 53.8566 58.3976 53.8511 58.3962 53.848C58.3947 53.8449 58.3947 53.8434 58.3947 53.843C58.3947 53.8426 58.3947 53.841 58.3963 53.8379C58.3978 53.8347 58.4015 53.829 58.4092 53.8225C58.4255 53.8086 58.4547 53.7957 58.4916 53.7959C58.5285 53.796 58.5575 53.809 58.5735 53.8228Z" fill="black" stroke="black" stroke-width="0.5"/>
<path d="M55.5539 55.0076C55.6458 55.0076 55.7338 54.9763 55.7988 54.9206C55.8637 54.8649 55.9002 54.7893 55.9002 54.7105C55.9002 54.6317 55.8637 54.5562 55.7988 54.5005C55.7338 54.4448 55.6458 54.4135 55.5539 54.4135H55.3257C55.2339 54.4135 55.1458 54.4448 55.0809 54.5005C55.016 54.5562 54.9795 54.6317 54.9795 54.7105C54.9795 54.7893 55.016 54.8649 55.0809 54.9206C55.1458 54.9763 55.2339 55.0076 55.3257 55.0076H55.5539Z" fill="black"/>
<path d="M54.5309 54.7376C54.5325 54.699 54.525 54.6606 54.5089 54.6247C54.4928 54.5887 54.4684 54.5558 54.4372 54.5281C54.406 54.5004 54.3686 54.4783 54.3272 54.4633C54.2859 54.4482 54.2414 54.4405 54.1965 54.4405H54.1768C54.1313 54.4405 54.0863 54.4482 54.0443 54.4631C54.0023 54.4781 53.9641 54.4999 53.932 54.5275C53.8998 54.5551 53.8743 54.5879 53.8569 54.6239C53.8395 54.6599 53.8306 54.6986 53.8306 54.7376C53.8306 54.7766 53.8395 54.8152 53.8569 54.8512C53.8743 54.8873 53.8998 54.92 53.932 54.9476C53.9641 54.9752 54.0023 54.9971 54.0443 55.012C54.0863 55.0269 54.1313 55.0346 54.1768 55.0346C54.2691 55.0338 54.3574 55.0024 54.4234 54.9471C54.4893 54.8917 54.5279 54.8167 54.5309 54.7376Z" fill="black"/>
<path d="M57.8596 57.9038V58.0354C57.8724 58.3713 57.7298 58.6979 57.4629 58.9439C57.1961 59.1899 56.8267 59.3353 56.4353 59.3485H48.7785C48.2254 59.3318 47.7025 59.1278 47.3242 58.7811C46.9459 58.4344 46.7431 57.9734 46.7601 57.4987C46.7463 57.0258 46.9505 56.5673 47.3284 56.2229C47.7064 55.8784 48.2275 55.6758 48.7785 55.6591H49.4199L49.4553 55.362C49.5427 54.6356 49.935 53.9612 50.5589 53.4644C51.1829 52.9676 51.996 52.6823 52.8469 52.6616H52.8784C53.378 52.6693 53.8693 52.7731 54.316 52.9653C54.7627 53.1575 55.1535 53.4332 55.4595 53.7722H56.392C56.0341 53.2434 55.5236 52.8027 54.9096 52.4923C54.2956 52.1819 53.5988 52.0124 52.8863 52H52.843C51.8658 52.0192 50.9262 52.3263 50.1818 52.8696C49.4373 53.413 48.9335 54.1596 48.7549 54.984C48.0042 55.0086 47.2948 55.2853 46.7796 55.7544C46.2644 56.2236 45.9847 56.8476 46.0007 57.492C45.9838 58.1412 46.2675 58.7696 46.7896 59.2397C47.3118 59.7098 48.0298 59.9832 48.7864 60H56.4471C56.7426 59.9939 57.0339 59.9378 57.3042 59.8351C57.5746 59.7324 57.8187 59.5849 58.0225 59.4012C58.2264 59.2175 58.3861 59.0012 58.4925 58.7645C58.5989 58.5278 58.6499 58.2755 58.6426 58.0219C58.6452 57.9781 58.6452 57.9341 58.6426 57.8903L57.8596 57.9038Z" fill="black" stroke="black" stroke-width="0.5"/>
</svg>
