<svg width="72" height="72" viewBox="0 0 72 72" fill="none" xmlns="http://www.w3.org/2000/svg">
<rect x="20.0001" y="20.2754" width="30" height="30.4348" rx="5" stroke="#0066CC" stroke-width="2"/>
<path d="M36.5553 27.4179C36.5553 26.8349 36.0828 26.3623 35.4998 26.3623V26.3623C34.9168 26.3623 34.4442 26.8349 34.4442 27.4179V36.0153C34.4442 36.5983 34.9168 37.0708 35.4998 37.0708V37.0708C36.0828 37.0708 36.5553 36.5983 36.5553 36.0153V27.4179ZM42.3635 29.3641C41.9838 28.9627 41.3522 28.9919 40.9643 29.3854V29.3854C40.5301 29.8259 40.5752 30.5415 40.988 31.0022C42.1693 32.3206 42.8887 34.0736 42.8887 36C42.8887 40.1442 39.5848 43.496 35.4998 43.496C31.4148 43.496 28.1109 40.1442 28.1109 36C28.1109 34.0693 28.8334 32.3129 30.0135 30.9875C30.4215 30.5292 30.4638 29.8201 30.033 29.3831V29.3831C29.6464 28.9909 29.0169 28.9618 28.6383 29.3617C27.0037 31.0883 25.9998 33.4199 25.9998 36C25.9998 41.3221 30.2537 45.6377 35.4998 45.6377C40.7459 45.6377 44.9998 41.3221 44.9998 36C44.9998 33.4211 43.9968 31.0904 42.3635 29.3641Z" fill="#0066CC"/>
<rect x="24" y="14.1884" width="1.0002" height="6.08696" rx="0.500102" fill="#0066CC" stroke="#0066CC"/>
<rect x="24" y="50.7101" width="1.0002" height="6.08696" rx="0.500102" fill="#0066CC" stroke="#0066CC"/>
<rect x="49.9997" y="25.3478" width="1.01449" height="6" rx="0.507246" transform="rotate(-90 49.9997 25.3478)" fill="#0066CC" stroke="#0066CC"/>
<rect x="13.9998" y="25.3478" width="1.01449" height="6" rx="0.507246" transform="rotate(-90 13.9998 25.3478)" fill="#0066CC" stroke="#0066CC"/>
<rect x="44.9998" y="14.1884" width="1.0002" height="6.08696" rx="0.500102" fill="#0066CC" stroke="#0066CC"/>
<rect x="44.9998" y="50.7101" width="1.0002" height="6.08696" rx="0.500102" fill="#0066CC" stroke="#0066CC"/>
<rect x="49.9997" y="46.6522" width="1.01449" height="6" rx="0.507246" transform="rotate(-90 49.9997 46.6522)" fill="#0066CC" stroke="#0066CC"/>
<rect x="13.9998" y="46.6522" width="1.01449" height="6" rx="0.507246" transform="rotate(-90 13.9998 46.6522)" fill="#0066CC" stroke="#0066CC"/>
<rect x="30.9997" y="14.1884" width="1.0002" height="6.08696" rx="0.500102" fill="#0066CC" stroke="#0066CC"/>
<rect x="30.9997" y="50.7101" width="1.0002" height="10.1449" rx="0.500102" fill="#0066CC" stroke="#0066CC"/>
<rect x="49.9997" y="39.5507" width="1.01449" height="6" rx="0.507246" transform="rotate(-90 49.9997 39.5507)" fill="#0066CC" stroke="#0066CC"/>
<rect x="9.99985" y="39.5507" width="1.01449" height="10" rx="0.507246" transform="rotate(-90 9.99985 39.5507)" fill="#0066CC" stroke="#0066CC"/>
<rect x="37.9998" y="10.1304" width="1.0002" height="10.1449" rx="0.500102" fill="#0066CC" stroke="#0066CC"/>
<rect x="37.9998" y="50.7101" width="1.0002" height="6.08696" rx="0.500102" fill="#0066CC" stroke="#0066CC"/>
<rect x="49.9997" y="32.4493" width="1.01449" height="10" rx="0.507246" transform="rotate(-90 49.9997 32.4493)" fill="#0066CC" stroke="#0066CC"/>
<rect x="13.9998" y="32.4493" width="1.01449" height="6" rx="0.507246" transform="rotate(-90 13.9998 32.4493)" fill="#0066CC" stroke="#0066CC"/>
<rect x="37.9998" y="10.1304" width="13" height="1.01449" rx="0.507246" fill="#0066CC" stroke="#0066CC"/>
<ellipse cx="61.0001" cy="11.1449" rx="10" ry="10.1449" stroke="#0066CC" stroke-width="2"/>
<ellipse cx="59.4999" cy="58.3188" rx="7.5" ry="7.6087" stroke="#0066CC" stroke-width="2"/>
<ellipse cx="10.5002" cy="11.6522" rx="7.5" ry="7.6087" stroke="#0066CC" stroke-width="2"/>
<path d="M6.38102 9.78816C6.15549 10.002 6.15694 10.3555 6.36434 10.587V10.587C6.60645 10.8572 7.02837 10.8539 7.30201 10.6156C9.17679 8.98333 11.8227 8.98328 13.6975 10.6155C13.9713 10.8538 14.3934 10.8571 14.6355 10.5868V10.5868C14.8429 10.3554 14.8445 10.002 14.6192 9.78805C12.251 7.5392 8.75248 7.53924 6.38102 9.78816ZM9.93811 13.369C9.50266 13.5353 9.50803 14.0958 9.81906 14.443V14.443C10.1824 14.8485 10.8179 14.8479 11.1812 14.4424V14.4424C11.4919 14.0956 11.4985 13.535 11.0635 13.3688C10.6998 13.2298 10.3025 13.2298 9.93811 13.369ZM8.02637 11.624C7.79082 11.8269 7.79337 12.182 8.0008 12.4135V12.4135C8.24286 12.6837 8.66406 12.6767 8.96095 12.4683C9.89826 11.8102 11.1011 11.8101 12.0385 12.468C12.3355 12.6766 12.757 12.6836 12.9992 12.4132V12.4132C13.2065 12.1818 13.2093 11.8269 12.9741 11.6239C11.5227 10.3716 9.48061 10.3717 8.02637 11.624Z" fill="#0066CC"/>
<ellipse cx="11" cy="60.8551" rx="10" ry="10.1449" stroke="#0066CC" stroke-width="2"/>
<path d="M10.6686 53.8688C10.5123 53.9245 10.4147 54.3148 10.4147 54.8724C10.4147 55.3742 10.3561 55.7831 10.278 55.7831C10.1999 55.7831 9.84834 55.5229 9.51633 55.2069C8.85232 54.5936 8.36408 54.575 8.12972 55.1512C8.0516 55.3556 8.40313 55.8017 9.22338 56.6008C10.5905 57.9204 10.7662 58.5337 9.90693 59.0727C9.12574 59.5559 8.46172 59.0913 8.01254 57.6974C7.46571 56.0061 7.329 55.7831 6.89934 55.7831C6.37204 55.7831 6.23533 56.1919 6.46969 57.084C6.56734 57.4929 6.62593 57.8275 6.56734 57.8275C6.52828 57.8275 6.15721 57.6416 5.74709 57.4186C4.28236 56.6194 3.75505 57.6416 5.20026 58.5151L6.02051 59.0169L5.1612 59.2214C4.12612 59.463 3.73552 59.909 4.18471 60.3551C4.47766 60.6339 4.63389 60.6153 6.04004 60.2436C7.28994 59.9276 7.661 59.8904 8.11019 60.0763C8.55937 60.2436 8.65702 60.4108 8.65702 60.9126C8.65702 61.4144 8.53984 61.5817 8.11019 61.8047C7.60242 62.0649 7.40712 62.0464 6.04004 61.6932C4.67295 61.3215 4.51671 61.3215 4.22377 61.6003C3.75505 62.0464 4.048 62.4366 5.06355 62.7154L6.00098 62.9756L5.18073 63.4031C4.59483 63.719 4.36048 63.9606 4.36048 64.258C4.36048 64.8527 4.84872 64.9457 5.72756 64.5182C6.15721 64.3138 6.52828 64.1465 6.58687 64.1465C6.62593 64.1465 6.56734 64.481 6.46969 64.8899C6.23533 65.782 6.35251 66.1909 6.87981 66.1909C7.36806 66.1909 7.5243 65.9121 7.97348 64.2952C8.26643 63.2544 8.40313 63.0128 8.87185 62.8269C9.34056 62.6597 9.51633 62.6597 9.92646 62.9199C10.7662 63.4403 10.5905 64.0907 9.24291 65.3546C8.59843 65.9679 8.07113 66.5626 8.07113 66.6927C8.07113 66.8228 8.2469 67.0087 8.48125 67.1388C8.83279 67.306 8.98903 67.2503 9.51633 66.767C9.86787 66.4511 10.1999 66.1909 10.2585 66.1909C10.3366 66.1909 10.4147 66.5812 10.4538 67.0644C10.5123 67.8822 10.5514 67.9565 11.0006 67.9565C11.4498 67.9565 11.4888 67.8822 11.5474 67.0644C11.5865 66.5812 11.6646 66.1909 11.7427 66.1909C11.8013 66.1909 12.1528 66.4511 12.4849 66.767C13.1489 67.3804 13.6371 67.399 13.8715 66.8228C13.9496 66.6184 13.598 66.1723 12.7778 65.3731C11.4302 64.0722 11.2349 63.4403 12.0747 62.9199C12.8559 62.4366 13.6762 62.8455 13.9301 63.8491C14.4574 65.782 14.6136 66.098 15.0628 66.1537C15.6291 66.2281 15.8049 65.782 15.551 64.8527C15.4338 64.4625 15.3948 64.1465 15.4338 64.1465C15.4729 64.1465 15.844 64.3138 16.2736 64.5182C17.1525 64.9457 17.6407 64.8527 17.6407 64.258C17.6407 63.9606 17.4063 63.719 16.8205 63.4031L16.0002 62.9756L16.9376 62.7154C17.9532 62.4366 18.2461 62.0464 17.7774 61.6003C17.504 61.3401 17.3282 61.3401 15.9611 61.6932C14.6136 62.0464 14.4183 62.0649 13.9105 61.8047C13.1489 61.433 13.1293 60.5781 13.8324 60.1321C14.3011 59.8347 14.4183 59.8347 15.9221 60.225C17.3673 60.6153 17.5235 60.6153 17.8165 60.3551C18.2657 59.909 17.8751 59.463 16.84 59.2214L15.9807 59.0169L16.8205 58.5151C18.2461 57.6416 17.7188 56.6194 16.2541 57.4186C15.844 57.6416 15.4729 57.8275 15.4338 57.8275C15.3948 57.8275 15.4338 57.5115 15.551 57.1212C15.8049 56.2477 15.6487 55.7831 15.1018 55.7831C14.6527 55.7831 14.4964 56.0619 14.0277 57.6788C13.6371 59.0541 13.0122 59.5373 12.2114 59.0727C11.2545 58.5337 11.3912 57.9204 12.7778 56.6008C13.598 55.8017 13.9496 55.3556 13.8715 55.1512C13.6371 54.575 13.1489 54.5936 12.4849 55.2069C12.1528 55.5229 11.8013 55.7831 11.7232 55.7831C11.6451 55.7831 11.5865 55.3742 11.5865 54.8724C11.5865 54.2219 11.5084 53.9245 11.274 53.8502C11.0982 53.7944 10.9615 53.7387 10.942 53.7573C10.9225 53.7573 10.7858 53.813 10.6686 53.8688ZM11.5474 60.1692C12.1724 60.5781 12.1333 61.4888 11.4888 61.7676C10.3171 62.2694 9.39915 60.8569 10.4538 60.1692C10.6881 60.002 10.942 59.8719 11.0006 59.8719C11.0592 59.8719 11.3131 60.002 11.5474 60.1692Z" fill="#0066CC"/>
<rect x="59" y="31.4348" width="1.0002" height="19.2754" rx="0.500102" fill="#0066CC" stroke="#0066CC"/>
<rect x="21.0004" y="59.8406" width="11" height="1.01449" rx="0.507246" fill="#0066CC" stroke="#0066CC"/>
<rect x="9.99985" y="19.2609" width="1.0002" height="20.2899" rx="0.500102" fill="#0066CC" stroke="#0066CC"/>
<path d="M61.3751 4.04349C60.2147 4.04349 59.1018 4.51113 58.2813 5.34355C57.4608 6.17596 56.9998 7.30496 56.9998 8.48217C57.0048 9.18654 57.1818 9.87869 57.515 10.4967C57.8482 11.1146 58.3272 11.6392 58.9092 12.0234L59.625 13.8086C59.5089 13.8086 59.3976 13.8554 59.3156 13.9386C59.2335 14.0218 59.1874 14.1347 59.1874 14.2525C59.1874 14.3702 59.2335 14.4831 59.3156 14.5663C59.3976 14.6496 59.5089 14.6963 59.625 14.6963C59.5089 14.6963 59.3976 14.7431 59.3156 14.8263C59.2335 14.9096 59.1874 15.0225 59.1874 15.1402C59.1874 15.2579 59.2335 15.3708 59.3156 15.4541C59.3976 15.5373 59.5089 15.5841 59.625 15.5841C59.5089 15.5841 59.3976 15.6308 59.3156 15.7141C59.2335 15.7973 59.1874 15.9102 59.1874 16.0279C59.1874 16.1457 59.2335 16.2586 59.3156 16.3418C59.3976 16.425 59.5089 16.4718 59.625 16.4718C59.5089 16.4718 59.3976 16.5186 59.3156 16.6018C59.2335 16.685 59.1874 16.7979 59.1874 16.9157C59.1874 17.0334 59.2335 17.1463 59.3156 17.2295C59.3976 17.3128 59.5089 17.3595 59.625 17.3595H59.9837C60.283 17.8478 60.7844 18.1842 61.3672 18.2464C61.6506 18.2182 61.9237 18.1243 62.1656 17.9719C62.4074 17.8195 62.6115 17.6127 62.762 17.3675L63.1252 17.3595C63.2412 17.3595 63.3525 17.3128 63.4346 17.2295C63.5166 17.1463 63.5627 17.0334 63.5627 16.9157C63.5627 16.7979 63.5166 16.685 63.4346 16.6018C63.3525 16.5186 63.2412 16.4718 63.1252 16.4718C63.2412 16.4718 63.3525 16.425 63.4346 16.3418C63.5166 16.2586 63.5627 16.1457 63.5627 16.0279C63.5627 15.9102 63.5166 15.7973 63.4346 15.7141C63.3525 15.6308 63.2412 15.5841 63.1252 15.5841C63.2412 15.5841 63.3525 15.5373 63.4346 15.4541C63.5166 15.3708 63.5627 15.2579 63.5627 15.1402C63.5627 15.0225 63.5166 14.9096 63.4346 14.8263C63.3525 14.7431 63.2412 14.6963 63.1252 14.6963C63.2412 14.6963 63.3525 14.6496 63.4346 14.5663C63.5166 14.4831 63.5627 14.3702 63.5627 14.2525C63.5627 14.1347 63.5166 14.0218 63.4346 13.9386C63.3525 13.8554 63.2412 13.8086 63.1252 13.8086L63.8252 12.0331C64.411 11.6498 64.8936 11.1247 65.2296 10.5052C65.5656 9.88564 65.7446 9.19106 65.7504 8.48395C65.7505 7.90093 65.6374 7.32361 65.4176 6.78493C65.1978 6.24625 64.8755 5.75677 64.4692 5.34444C64.0629 4.9321 63.5806 4.60499 63.0497 4.38177C62.5188 4.15855 61.9498 4.0436 61.3751 4.04349V4.04349ZM63.344 11.3318L63.1252 11.4827L63.0289 11.7402L62.2501 13.6399C62.2321 13.6889 62.1999 13.7313 62.1578 13.7614C62.1156 13.7915 62.0654 13.8079 62.0139 13.8086H60.6925C60.649 13.8002 60.6084 13.7803 60.5748 13.751C60.5412 13.7218 60.5157 13.6841 60.5009 13.6417L59.7387 11.7402L59.625 11.4827L59.4062 11.3229C58.9432 11.0114 58.5618 10.5902 58.295 10.0957C58.0283 9.6013 57.8841 9.04843 57.8749 8.48483C57.8747 8.01852 57.9651 7.55673 58.1408 7.12584C58.3165 6.69496 58.5742 6.30341 58.8991 5.97355C59.5553 5.30736 60.4455 4.93291 61.3738 4.93256C62.3021 4.9322 63.1925 5.30598 63.8492 5.97166C64.5058 6.63734 64.875 7.5404 64.8753 8.48217C64.8687 9.04539 64.7269 9.59849 64.4622 10.0936C64.1975 10.5888 63.8179 11.011 63.3562 11.3238L63.344 11.3318Z" fill="#0066CC"/>
<path d="M61.4634 8.0743L61.8834 6.07248L60.0002 8.70799L61.2875 9.1432L60.8675 11.1449L62.7508 8.50946L61.4634 8.0743Z" fill="#0066CC"/>
<path d="M62.8689 57.4489C62.5573 55.9177 61.1685 54.7681 59.5002 54.7681C58.1756 54.7681 57.0252 55.496 56.4523 56.5612C55.0727 56.7033 54.0002 57.8351 54.0002 59.2065C54.0002 60.6756 55.2331 61.8696 56.7502 61.8696H62.7085C63.9735 61.8696 65.0002 60.8754 65.0002 59.6504C65.0002 58.4786 64.0606 57.5288 62.8689 57.4489ZM62.7085 60.9819H56.7502C55.7373 60.9819 54.9168 60.1874 54.9168 59.2065C54.9168 58.2256 55.7373 57.4312 56.7502 57.4312H57.0756C57.3781 56.4059 58.3452 55.6558 59.5002 55.6558C60.8935 55.6558 62.021 56.7477 62.021 58.0969V58.3189H62.7085C63.4693 58.3189 64.0835 58.9136 64.0835 59.6504C64.0835 60.3871 63.4693 60.9819 62.7085 60.9819Z" fill="#0066CC"/>
<path fill-rule="evenodd" clip-rule="evenodd" d="M57.0418 58.7233C57.0551 58.7098 57.0709 58.6991 57.0882 58.6918C57.1056 58.6845 57.1242 58.6807 57.143 58.6807C57.1618 58.6807 57.1804 58.6845 57.1977 58.6918C57.2151 58.6991 57.2309 58.7098 57.2441 58.7233L58.0001 59.4903L58.7561 58.7233C58.7829 58.6961 58.8193 58.6808 58.8573 58.6808C58.8952 58.6808 58.9316 58.6961 58.9584 58.7233C58.9852 58.7505 59.0003 58.7874 59.0003 58.8258C59.0003 58.8643 58.9852 58.9012 58.9584 58.9284L58.1013 59.7978C58.088 59.8113 58.0722 59.822 58.0549 59.8293C58.0375 59.8366 58.0189 59.8404 58.0001 59.8404C57.9813 59.8404 57.9627 59.8366 57.9454 59.8293C57.928 59.822 57.9122 59.8113 57.899 59.7978L57.0418 58.9284C57.0285 58.915 57.018 58.899 57.0108 58.8814C57.0036 58.8638 56.9999 58.8449 56.9999 58.8258C56.9999 58.8068 57.0036 58.7879 57.0108 58.7703C57.018 58.7527 57.0285 58.7367 57.0418 58.7233V58.7233Z" fill="#0066CC"/>
<path fill-rule="evenodd" clip-rule="evenodd" d="M58.0003 57.8116C58.0382 57.8116 58.0746 57.8269 58.1013 57.854C58.1281 57.8812 58.1432 57.9181 58.1432 57.9565V59.4054C58.1432 59.4439 58.1281 59.4807 58.1013 59.5079C58.0746 59.5351 58.0382 59.5503 58.0003 59.5503C57.9624 59.5503 57.9261 59.5351 57.8993 59.5079C57.8725 59.4807 57.8575 59.4439 57.8575 59.4054V57.9565C57.8575 57.9181 57.8725 57.8812 57.8993 57.854C57.9261 57.8269 57.9624 57.8116 58.0003 57.8116V57.8116Z" fill="#0066CC"/>
<path fill-rule="evenodd" clip-rule="evenodd" d="M61.9577 58.9287C61.9444 58.9422 61.9287 58.9529 61.9113 58.9602C61.894 58.9675 61.8753 58.9713 61.8566 58.9713C61.8378 58.9713 61.8192 58.9675 61.8018 58.9602C61.7844 58.9529 61.7687 58.9422 61.7554 58.9287L60.9994 58.1616L60.2434 58.9287C60.2166 58.9559 60.1802 58.9712 60.1423 58.9712C60.1044 58.9712 60.068 58.9559 60.0412 58.9287C60.0143 58.9015 59.9993 58.8646 59.9993 58.8261C59.9993 58.7877 60.0143 58.7507 60.0412 58.7235L60.8983 57.8542C60.9116 57.8407 60.9273 57.83 60.9447 57.8227C60.962 57.8154 60.9806 57.8116 60.9994 57.8116C61.0182 57.8116 61.0368 57.8154 61.0542 57.8227C61.0715 57.83 61.0873 57.8407 61.1006 57.8542L61.9577 58.7235C61.971 58.737 61.9816 58.753 61.9888 58.7706C61.996 58.7882 61.9997 58.8071 61.9997 58.8261C61.9997 58.8452 61.996 58.8641 61.9888 58.8817C61.9816 58.8993 61.971 58.9153 61.9577 58.9287V58.9287Z" fill="#0066CC"/>
<path fill-rule="evenodd" clip-rule="evenodd" d="M60.9996 59.8404C60.9617 59.8404 60.9254 59.8251 60.8986 59.798C60.8718 59.7708 60.8567 59.7339 60.8567 59.6955V58.2465C60.8567 58.2081 60.8718 58.1713 60.8986 58.1441C60.9254 58.1169 60.9617 58.1016 60.9996 58.1016C61.0375 58.1016 61.0738 58.1169 61.1006 58.1441C61.1274 58.1713 61.1424 58.2081 61.1424 58.2465V59.6955C61.1424 59.7339 61.1274 59.7708 61.1006 59.798C61.0738 59.8251 61.0375 59.8404 60.9996 59.8404V59.8404Z" fill="#0066CC"/>
</svg>
