<svg width="1144" height="1089" fill="none" xmlns="http://www.w3.org/2000/svg"><path d="M408.512 921.07v165.5H163.48v-165.5m245.032 0V678.448m0 242.622h-161.48m-83.552 0V597.307h-56.237M163.48 921.07h9.64M2 516.165v81.142h105.243M2 516.165v-80.338h105.243M2 516.165h105.243m301.269-80.338v25.708h89.978v114.08h-89.978v21.692m0-161.48V218.11h540.676M408.512 435.827H382m26.512 161.48v81.141m0-81.141h-5.624m5.624 81.141h-161.48m0 242.622V706.567m0 214.503h-53.024m53.024-242.622v-81.141h134.165m-134.165 81.141v5.624M107.243 435.827v5.623m0-5.623h244.228m-244.228 26.511v37.759m0 16.068v-16.068m0 16.068v41.939m0 12.691v-12.691m0 32.776v6.427m0-97.21h26.512m23.298 0h6.427v58.007H107.243m250.655-122.277h-6.427m0 0V218.11h-49.809m0 0H95.192V2h206.47m0 216.11v-8.034m0-208.076v160.677m0-160.677h324.566M301.662 162.677v7.23m0-7.23h165.497m159.069 0h114.884m-114.884 0V2m0 160.677h-118.9m277.97 0h163.89m0 0V2m0 160.677v9.64m0-170.317h-322.96m322.96 0H1142v216.11h-112.47v53.023h-80.342V218.11m0 0v-8.837M408.512 496.884h56.236v44.989h-56.236v-44.989z" stroke="#18211A" stroke-width="3"/><path d="M173 921h21m53-237v22.5m156-109h-22M107 571v20m26.5-91H157m-50-58.5v21M357 436h25m-80-267v42m165-48.5h40.5m233.5 0h44.5M949 172v37.5" stroke="#F82"/><path d="M480.5 478h1v-1h-1v1zm-69.207-.707a.999.999 0 000 1.414l6.364 6.364a.999.999 0 101.414-1.414L413.414 478l5.657-5.657a.999.999 0 10-1.414-1.414l-6.364 6.364zM480.5 477H412v2h68.5v-2zm-1 1v84h2v-84h-2z" fill="#5D7"/><path d="M412.293 560.293a.999.999 0 000 1.414l6.364 6.364a.999.999 0 101.414-1.414L414.414 561l5.657-5.657a.999.999 0 10-1.414-1.414l-6.364 6.364zM481 560h-68v2h68v-2z" fill="#5D7"/></svg>