<svg width="1144" height="1089" viewBox="0 0 1144 1089" fill="none" xmlns="http://www.w3.org/2000/svg">
<path d="M408.512 921.07V1086.57H163.48V921.07M408.512 921.07V678.448M408.512 921.07H247.032M163.48 921.07V597.307H107.243M163.48 921.07H173.12M2 516.165V597.307H107.243M2 516.165V435.827H107.243M2 516.165H107.243M408.512 435.827V461.535H498.49V575.615H408.512V597.307M408.512 435.827V218.11H949.188M408.512 435.827H382M408.512 597.307V678.448M408.512 597.307H402.888M408.512 678.448H247.032M247.032 921.07V706.567M247.032 921.07H194.008M247.032 678.448V597.307H381.197M247.032 678.448V684.072M107.243 435.827V441.45M107.243 435.827H351.471M107.243 462.338V500.097M107.243 516.165V500.097M107.243 516.165V558.104M107.243 570.795V558.104M107.243 590.88V597.307M107.243 500.097H133.755M157.053 500.097H163.48V558.104H135.362H107.243M357.898 435.827H351.471M351.471 435.827V218.11H301.662M301.662 218.11H95.1924V2H301.662M301.662 218.11V210.076M301.662 2V162.677M301.662 2H626.228M301.662 162.677V169.907M301.662 162.677H467.159M626.228 162.677H741.112M626.228 162.677V2M626.228 162.677H507.328M785.298 162.677H949.188M949.188 162.677V111.26V2M949.188 162.677V172.317M949.188 2H626.228M949.188 2H1032.74H1142V218.11H1029.53V271.133H949.188V218.11M949.188 218.11V209.273M408.512 496.884H464.748V541.873H408.512V496.884Z" stroke="#18211A" stroke-width="3"/>
<path d="M173 921H194M247 684V706.5M403 597.5H381M107 571V591M133.5 500H157M107 441.5V462.5M357 436H382M302 169V211M467 162.5H507.5M741 162.5H785.5M949 172V209.5" stroke="#FF8822"/>
<path d="M480.5 478H481.5V477H480.5V478ZM411.293 477.293C410.902 477.683 410.902 478.317 411.293 478.707L417.657 485.071C418.048 485.462 418.681 485.462 419.071 485.071C419.462 484.68 419.462 484.047 419.071 483.657L413.414 478L419.071 472.343C419.462 471.953 419.462 471.319 419.071 470.929C418.681 470.538 418.048 470.538 417.657 470.929L411.293 477.293ZM480.5 477L412 477V479L480.5 479V477ZM479.5 478L479.5 562H481.5L481.5 478H479.5Z" fill="#55DD77"/>
<path d="M412.293 560.293C411.902 560.683 411.902 561.317 412.293 561.707L418.657 568.071C419.047 568.462 419.681 568.462 420.071 568.071C420.462 567.681 420.462 567.047 420.071 566.657L414.414 561L420.071 555.343C420.462 554.953 420.462 554.319 420.071 553.929C419.681 553.538 419.047 553.538 418.657 553.929L412.293 560.293ZM481 560H413V562H481V560Z" fill="#55DD77"/>
</svg>
