<svg width="1143" height="842" viewBox="0 0 1143 842" fill="none" xmlns="http://www.w3.org/2000/svg">
<path d="M228.6 114.996V228.501M228.6 114.996H137.363H46.126V228.501H137.363M228.6 114.996V58.4982M228.6 228.501H312.411M228.6 228.501H182.981M343.177 2H228.6V58.4982M343.177 2V228.501M343.177 2H457.223M343.177 228.501H335.75M343.177 228.501H351.133M457.223 2V228.501M457.223 2H571.269M457.223 228.501H376.064M457.223 228.501H540.503M571.269 2V228.501M571.269 2H685.846M571.269 228.501H563.312M571.269 228.501H579.756M685.846 2V228.501M685.846 2H799.892M685.846 228.501H603.626M685.846 228.501H769.126M799.892 2V228.501M799.892 2H914.469M799.892 228.501H791.405M799.892 228.501H807.849M914.469 2V228.501M914.469 2H1141.5V228.501M914.469 228.501H831.188M914.469 228.501H920.834M1141.5 228.501V304.886H380.838V612.015M1141.5 228.501H946.295M299.68 612.015V304.886H228.6V266.693H1.5V58.4982H228.6M299.68 612.015H146.911M299.68 612.015H308.698M146.911 612.015H34.9866V725.53M146.911 612.015V654.981M34.9866 725.53V840.107H146.911M34.9866 725.53H108.719M146.911 840.107H380.838V811.993M146.911 840.107V797.141M146.911 761.07H108.719V725.53M146.911 761.07H188.816M146.911 761.07V769.558M108.719 725.53V690.521H146.911M146.911 690.521V683.095M146.911 690.521H153.276M188.816 690.521V761.07M188.816 690.521H180.329M188.816 690.521V680.467V670.761M188.816 761.07L188.831 771.706V781.413M380.838 811.993H509.207V649.146H380.838V612.015M380.838 811.993V761.07M380.838 612.015H343.707M380.838 761.07V698.478H460.936V761.07H380.838Z" stroke="#18211A" stroke-width="3"/>
<path d="M312.411 228.501H335.75M351.133 228.501H376.064M540.503 228.501H563.312M579.756 228.501H603.626M769.126 228.501H791.405M807.849 228.501H831.188M920.834 228.501H946.295M308.697 612.015H343.707M146.911 654.981V683.095M153.276 690.521H180.329M146.911 769.557V797.141M137.388 228.641H183.007" stroke="#FF8822"/>
<path d="M484.806 672.486H485.806V671.486H484.806V672.486ZM384.375 671.778C383.984 672.169 383.984 672.802 384.375 673.193L390.739 679.557C391.129 679.947 391.762 679.947 392.153 679.557C392.544 679.166 392.544 678.533 392.153 678.142L386.496 672.486L392.153 666.829C392.544 666.438 392.544 665.805 392.153 665.415C391.762 665.024 391.129 665.024 390.739 665.415L384.375 671.778ZM484.806 786.532V787.532H485.806V786.532H484.806ZM484.806 671.486H385.082V673.486H484.806V671.486ZM483.806 672.486V786.532H485.806V672.486H483.806ZM484.806 785.532H389.265V787.532H484.806V785.532Z" fill="#55DD77"/>
</svg>
