<svg width="1144" height="867" viewBox="0 0 1144 867" fill="none" xmlns="http://www.w3.org/2000/svg">
<path d="M201.473 124.416H13.4765V235.356H201.473M201.473 124.416V235.356M201.473 124.416V2H319.517M201.473 235.356V314.052H274.704V630.476M201.473 235.356H287.82M319.517 2V235.356M319.517 2H437.014M319.517 235.356H311.866M319.517 235.356H327.714M437.014 2V235.356M437.014 2H554.512M437.014 235.356H353.4M437.014 235.356H522.815M554.512 2V235.356M554.512 2H672.556M554.512 235.356H546.315M554.512 235.356H563.256M672.556 2V235.356M672.556 2H790.054M672.556 235.356H587.849M672.556 235.356H758.357M790.054 2V235.356M790.054 2H908.098M790.054 235.356H781.31M790.054 235.356H798.251M908.098 2V235.356M908.098 2H1142V235.356M908.098 235.356H822.297M908.098 235.356H914.656M1142 235.356V314.052H358.318V630.476M1142 235.356H940.888M274.704 630.476H117.312M274.704 630.476H283.994M117.312 630.476H2V747.427M117.312 630.476V674.742M2 747.427V865.471H117.312M2 747.427H77.9636M117.312 865.471H358.318V836.506M117.312 865.471V821.204M117.312 784.042H77.9636V747.427M117.312 784.042H160.485M117.312 784.042V792.786M77.9636 747.427V711.358H117.312M117.312 711.358V703.707M117.312 711.358H123.87M160.485 711.358V784.042M160.485 711.358H151.741M160.485 711.358V701V691M160.485 784.042L160.5 795V805M358.318 836.506H490.571V668.731H358.318V630.476M358.318 836.506V784.042M358.318 630.476H320.063M358.318 719.555H440.84M358.318 719.555V784.042M358.318 719.555L440.84 784.042M440.84 719.555V784.042M440.84 719.555L358.318 784.042M440.84 784.042H358.318" stroke="#18211A" stroke-width="3"/>
<path d="M287.82 235.356H311.866M327.714 235.356H353.4M522.815 235.356H546.314M563.256 235.356H587.849M758.357 235.356H781.31M798.251 235.356H822.297M914.656 235.356H940.888M283.994 630.476H320.063M117.312 674.742V703.707M123.87 711.358H151.741M117.312 792.786V821.204" stroke="#FF8822"/>
<path d="M465.432 692.777H466.432V691.777H465.432V692.777ZM361.983 692.07C361.593 692.46 361.593 693.093 361.983 693.484L368.347 699.848C368.738 700.238 369.371 700.238 369.761 699.848C370.152 699.457 370.152 698.824 369.761 698.433L364.105 692.777L369.761 687.12C370.152 686.729 370.152 686.096 369.761 685.706C369.371 685.315 368.738 685.315 368.347 685.706L361.983 692.07ZM465.432 810.274V811.274H466.432V810.274H465.432ZM465.432 691.777H362.69V693.777H465.432V691.777ZM464.432 692.777V810.274H466.432V692.777H464.432ZM465.432 809.274H367V811.274H465.432V809.274Z" fill="#55DD77"/>
</svg>
