<svg width="1110" height="842" viewBox="0 0 1110 842" fill="none" xmlns="http://www.w3.org/2000/svg">
<path d="M195.6 114.996V228.501M195.6 114.996H104.363H13.126V228.501M195.6 114.996V58.4982V2H310.177M195.6 228.501H279.411M195.6 228.501H149.981M13.126 228.501H104.363M13.126 228.501V266.693H195.6V304.886H266.68V612.015M310.177 2V228.501M310.177 2H424.223M310.177 228.501H302.75M310.177 228.501H318.133M424.223 2V228.501M424.223 2H538.269M424.223 228.501H343.064M424.223 228.501H507.503M538.269 2V228.501M538.269 2H652.846M538.269 228.501H530.312M538.269 228.501H546.756M652.846 2V228.501M652.846 2H766.892M652.846 228.501H570.626M652.846 228.501H736.126M766.892 2V228.501M766.892 2H881.469M766.892 228.501H758.405M766.892 228.501H774.849M881.469 2V228.501M881.469 2H1108.5V228.501M881.469 228.501H798.188M881.469 228.501H887.834M1108.5 228.501V304.886H347.838V612.015M1108.5 228.501H913.295M266.68 612.015H113.911M266.68 612.015H275.697M113.911 612.015H1.98657V725.53M113.911 612.015V654.981M1.98657 725.53V840.107H113.911M1.98657 725.53H75.7188M113.911 840.107H347.838V811.993M113.911 840.107V797.141M113.911 761.07H75.7188V725.53M113.911 761.07H155.816M113.911 761.07V769.558M75.7188 725.53V690.521H113.911M113.911 690.521V683.095M113.911 690.521H120.276M155.816 690.521V761.07M155.816 690.521H147.329M155.816 690.521V680.467V670.761M155.816 761.07L155.831 771.706V781.413M347.838 811.993H476.207V649.146H347.838V612.015M347.838 811.993V761.07M347.838 612.015H310.707M347.838 761.07V698.478H427.936V761.07H347.838Z" stroke="#18211A" stroke-width="3"/>
<path d="M279.411 228.501H302.75M318.133 228.501H343.064M507.503 228.501H530.312M546.756 228.501H570.626M736.126 228.501H758.405M774.849 228.501H798.188M887.834 228.501H913.295M275.697 612.015H310.707M113.911 654.981V683.095M120.276 690.521H147.329M113.911 769.557V797.141M104.388 228.641H150.007" stroke="#FF8822"/>
<path d="M451.806 672.486H452.806V671.486H451.806V672.486ZM351.375 671.778C350.984 672.169 350.984 672.802 351.375 673.193L357.739 679.557C358.129 679.947 358.762 679.947 359.153 679.557C359.543 679.166 359.543 678.533 359.153 678.142L353.496 672.486L359.153 666.829C359.543 666.438 359.543 665.805 359.153 665.415C358.762 665.024 358.129 665.024 357.739 665.415L351.375 671.778ZM451.806 786.532V787.532H452.806V786.532H451.806ZM451.806 671.486H352.082V673.486H451.806V671.486ZM450.806 672.486V786.532H452.806V672.486H450.806ZM451.806 785.532H356.265V787.532H451.806V785.532Z" fill="#55DD77"/>
</svg>
