<svg width="1110" height="842" fill="none" xmlns="http://www.w3.org/2000/svg"><path d="M195.6 114.996v113.505m0-113.505H13.126v113.505M195.6 114.996V2h114.577M195.6 228.501h83.811m-83.811 0h-45.619m-136.855 0h91.237m-91.237 0v38.192H195.6v38.193h71.08v307.129M310.177 2v226.501m0-226.501h114.046M310.177 228.501h-7.427m7.427 0h7.956M424.223 2v226.501m0-226.501h114.046M424.223 228.501h-81.159m81.159 0h83.28M538.269 2v226.501m0-226.501h114.577M538.269 228.501h-7.957m7.957 0h8.487M652.846 2v226.501m0-226.501h114.046M652.846 228.501h-82.22m82.22 0h83.28M766.892 2v226.501m0-226.501h114.577M766.892 228.501h-8.487m8.487 0h7.957M881.469 2v226.501m0-226.501H1108.5v226.501m-227.031 0h-83.281m83.281 0h6.365m220.666 0v76.385H347.838v307.129M1108.5 228.501H913.295M266.68 612.015H113.911m152.769 0h9.017m-161.786 0H1.987V725.53M113.91 612.015v42.966M1.987 725.53v114.577H113.91M1.987 725.53h73.732m38.192 114.577h233.927v-28.114m-233.927 28.114v-42.966m0-36.071H75.719v-35.54m38.192 35.54h41.905m-41.905 0v8.488M75.719 725.53v-35.009h38.192m0 0v-7.426m0 7.426h6.365m35.54 0v70.549m0-70.549h-8.487m8.487 0V670.761m0 90.309l.015 10.636v9.707m192.007 30.58h128.369V649.146H347.838v-37.131m0 199.978V761.07m0-149.055h-37.131m37.131 149.055v-62.592h80.098v62.592h-80.098z" stroke="#18211A" stroke-width="3"/><path d="M279.411 228.501h23.339m15.383 0h24.931m164.439 0h22.809m16.444 0h23.87m165.5 0h22.279m16.444 0h23.339m89.646 0h25.461M275.697 612.015h35.01m-196.796 42.966v28.114m6.365 7.426h27.053m-33.418 79.036v27.584m-9.523-568.5h45.619" stroke="#F82"/><path d="M451.806 672.486h1v-1h-1v1zm-100.431-.708a1 1 0 000 1.415l6.364 6.364a1 1 0 001.414-1.415l-5.657-5.656 5.657-5.657a1 1 0 00-1.414-1.414l-6.364 6.363zm100.431 114.754v1h1v-1h-1zm0-115.046h-99.724v2h99.724v-2zm-1 1v114.046h2V672.486h-2zm1 113.046h-95.541v2h95.541v-2z" fill="#5D7"/></svg>