<svg width="1145" height="1081" fill="none" xmlns="http://www.w3.org/2000/svg"><path d="M326.148 844.236c-1.695-23.807-7.408-48.39-17.61-74.682m17.61 104.969a221.262 221.262 0 01-3.454 26.091m0 0c-10.403 54.035-40.615 107.926-84.665 173.526l-7.274-6.64m91.939-166.886h65.431m0 0v-5.126m0 5.126v5.125m-79.587-136.185c-14.279-36.801-37.352-76.951-70.509-123.006L3 859.612 214.321 1052.5m94.217-282.946h14.589m237.792 65.164h4.393m-4.393 0h-4.393m4.393 0V706.5m-16.108 194.114h16.108v-16.84m-16.108 16.84v-5.126m0 5.126v5.125m16.108-21.965h-4.393m4.393 0h4.393M238.029 512.56h51.252m-51.252 0v-63.7m0 63.7v60.038m51.252-60.038h33.68m-33.68 0v15.375m271.638 114.22V706.5m0-64.345v-65.896m0 65.896H499m61.919-65.896v-62.967m0 62.967h-65.896m-21.233 0v-41.734m0 41.734h4.393m-4.393 0v43.199m87.129-106.166H473.79v4.393m87.129-4.393V495.72h71.021v-90.79h-71.021m0 0v-19.769m0 19.769v25.626m0-45.395V211.635H935.5M560.919 385.161h-21.233m-216.725 0h-84.932v63.699m84.932-63.699h192.563m-192.563 0v3.661m0 123.738h43.931v95.183m-43.931-95.183v-5.858m-84.932-57.842h84.932m0 0v-13.911m0 13.911v33.68m0-47.591h20.501m-20.501 0v-29.287m0 76.878h43.931v-47.591h-4.393m-39.538 47.591v6.59m192.563-103.969V211.635h-39.537m39.537 173.526h5.125m-44.662-173.526v41.002H347.123v-41.002h-33.68V40.305h289.942m-127.398 171.33v-6.59m127.398-164.74v128.131m0-128.13V1.5H796.68v38.805M603.385 168.436H475.987v6.59m127.398-6.59h88.594m297.264 43.199v42.466h62.967v21.233h24.89m-87.857-63.699v-7.322m0 7.322H972.5m16.743-171.33H1143v171.33h-25.63v63.699h-3.66M989.243 40.305H796.68m192.563 0v128.131M796.68 40.306v128.13m0 0h-71.753m71.753 0h73.95m118.613 0h-85.665m85.665 0v8.054M560.919 430.556h46.859v41.002h-46.859v-41.002zM323.127 769.554v-4.393m0 4.393v5.125m29.177-5.125h14.588V706.5m-14.588 63.054v5.125m0-5.125v-4.393m14.588-157.418h4.393m-4.393 0h-4.393m4.393 24.162h-4.393m4.393 0h4.393m-4.393 0v8.595m-77.611-94.26v94.26m-51.252-47.401v47.592l51.252-.191m184.509-3.47v5.125H499m436.5-430.52V207.5m0 4.135V216m37-4.365V216m0-4.365V207.5M319 640.5h-29.719m77.611 0H347m19.892 0v66m0 0H399m41 0h59m61.919 0H499m0 0V664m0-21.845v5.345" stroke="#18211A" stroke-width="3"/><path d="M325.89 843.504v31.483M214 1052l17 16M289.281 527.935v18.305M399 706.5h41.734M238.029 572.598v20.501M319 640.5h28M499 647.5V664M473.79 619.458v17.572M478.183 576.259h16.84M473.79 517.685v16.84M322.961 489.13v17.572M343.462 434.949h19.037M322.961 388.822v16.84M520.649 385.161h19.037M475.987 175.026v30.019M691.979 168.436h32.948M870.63 168.436h32.948M989.243 176.49v27.823M1077.1 275.334h36.61" stroke="#F82"/><path d="M563.293 858.293a.999.999 0 000 1.414l6.364 6.364a.999.999 0 101.414-1.414L565.414 859l5.657-5.657a.999.999 0 10-1.414-1.414l-6.364 6.364zM602 858h-38v2h38v-2zM467.707 906.293a.999.999 0 00-1.414 0l-6.364 6.364a.999.999 0 101.414 1.414l5.657-5.657 5.657 5.657a.999.999 0 101.414-1.414l-6.364-6.364zM468 945v-38h-2v38h2zM217 584v-1h-1v1h1zm13.707.707a.999.999 0 000-1.414l-6.364-6.364a.999.999 0 10-1.414 1.414l5.657 5.657-5.657 5.657a.999.999 0 101.414 1.414l6.364-6.364zM217 585h13v-2h-13v2zm-1-1v47.5h2V584h-2zM207 1075l-.707.71.707.7.707-.7-.707-.71zm9-8c0-.55-.448-1-1-1h-9c-.552 0-1 .45-1 1s.448 1 1 1h8v8c0 .55.448 1 1 1s1-.45 1-1v-9zm-8.293 8.71l8-8-1.414-1.42-8 8 1.414 1.42zm0-1.42l-33.5-33.5-1.414 1.42 33.5 33.5 1.414-1.42zM953.707 218.293a.999.999 0 00-1.414 0l-6.364 6.364a.999.999 0 101.414 1.414l5.657-5.657 5.657 5.657a.999.999 0 101.414-1.414l-6.364-6.364zM954 253v-34h-2v34h2zM620 418h1v-1h-1v1zm-47.707-.707a.999.999 0 000 1.414l6.364 6.364a.999.999 0 101.414-1.414L574.414 418l5.657-5.657a.999.999 0 10-1.414-1.414l-6.364 6.364zM620 484.5v1h1v-1h-1zm0-67.5h-47v2h47v-2zm-1 1v66.5h2V418h-2zm1 65.5h-60v2h60v-2z" fill="#5D7"/></svg>