<svg width="1145" height="1081" viewBox="0 0 1145 1081" fill="none" xmlns="http://www.w3.org/2000/svg">
<path d="M326.148 844.236C324.453 820.429 318.74 795.846 308.538 769.554M326.148 874.523C325.524 883.257 324.364 891.937 322.694 900.614M322.694 900.614C312.291 954.649 282.079 1008.54 238.029 1074.14L230.755 1067.5M322.694 900.614H388.125M388.125 900.614V895.488M388.125 900.614V905.739M308.538 769.554C294.259 732.753 271.186 692.603 238.029 646.548L3 859.612L214.321 1052.5M308.538 769.554H323.127M560.919 834.718H565.312M560.919 834.718H556.526M560.919 834.718V706.5M544.811 900.614H560.919V883.774M544.811 900.614V895.488M544.811 900.614V905.739M560.919 883.774H556.526M560.919 883.774H565.312M238.029 512.56H289.281M238.029 512.56V448.86M238.029 512.56V572.598M289.281 512.56H322.961M289.281 512.56V527.935M560.919 642.155V705.854V706.5M560.919 642.155V576.259M560.919 642.155H499M560.919 576.259V513.292M560.919 576.259H495.023M473.79 576.259V534.525M473.79 576.259H478.183M473.79 576.259V619.458M560.919 513.292H473.79V517.685M560.919 513.292V495.72H631.94V404.93H560.919M560.919 404.93V385.161M560.919 404.93V417.743V430.556M560.919 385.161V211.635H935.5M560.919 385.161H539.686M322.961 385.161H238.029V448.86M322.961 385.161H515.524M322.961 385.161V388.822M322.961 512.56H366.892V607.743M322.961 512.56V506.702M238.029 448.86H322.961M322.961 448.86V448.128V434.949M322.961 448.86V482.54M322.961 434.949H343.462M322.961 434.949V405.662M322.961 482.54H366.892V434.949H362.499M322.961 482.54V489.13M515.524 385.161V211.635H475.987M515.524 385.161H520.649M475.987 211.635V252.637H347.123V211.635H313.443V40.3054H603.385M475.987 211.635V205.045M603.385 40.3054V168.436M603.385 40.3054V1.5H796.68V40.3054M603.385 168.436H475.987V175.026M603.385 168.436H691.979M989.243 211.635V254.101H1052.21V275.334H1077.1M989.243 211.635V204.313M989.243 211.635H972.5M989.243 40.3054H1143V211.635H1117.37V275.334H1113.71M989.243 40.3054H796.68M989.243 40.3054V168.436M796.68 40.3054V168.436M796.68 168.436H724.927M796.68 168.436H870.63M989.243 168.436H903.578M989.243 168.436V176.49M560.919 430.556H607.778M560.919 430.556V471.558M560.919 430.556L607.778 471.558M607.778 430.556V471.558M607.778 430.556L560.919 471.558M607.778 471.558H560.919M323.127 769.554V765.161M323.127 769.554V774.679M352.304 769.554H366.892V706.5M352.304 769.554V774.679M352.304 769.554V765.161M366.892 607.743H371.285M366.892 607.743H362.499M366.892 631.905H362.499M366.892 631.905H371.285M366.892 631.905V640.5M289.281 546.24V576.625V638.5V640.5M238.029 593.099V640.691L289.281 640.5M473.79 637.03V642.155H494H499M935.5 211.635V207.5M935.5 211.635V216M972.5 211.635V216M972.5 211.635V207.5M319 640.5H289.281M366.892 640.5H347M366.892 640.5V703.027V706.5M366.892 706.5H399M440 706.5H499M560.919 706.5H499M499 706.5V664M499 642.155V647.5" stroke="#18211A" stroke-width="3"/>
<path d="M325.89 843.504V874.987" stroke="#FF8822"/>
<path d="M214 1052L231 1068" stroke="#FF8822"/>
<path d="M289.281 527.935V546.24" stroke="#FF8822"/>
<path d="M399 706.5H440.734" stroke="#FF8822"/>
<path d="M238.029 572.598V593.099" stroke="#FF8822"/>
<path d="M319 640.5H347" stroke="#FF8822"/>
<path d="M499 647.5V664" stroke="#FF8822"/>
<path d="M473.79 619.458V637.03" stroke="#FF8822"/>
<path d="M478.183 576.259H495.023" stroke="#FF8822"/>
<path d="M473.79 517.685V534.525" stroke="#FF8822"/>
<path d="M322.961 489.13V506.702" stroke="#FF8822"/>
<path d="M343.462 434.949H362.499" stroke="#FF8822"/>
<path d="M322.961 388.822V405.662" stroke="#FF8822"/>
<path d="M520.649 385.161H539.686" stroke="#FF8822"/>
<path d="M475.987 175.026V205.045" stroke="#FF8822"/>
<path d="M691.979 168.436H724.927" stroke="#FF8822"/>
<path d="M870.63 168.436H903.578" stroke="#FF8822"/>
<path d="M989.243 176.49V204.313" stroke="#FF8822"/>
<path d="M1077.1 275.334H1113.71" stroke="#FF8822"/>
<path d="M563.293 858.293C562.902 858.683 562.902 859.317 563.293 859.707L569.657 866.071C570.047 866.462 570.681 866.462 571.071 866.071C571.462 865.681 571.462 865.047 571.071 864.657L565.414 859L571.071 853.343C571.462 852.953 571.462 852.319 571.071 851.929C570.681 851.538 570.047 851.538 569.657 851.929L563.293 858.293ZM602 858L564 858L564 860L602 860L602 858Z" fill="#55DD77"/>
<path d="M467.707 906.293C467.317 905.902 466.683 905.902 466.293 906.293L459.929 912.657C459.538 913.047 459.538 913.681 459.929 914.071C460.319 914.462 460.953 914.462 461.343 914.071L467 908.414L472.657 914.071C473.047 914.462 473.681 914.462 474.071 914.071C474.462 913.681 474.462 913.047 474.071 912.657L467.707 906.293ZM468 945L468 907L466 907L466 945L468 945Z" fill="#55DD77"/>
<path d="M217 584V583H216V584H217ZM230.707 584.707C231.098 584.317 231.098 583.683 230.707 583.293L224.343 576.929C223.953 576.538 223.319 576.538 222.929 576.929C222.538 577.319 222.538 577.953 222.929 578.343L228.586 584L222.929 589.657C222.538 590.047 222.538 590.681 222.929 591.071C223.319 591.462 223.953 591.462 224.343 591.071L230.707 584.707ZM217 585H230V583H217V585ZM216 584V631.5H218V584H216Z" fill="#55DD77"/>
<path d="M207 1075L206.293 1075.71L207 1076.41L207.707 1075.71L207 1075ZM216 1067C216 1066.45 215.552 1066 215 1066H206C205.448 1066 205 1066.45 205 1067C205 1067.55 205.448 1068 206 1068H214V1076C214 1076.55 214.448 1077 215 1077C215.552 1077 216 1076.55 216 1076V1067ZM207.707 1075.71L215.707 1067.71L214.293 1066.29L206.293 1074.29L207.707 1075.71ZM207.707 1074.29L174.207 1040.79L172.793 1042.21L206.293 1075.71L207.707 1074.29Z" fill="#55DD77"/>
<path d="M953.707 218.293C953.317 217.902 952.683 217.902 952.293 218.293L945.929 224.657C945.538 225.047 945.538 225.681 945.929 226.071C946.319 226.462 946.953 226.462 947.343 226.071L953 220.414L958.657 226.071C959.047 226.462 959.681 226.462 960.071 226.071C960.462 225.681 960.462 225.047 960.071 224.657L953.707 218.293ZM954 253L954 219L952 219L952 253L954 253Z" fill="#55DD77"/>
<path d="M620 418H621V417H620V418ZM572.293 417.293C571.902 417.683 571.902 418.317 572.293 418.707L578.657 425.071C579.047 425.462 579.681 425.462 580.071 425.071C580.462 424.681 580.462 424.047 580.071 423.657L574.414 418L580.071 412.343C580.462 411.953 580.462 411.319 580.071 410.929C579.681 410.538 579.047 410.538 578.657 410.929L572.293 417.293ZM620 484.5V485.5H621V484.5H620ZM620 417H573V419H620V417ZM619 418V484.5H621V418H619ZM620 483.5H560V485.5H620V483.5Z" fill="#55DD77"/>
</svg>
